<?xml version="1.0" encoding="utf-8"?>
<!-- Generator: Adobe Illustrator 16.0.0, SVG Export Plug-In . SVG Version: 6.00 Build 0)  -->
<!DOCTYPE svg PUBLIC "-//W3C//DTD SVG 1.1//EN" "http://www.w3.org/Graphics/SVG/1.1/DTD/svg11.dtd">
<svg version="1.1" id="Layer_1" xmlns="http://www.w3.org/2000/svg" xmlns:xlink="http://www.w3.org/1999/xlink" x="0px" y="0px"
	 width="200px" height="200px" viewBox="0 0 200 200" enable-background="new 0 0 200 200" xml:space="preserve">
<g id="XMLID_1866_">
	<g id="XMLID_1832_" display="none">
		<g id="XMLID_1837_" display="inline">
			<polygon id="XMLID_1840_" fill="#F7941E" points="41.005,42.073 65.095,40.601 78.407,20.465 100.002,31.268 121.594,20.465 
				134.904,40.601 158.994,42.073 160.469,66.163 180.602,79.477 169.799,101.067 180.602,122.661 160.469,135.976 158.994,160.062 
				134.904,161.536 121.594,181.671 100,170.866 78.407,181.671 65.095,161.536 41.005,160.062 39.532,135.976 19.398,122.661 
				30.199,101.067 19.398,79.477 39.532,66.163 			"/>
			
				<linearGradient id="XMLID_28_" gradientUnits="userSpaceOnUse" x1="727.6914" y1="-1612.1846" x2="889.4482" y2="-1612.1846" gradientTransform="matrix(0.7071 0.7071 -0.7071 0.7071 -1613 668.0166)">
				<stop  offset="0.017" style="stop-color:#FFC635"/>
				<stop  offset="0.2379" style="stop-color:#FBB040"/>
				<stop  offset="0.7876" style="stop-color:#F7941E"/>
				<stop  offset="0.9796" style="stop-color:#F47B20"/>
			</linearGradient>
			<polygon id="XMLID_1839_" fill="url(#XMLID_28_)" points="12.832,101.067 29.542,82.184 24.502,57.473 48.434,49.501 
				56.406,25.569 81.116,30.609 100.002,13.899 118.885,30.609 143.596,25.569 151.566,49.501 175.498,57.473 170.459,82.184 
				187.168,101.067 170.459,119.954 175.498,144.661 151.566,152.636 143.594,176.567 118.885,171.526 100.002,188.233 
				81.116,171.526 56.404,176.567 48.434,152.636 24.502,144.661 29.542,119.954 			"/>
			<radialGradient id="XMLID_29_" cx="89.0181" cy="90.6416" r="75.5519" gradientUnits="userSpaceOnUse">
				<stop  offset="0.0333" style="stop-color:#FFDE88"/>
				<stop  offset="0.3449" style="stop-color:#FFC635"/>
				<stop  offset="0.5538" style="stop-color:#FBB040"/>
				<stop  offset="0.7876" style="stop-color:#F7941E"/>
				<stop  offset="0.9796" style="stop-color:#F47B20"/>
			</radialGradient>
			<circle id="XMLID_1838_" fill="url(#XMLID_29_)" cx="100" cy="101.067" r="66.028"/>
		</g>
	</g>
	<g id="XMLID_1813_" display="none">
		<polygon id="XMLID_1831_" display="inline" fill="#F7941E" points="34.738,47.026 56.804,45.678 69,27.233 88.779,37.129 
			108.559,27.233 120.754,45.678 142.818,47.026 144.168,69.093 162.613,81.289 152.719,101.067 162.613,120.847 144.168,133.044 
			142.818,155.108 120.752,156.458 108.559,174.903 88.777,165.005 69,174.903 56.804,156.458 34.738,155.108 33.388,133.044 
			14.944,120.847 24.838,101.067 14.944,81.289 33.388,69.093 		"/>
		
			<linearGradient id="XMLID_30_" gradientUnits="userSpaceOnUse" x1="726.6992" y1="-1604.25" x2="874.8734" y2="-1604.25" gradientTransform="matrix(0.7071 0.7071 -0.7071 0.7071 -1613 668.0166)">
			<stop  offset="0.017" style="stop-color:#FFC635"/>
			<stop  offset="0.2379" style="stop-color:#FBB040"/>
			<stop  offset="0.7876" style="stop-color:#F7941E"/>
			<stop  offset="0.9796" style="stop-color:#F47B20"/>
		</linearGradient>
		<polygon id="XMLID_1830_" display="inline" fill="url(#XMLID_30_)" points="8.93,101.067 24.236,83.769 19.62,61.133 
			41.542,53.831 48.845,31.908 71.48,36.525 88.779,21.219 106.078,36.525 128.713,31.908 136.016,53.831 157.938,61.133 
			153.322,83.769 168.629,101.067 153.322,118.368 157.938,141.001 136.016,148.306 128.713,170.228 106.078,165.61 88.779,180.915 
			71.48,165.61 48.845,170.228 41.542,148.306 19.62,141.001 24.236,118.368 		"/>
		<radialGradient id="XMLID_31_" cx="77.0386" cy="89.8374" r="60.4833" gradientUnits="userSpaceOnUse">
			<stop  offset="0.017" style="stop-color:#FFC635"/>
			<stop  offset="0.2379" style="stop-color:#FBB040"/>
			<stop  offset="0.7876" style="stop-color:#F7941E"/>
			<stop  offset="0.9796" style="stop-color:#F47B20"/>
		</radialGradient>
		<circle id="XMLID_1829_" display="inline" fill="url(#XMLID_31_)" cx="88.778" cy="101.067" r="60.483"/>
		<g display="inline">
			<linearGradient id="XMLID_32_" gradientUnits="userSpaceOnUse" x1="55.5181" y1="127.8584" x2="147.1245" y2="127.8584">
				<stop  offset="0" style="stop-color:#FFFFFF"/>
				<stop  offset="1" style="stop-color:#D1D3D4"/>
			</linearGradient>
			<path id="XMLID_1823_" fill="url(#XMLID_32_)" d="M55.518,151.587c9.542,6.297,20.973,9.963,33.261,9.963
				c27.874,0,51.338-18.857,58.346-44.508c-2.086-0.902-4.383-1.402-6.801-1.402c-0.252,0-0.496,0.027-0.746,0.039
				c-2.895-12.332-13.955-21.512-27.17-21.512c-15.418,0-27.916,12.498-27.916,27.914c0,2.93,0.453,5.75,1.29,8.4
				c-6.219,2.584-10.593,8.711-10.593,15.867c0,1.377,0.181,2.713,0.488,4H61.135C59.127,150.349,57.225,150.792,55.518,151.587z"/>
			<linearGradient id="XMLID_33_" gradientUnits="userSpaceOnUse" x1="54.3955" y1="139.4697" x2="156.9402" y2="139.4697">
				<stop  offset="0" style="stop-color:#D1D3D4"/>
				<stop  offset="1" style="stop-color:#FFFFFF"/>
			</linearGradient>
			<path id="XMLID_1822_" fill="url(#XMLID_33_)" d="M185.125,154.138c0.297-1.264,0.469-2.574,0.469-3.928
				c0-9.49-7.689-17.182-17.18-17.182c-1.588,0-3.115,0.232-4.574,0.637c-1.43-8.047-8.441-14.164-16.898-14.164
				c-0.252,0-0.498,0.029-0.748,0.039c-2.895-12.33-13.955-21.514-27.168-21.514c-15.418,0-27.918,12.499-27.918,27.917
				c0,2.928,0.455,5.748,1.29,8.4c-6.217,2.584-10.592,8.711-10.592,15.867c0,1.377,0.18,2.713,0.489,4H67.75
				c-7.375,0-13.354,5.979-13.354,13.354l0,0c0,7.375,5.979,13.352,13.354,13.352h17.562h49.62h47.441
				c7.471,0,13.527-6.055,13.527-13.529l0,0C195.9,160.86,191.275,155.411,185.125,154.138z"/>
			<path id="XMLID_1821_" fill="#E6E7E8" d="M185.125,154.138c0.297-1.264,0.469-2.574,0.469-3.928
				c0-9.49-7.689-17.182-17.18-17.182c-1.588,0-3.115,0.232-4.574,0.637c-1.416-7.979-8.324-14.057-16.684-14.16
				c-0.496,26.914-16.17,50.115-38.822,61.41h26.598h47.441c7.471,0,13.527-6.055,13.527-13.529l0,0
				C195.9,160.86,191.275,155.411,185.125,154.138z"/>
			<path id="XMLID_1820_" fill="#F1F2F2" d="M182.502,145.126c0.926,3.637-2.924,6.621-6.123,4.217
				c-0.908-0.68-1.539-1.77-2.053-2.82c-0.707-1.453-1.293-3.002-1.314-4.441c-0.061-4.199,3.471-3.748,6.449-1.379
				C180.857,141.812,182.07,143.431,182.502,145.126z"/>
			<path id="XMLID_1819_" fill="#F1F2F2" d="M63.945,156.827c3.588-1.104,6.759,2.59,4.519,5.904
				c-0.636,0.941-1.691,1.627-2.718,2.193c-1.414,0.777-2.933,1.441-4.37,1.533c-4.19,0.268-3.917-3.277-1.698-6.373
				C60.717,158.636,62.273,157.343,63.945,156.827z"/>
			<path id="XMLID_1818_" fill="#FFFFFF" d="M110.363,102.161c5.174-1.168,9.352,4.463,5.893,8.936
				c-0.98,1.271-2.533,2.123-4.035,2.813c-2.07,0.953-4.279,1.723-6.322,1.691c-5.959-0.096-5.266-5.123-1.861-9.283
				C105.635,104.37,107.947,102.704,110.363,102.161z"/>
		</g>
	</g>
	<g id="XMLID_1747_" display="none">
		<radialGradient id="XMLID_34_" cx="42.1191" cy="69.9971" r="81.4721" gradientUnits="userSpaceOnUse">
			<stop  offset="0" style="stop-color:#E6E7E8"/>
			<stop  offset="1" style="stop-color:#939598"/>
		</radialGradient>
		<path id="XMLID_1782_" display="inline" fill="url(#XMLID_34_)" d="M28.686,64.568c0.064,0,0.125,0.008,0.188,0.01
			c-0.118-1.034-0.188-2.084-0.188-3.15c0-15.032,12.186-27.216,27.215-27.216c13.032,0,23.918,9.159,26.585,21.391
			c3.306-2.008,7.172-3.186,11.323-3.186c12.078,0,21.869,9.793,21.869,21.871c0,0.434-0.039,0.856-0.063,1.284
			c1.045-0.198,2.119-0.313,3.223-0.313c9.527,0,17.254,7.724,17.254,17.253c0,9.526-7.727,17.251-17.254,17.251
			c-2.424,0-4.73-0.504-6.822-1.406c-3.924,3.725-9.213,6.025-15.047,6.025c-0.717,0-1.426-0.039-2.125-0.107
			c-4.012,4.67-9.948,7.639-16.586,7.639c-5.401,0-10.335-1.967-14.151-5.213c-3.728,2.951-8.429,4.729-13.551,4.729
			c-9.002,0-16.726-5.443-20.082-13.215c-0.59,0.051-1.185,0.092-1.788,0.092c-12.078,0-21.869-9.791-21.869-21.869
			C6.817,74.359,16.608,64.568,28.686,64.568z"/>
		<path id="XMLID_1781_" display="inline" fill="#E6E7E8" d="M81.109,51.164c-4.051-9.941-13.808-16.951-25.208-16.951
			c-15.03,0-27.215,12.184-27.215,27.216c0,1.066,0.069,2.116,0.188,3.15c-0.063-0.002-0.124-0.01-0.188-0.01
			c-12.078,0-21.869,9.791-21.869,21.87c0,12.078,9.791,21.869,21.869,21.869c0.036,0,0.069-0.004,0.105-0.004
			C56.629,102.913,78.145,79.796,81.109,51.164z"/>
		<path id="XMLID_1780_" display="inline" fill="#D1D3D4" d="M16.843,71.757c3.412-1.053,6.43,2.464,4.297,5.617
			c-0.605,0.896-1.608,1.546-2.583,2.084c-1.347,0.742-2.792,1.372-4.159,1.46c-3.984,0.257-3.724-3.118-1.615-6.062
			C13.771,73.478,15.253,72.247,16.843,71.757z"/>
		<path id="XMLID_1779_" display="inline" fill="#D1D3D4" d="M44.798,40.256c4.924-1.108,8.899,4.249,5.609,8.504
			c-0.935,1.207-2.412,2.021-3.841,2.675c-1.969,0.904-4.069,1.639-6.012,1.609c-5.67-0.09-5.012-4.872-1.771-8.83
			C40.3,42.36,42.503,40.775,44.798,40.256z"/>
		<linearGradient id="XMLID_35_" gradientUnits="userSpaceOnUse" x1="51.3047" y1="88.5859" x2="112.7477" y2="88.5859">
			<stop  offset="0" style="stop-color:#FFFFFF"/>
			<stop  offset="1" style="stop-color:#D1D3D4"/>
		</linearGradient>
		<path id="XMLID_1778_" display="inline" fill="url(#XMLID_35_)" d="M136.092,92.514c0-9.529-7.727-17.253-17.254-17.253
			c-1.104,0-2.178,0.115-3.223,0.313c0.023-0.428,0.063-0.85,0.063-1.284c0-8.161-4.473-15.273-11.098-19.031
			c-10.646,3.459-18.348,13.456-18.348,25.258c0,2.785,0.431,5.468,1.225,7.991c-5.915,2.459-10.077,8.289-10.077,15.092
			c0,1.316,0.171,2.584,0.463,3.807H64.009c-7.016,0-12.704,5.688-12.704,12.705l0,0c0,0.439,0.023,0.875,0.066,1.301
			c4.806-0.176,9.208-1.914,12.736-4.709c3.816,3.246,8.75,5.213,14.151,5.213c6.638,0,12.574-2.969,16.586-7.639
			c0.699,0.068,1.408,0.107,2.125,0.107c5.834,0,11.123-2.301,15.047-6.025c2.092,0.902,4.398,1.406,6.822,1.406
			C128.365,109.765,136.092,102.04,136.092,92.514z"/>
		<linearGradient id="XMLID_36_" gradientUnits="userSpaceOnUse" x1="58.5591" y1="97.0591" x2="156.1157" y2="97.0591">
			<stop  offset="0" style="stop-color:#D1D3D4"/>
			<stop  offset="1" style="stop-color:#FFFFFF"/>
		</linearGradient>
		<path id="XMLID_1777_" display="inline" fill="url(#XMLID_36_)" d="M182.928,111.015c0.283-1.203,0.447-2.453,0.447-3.74
			c0-9.027-7.316-16.344-16.344-16.344c-1.508,0-2.965,0.222-4.352,0.604c-1.359-7.655-8.031-13.475-16.076-13.475
			c-0.24,0-0.473,0.027-0.711,0.037c-2.756-11.729-13.277-20.466-25.848-20.466c-14.668,0-26.558,11.892-26.558,26.56
			c0,2.785,0.431,5.468,1.226,7.99c-5.915,2.458-10.077,8.289-10.077,15.095c0,1.311,0.172,2.582,0.464,3.805H71.264
			c-7.015,0-12.705,5.688-12.705,12.705l0,0c0,7.016,5.69,12.703,12.705,12.703h16.708h47.207h45.133
			c7.107,0,12.871-5.762,12.871-12.869l0,0C193.182,117.405,188.783,112.222,182.928,111.015z"/>
		<path id="XMLID_1776_" display="inline" fill="#E6E7E8" d="M182.928,111.015c0.283-1.203,0.447-2.453,0.447-3.74
			c0-9.027-7.316-16.344-16.344-16.344c-1.508,0-2.965,0.222-4.352,0.604c-1.348-7.591-7.918-13.372-15.871-13.47
			c-0.473,25.605-15.385,47.68-36.936,58.424h25.305h45.133c7.107,0,12.871-5.762,12.871-12.869l0,0
			C193.182,117.405,188.783,112.222,182.928,111.015z"/>
		<path id="XMLID_1775_" display="inline" fill="#F1F2F2" d="M180.434,102.44c0.879,3.457-2.781,6.297-5.824,4.012
			c-0.863-0.648-1.465-1.684-1.951-2.686c-0.676-1.383-1.232-2.857-1.252-4.227c-0.057-3.993,3.299-3.564,6.135-1.311
			C178.869,99.285,180.023,100.825,180.434,102.44z"/>
		<path id="XMLID_1774_" display="inline" fill="#F1F2F2" d="M67.646,113.569c3.412-1.051,6.428,2.465,4.297,5.617
			c-0.605,0.896-1.609,1.549-2.584,2.086c-1.347,0.74-2.792,1.371-4.159,1.459c-3.986,0.258-3.726-3.119-1.615-6.063
			C64.573,115.29,66.054,114.06,67.646,113.569z"/>
		<path id="XMLID_1773_" display="inline" fill="#FFFFFF" d="M111.803,61.562c4.924-1.108,8.898,4.249,5.609,8.503
			c-0.934,1.207-2.412,2.021-3.84,2.677c-1.971,0.902-4.072,1.638-6.016,1.607c-5.668-0.089-5.01-4.872-1.771-8.83
			C107.305,63.666,109.508,62.081,111.803,61.562z"/>
		<g id="XMLID_1760_" display="inline">
			<g id="XMLID_1767_">
				
					<radialGradient id="XMLID_37_" cx="54.6187" cy="147.8154" r="5.5915" gradientTransform="matrix(1 0 0 1.376 0 -55.5727)" gradientUnits="userSpaceOnUse">
					<stop  offset="0.0428" style="stop-color:#A8E0F9"/>
					<stop  offset="0.6495" style="stop-color:#74D1F6"/>
					<stop  offset="1" style="stop-color:#27A8E0"/>
				</radialGradient>
				<path id="XMLID_1769_" fill="url(#XMLID_37_)" d="M55.935,140.733c-0.204-0.352-0.713-0.352-0.916,0
					c-1.7,2.957-7.186,13.43,0.458,13.43C63.12,154.163,57.635,143.69,55.935,140.733z"/>
				<path id="XMLID_1768_" fill="#F1F2F2" d="M52.227,151.396c0.017-0.922,1.125-1.381,1.73-0.604
					c0.171,0.223,0.25,0.523,0.304,0.803c0.073,0.393,0.112,0.799,0.024,1.143c-0.26,1-1.068,0.666-1.623-0.09
					C52.403,152.292,52.22,151.829,52.227,151.396z"/>
			</g>
			<g id="XMLID_1764_">
				
					<radialGradient id="XMLID_38_" cx="105.8848" cy="147.8154" r="5.5911" gradientTransform="matrix(1 0 0 1.376 0 -55.5727)" gradientUnits="userSpaceOnUse">
					<stop  offset="0.0428" style="stop-color:#A8E0F9"/>
					<stop  offset="0.6495" style="stop-color:#74D1F6"/>
					<stop  offset="1" style="stop-color:#27A8E0"/>
				</radialGradient>
				<path id="XMLID_1766_" fill="url(#XMLID_38_)" d="M107.197,140.733c-0.203-0.352-0.711-0.352-0.914,0
					c-1.701,2.957-7.186,13.43,0.457,13.43C114.385,154.163,108.898,143.69,107.197,140.733z"/>
				<path id="XMLID_1765_" fill="#F1F2F2" d="M103.49,151.396c0.018-0.922,1.127-1.381,1.73-0.604
					c0.172,0.223,0.252,0.523,0.303,0.803c0.074,0.393,0.113,0.799,0.023,1.143c-0.258,1-1.066,0.666-1.621-0.09
					C103.666,152.292,103.482,151.829,103.49,151.396z"/>
			</g>
			<g id="XMLID_1761_">
				
					<radialGradient id="XMLID_39_" cx="75.6875" cy="157.9873" r="5.5924" gradientTransform="matrix(1 0 0 1.376 0 -59.3969)" gradientUnits="userSpaceOnUse">
					<stop  offset="0.0428" style="stop-color:#A8E0F9"/>
					<stop  offset="0.6495" style="stop-color:#74D1F6"/>
					<stop  offset="1" style="stop-color:#27A8E0"/>
				</radialGradient>
				<path id="XMLID_1763_" fill="url(#XMLID_39_)" d="M77.002,150.905c-0.203-0.354-0.711-0.354-0.914,0
					c-1.702,2.957-7.186,13.432,0.456,13.432C84.188,164.337,78.704,153.862,77.002,150.905z"/>
				<path id="XMLID_1762_" fill="#F1F2F2" d="M73.296,161.569c0.017-0.926,1.125-1.387,1.729-0.605
					c0.17,0.221,0.251,0.521,0.304,0.805c0.072,0.389,0.113,0.797,0.023,1.139c-0.258,1.004-1.068,0.666-1.622-0.092
					C73.472,162.462,73.288,161.999,73.296,161.569z"/>
			</g>
		</g>
	</g>
	<g id="XMLID_1711_" display="none">
		<g id="XMLID_1730_" display="inline">
			<g id="XMLID_1739_">
				
					<radialGradient id="XMLID_40_" cx="4023.8438" cy="-1588.4424" r="30.2117" gradientTransform="matrix(-0.7071 0.7071 0.7071 0.7071 4149.5947 -1591.8604)" gradientUnits="userSpaceOnUse">
					<stop  offset="0.0428" style="stop-color:#A8E0F9"/>
					<stop  offset="0.6495" style="stop-color:#74D1F6"/>
					<stop  offset="1" style="stop-color:#27A8E0"/>
				</radialGradient>
				<path id="XMLID_1746_" fill="url(#XMLID_40_)" d="M195.4,144.968l0.422-0.42c0.602-0.6,0.602-1.568,0-2.17l-28.766-28.766
					c-0.598-0.598-1.57-0.598-2.168,0l-0.422,0.422c-0.598,0.6-0.598,1.57,0,2.168l28.766,28.766
					C193.832,145.567,194.803,145.567,195.4,144.968z"/>
				
					<radialGradient id="XMLID_41_" cx="4050.4336" cy="-1589.3193" r="30.2124" gradientTransform="matrix(-0.7071 0.7071 0.7071 0.7071 4149.5947 -1591.8604)" gradientUnits="userSpaceOnUse">
					<stop  offset="0.0428" style="stop-color:#A8E0F9"/>
					<stop  offset="0.6495" style="stop-color:#74D1F6"/>
					<stop  offset="1" style="stop-color:#27A8E0"/>
				</radialGradient>
				<path id="XMLID_1745_" fill="url(#XMLID_41_)" d="M175.979,163.151l0.42-0.42c0.598-0.598,0.598-1.57,0-2.168l-28.766-28.768
					c-0.6-0.6-1.57-0.6-2.17,0l-0.42,0.422c-0.6,0.6-0.6,1.57,0,2.168l28.766,28.766
					C174.406,163.751,175.379,163.751,175.979,163.151z"/>
				
					<radialGradient id="XMLID_42_" cx="4037.1406" cy="-1580.6748" r="30.2131" gradientTransform="matrix(-0.7071 0.7071 0.7071 0.7071 4149.5947 -1591.8604)" gradientUnits="userSpaceOnUse">
					<stop  offset="0.0428" style="stop-color:#A8E0F9"/>
					<stop  offset="0.6495" style="stop-color:#74D1F6"/>
					<stop  offset="1" style="stop-color:#27A8E0"/>
				</radialGradient>
				<path id="XMLID_1744_" fill="url(#XMLID_42_)" d="M191.492,159.864l0.422-0.422c0.598-0.6,0.598-1.57,0-2.168l-28.768-28.766
					c-0.598-0.6-1.568-0.6-2.168,0l-0.42,0.42c-0.602,0.598-0.602,1.568,0,2.168l28.766,28.768
					C189.922,160.462,190.895,160.462,191.492,159.864z"/>
				
					<radialGradient id="XMLID_43_" cx="4030.4922" cy="-1600.9795" r="30.2124" gradientTransform="matrix(-0.7071 0.7071 0.7071 0.7071 4149.5947 -1591.8604)" gradientUnits="userSpaceOnUse">
					<stop  offset="0.0428" style="stop-color:#A8E0F9"/>
					<stop  offset="0.6495" style="stop-color:#74D1F6"/>
					<stop  offset="1" style="stop-color:#27A8E0"/>
				</radialGradient>
				<path id="XMLID_1743_" fill="url(#XMLID_43_)" d="M181.836,140.804l0.42-0.42c0.6-0.598,0.6-1.568,0-2.168l-28.766-28.768
					c-0.598-0.6-1.568-0.6-2.168,0l-0.422,0.422c-0.6,0.598-0.6,1.57,0,2.168l28.768,28.766
					C180.268,141.403,181.238,141.403,181.836,140.804z"/>
				
					<radialGradient id="XMLID_44_" cx="4057.0859" cy="-1594.6592" r="30.2131" gradientTransform="matrix(-0.7071 0.7071 0.7071 0.7071 4149.5947 -1591.8604)" gradientUnits="userSpaceOnUse">
					<stop  offset="0.0428" style="stop-color:#A8E0F9"/>
					<stop  offset="0.6495" style="stop-color:#74D1F6"/>
					<stop  offset="1" style="stop-color:#27A8E0"/>
				</radialGradient>
				<path id="XMLID_1742_" fill="url(#XMLID_44_)" d="M167.502,164.077l0.418-0.42c0.602-0.6,0.602-1.568,0-2.17l-28.766-28.766
					c-0.598-0.598-1.568-0.598-2.168,0l-0.422,0.422c-0.598,0.6-0.598,1.57,0,2.168l28.768,28.766
					C165.932,164.677,166.902,164.677,167.502,164.077z"/>
				
					<radialGradient id="XMLID_45_" cx="4063.7324" cy="-1607.1943" r="30.2124" gradientTransform="matrix(-0.7071 0.7071 0.7071 0.7071 4149.5947 -1591.8604)" gradientUnits="userSpaceOnUse">
					<stop  offset="0.0428" style="stop-color:#A8E0F9"/>
					<stop  offset="0.6495" style="stop-color:#74D1F6"/>
					<stop  offset="1" style="stop-color:#27A8E0"/>
				</radialGradient>
				<path id="XMLID_1741_" fill="url(#XMLID_45_)" d="M153.934,159.913l0.422-0.42c0.598-0.598,0.598-1.57,0-2.168l-28.768-28.768
					c-0.598-0.6-1.568-0.6-2.166,0L123,128.979c-0.6,0.598-0.6,1.57,0,2.168l28.766,28.766
					C152.365,160.513,153.336,160.513,153.934,159.913z"/>
				
					<radialGradient id="XMLID_46_" cx="4043.7861" cy="-1594.1074" r="30.2124" gradientTransform="matrix(-0.7071 0.7071 0.7071 0.7071 4149.5947 -1591.8604)" gradientUnits="userSpaceOnUse">
					<stop  offset="0.0428" style="stop-color:#A8E0F9"/>
					<stop  offset="0.6495" style="stop-color:#74D1F6"/>
					<stop  offset="1" style="stop-color:#27A8E0"/>
				</radialGradient>
				<path id="XMLID_1740_" fill="url(#XMLID_46_)" d="M177.295,155.065l0.42-0.42c0.598-0.598,0.598-1.57,0-2.168l-28.766-28.768
					c-0.6-0.598-1.57-0.598-2.17,0l-0.42,0.422c-0.6,0.6-0.6,1.57,0,2.168l28.766,28.766
					C175.725,155.667,176.695,155.667,177.295,155.065z"/>
			</g>
			<g id="XMLID_1731_">
				
					<radialGradient id="XMLID_47_" cx="4070.8887" cy="-1635.4893" r="30.2115" gradientTransform="matrix(-0.7071 0.7071 0.7071 0.7071 4149.5947 -1591.8604)" gradientUnits="userSpaceOnUse">
					<stop  offset="0.0428" style="stop-color:#A8E0F9"/>
					<stop  offset="0.6495" style="stop-color:#74D1F6"/>
					<stop  offset="1" style="stop-color:#27A8E0"/>
				</radialGradient>
				<path id="XMLID_1738_" fill="url(#XMLID_47_)" d="M128.869,144.968l0.42-0.42c0.6-0.6,0.6-1.568,0-2.17l-28.766-28.766
					c-0.599-0.598-1.568-0.598-2.168,0l-0.42,0.422c-0.6,0.6-0.6,1.57,0,2.168l28.766,28.766
					C127.301,145.567,128.27,145.567,128.869,144.968z"/>
				
					<radialGradient id="XMLID_48_" cx="4097.4824" cy="-1636.3672" r="30.2124" gradientTransform="matrix(-0.7071 0.7071 0.7071 0.7071 4149.5947 -1591.8604)" gradientUnits="userSpaceOnUse">
					<stop  offset="0.0428" style="stop-color:#A8E0F9"/>
					<stop  offset="0.6495" style="stop-color:#74D1F6"/>
					<stop  offset="1" style="stop-color:#27A8E0"/>
				</radialGradient>
				<path id="XMLID_1737_" fill="url(#XMLID_48_)" d="M109.443,163.151l0.422-0.42c0.6-0.598,0.6-1.57,0-2.168l-28.767-28.768
					c-0.599-0.6-1.569-0.6-2.169,0l-0.42,0.422c-0.599,0.6-0.599,1.57,0,2.168l28.766,28.766
					C107.873,163.751,108.846,163.751,109.443,163.151z"/>
				
					<radialGradient id="XMLID_49_" cx="4084.1895" cy="-1627.7197" r="30.2125" gradientTransform="matrix(-0.7071 0.7071 0.7071 0.7071 4149.5947 -1591.8604)" gradientUnits="userSpaceOnUse">
					<stop  offset="0.0428" style="stop-color:#A8E0F9"/>
					<stop  offset="0.6495" style="stop-color:#74D1F6"/>
					<stop  offset="1" style="stop-color:#27A8E0"/>
				</radialGradient>
				<path id="XMLID_1736_" fill="url(#XMLID_49_)" d="M124.959,159.864l0.422-0.422c0.6-0.6,0.6-1.57,0-2.168l-28.768-28.766
					c-0.598-0.6-1.568-0.6-2.167,0l-0.422,0.42c-0.599,0.598-0.599,1.568,0,2.168l28.767,28.768
					C123.391,160.462,124.361,160.462,124.959,159.864z"/>
				
					<radialGradient id="XMLID_50_" cx="4077.5391" cy="-1648.0244" r="30.2132" gradientTransform="matrix(-0.7071 0.7071 0.7071 0.7071 4149.5947 -1591.8604)" gradientUnits="userSpaceOnUse">
					<stop  offset="0.0428" style="stop-color:#A8E0F9"/>
					<stop  offset="0.6495" style="stop-color:#74D1F6"/>
					<stop  offset="1" style="stop-color:#27A8E0"/>
				</radialGradient>
				<path id="XMLID_1735_" fill="url(#XMLID_50_)" d="M115.303,140.804l0.422-0.42c0.6-0.598,0.6-1.568,0-2.168l-28.766-28.768
					c-0.6-0.6-1.571-0.6-2.169,0l-0.422,0.422c-0.599,0.598-0.599,1.57,0,2.168l28.765,28.766
					C113.734,141.403,114.705,141.403,115.303,140.804z"/>
				
					<radialGradient id="XMLID_51_" cx="4104.1309" cy="-1641.7051" r="30.2125" gradientTransform="matrix(-0.7071 0.7071 0.7071 0.7071 4149.5947 -1591.8604)" gradientUnits="userSpaceOnUse">
					<stop  offset="0.0428" style="stop-color:#A8E0F9"/>
					<stop  offset="0.6495" style="stop-color:#74D1F6"/>
					<stop  offset="1" style="stop-color:#27A8E0"/>
				</radialGradient>
				<path id="XMLID_1734_" fill="url(#XMLID_51_)" d="M100.967,164.077l0.422-0.42c0.6-0.6,0.6-1.568,0-2.17l-28.766-28.766
					c-0.6-0.598-1.571-0.598-2.169,0l-0.42,0.422c-0.599,0.6-0.599,1.57,0,2.168l28.766,28.766
					C99.398,164.677,100.368,164.677,100.967,164.077z"/>
				
					<radialGradient id="XMLID_52_" cx="4110.7773" cy="-1654.2432" r="30.2139" gradientTransform="matrix(-0.7071 0.7071 0.7071 0.7071 4149.5947 -1591.8604)" gradientUnits="userSpaceOnUse">
					<stop  offset="0.0428" style="stop-color:#A8E0F9"/>
					<stop  offset="0.6495" style="stop-color:#74D1F6"/>
					<stop  offset="1" style="stop-color:#27A8E0"/>
				</radialGradient>
				<path id="XMLID_1733_" fill="url(#XMLID_52_)" d="M87.402,159.913l0.42-0.42c0.599-0.598,0.599-1.57,0-2.168l-28.766-28.768
					c-0.598-0.6-1.569-0.6-2.169,0l-0.422,0.422c-0.598,0.598-0.598,1.57,0,2.168l28.766,28.766
					C85.832,160.513,86.804,160.513,87.402,159.913z"/>
				
					<radialGradient id="XMLID_53_" cx="4090.8369" cy="-1641.1523" r="30.2132" gradientTransform="matrix(-0.7071 0.7071 0.7071 0.7071 4149.5947 -1591.8604)" gradientUnits="userSpaceOnUse">
					<stop  offset="0.0428" style="stop-color:#A8E0F9"/>
					<stop  offset="0.6495" style="stop-color:#74D1F6"/>
					<stop  offset="1" style="stop-color:#27A8E0"/>
				</radialGradient>
				<path id="XMLID_1732_" fill="url(#XMLID_53_)" d="M110.762,155.065l0.422-0.42c0.598-0.598,0.598-1.57,0-2.168L82.416,123.71
					c-0.599-0.598-1.571-0.598-2.169,0l-0.42,0.422c-0.599,0.6-0.599,1.57,0,2.168l28.766,28.766
					C109.189,155.667,110.16,155.667,110.762,155.065z"/>
			</g>
		</g>
		<radialGradient id="XMLID_54_" cx="37.5166" cy="71.8594" r="77.9833" gradientUnits="userSpaceOnUse">
			<stop  offset="0" style="stop-color:#E6E7E8"/>
			<stop  offset="1" style="stop-color:#939598"/>
		</radialGradient>
		<path id="XMLID_1729_" display="inline" fill="url(#XMLID_54_)" d="M24.659,66.663c0.062,0,0.12,0.009,0.179,0.009
			c-0.113-0.99-0.179-1.994-0.179-3.015c0-14.388,11.664-26.05,26.052-26.05c12.473,0,22.893,8.769,25.447,20.475
			c3.164-1.922,6.865-3.047,10.837-3.047c11.562,0,20.933,9.372,20.933,20.932c0,0.416-0.037,0.82-0.061,1.229
			c1-0.189,2.027-0.299,3.086-0.299c9.119,0,16.512,7.394,16.512,16.515c0,9.119-7.393,16.515-16.512,16.515
			c-2.322,0-4.529-0.486-6.535-1.35c-3.752,3.564-8.814,5.768-14.4,5.768c-0.686,0-1.363-0.039-2.033-0.104
			c-3.838,4.471-9.521,7.313-15.876,7.313c-5.169,0-9.893-1.883-13.543-4.986c-3.568,2.824-8.068,4.523-12.973,4.523
			c-8.615,0-16.01-5.209-19.221-12.648c-0.566,0.047-1.134,0.088-1.713,0.088c-11.561,0-20.933-9.373-20.933-20.934
			S13.098,66.663,24.659,66.663z"/>
		<path id="XMLID_1728_" display="inline" fill="#E6E7E8" d="M74.837,53.833c-3.879-9.516-13.217-16.225-24.127-16.225
			c-14.388,0-26.052,11.662-26.052,26.05c0,1.021,0.066,2.025,0.179,3.015c-0.06,0-0.118-0.009-0.179-0.009
			c-11.561,0-20.933,9.373-20.933,20.934s9.372,20.934,20.933,20.934c0.036,0,0.068-0.004,0.1-0.004
			C51.408,103.366,72,81.238,74.837,53.833z"/>
		<path id="XMLID_1727_" display="inline" fill="#D1D3D4" d="M14.284,73.544c3.264-1.006,6.153,2.358,4.112,5.378
			c-0.579,0.856-1.54,1.479-2.473,1.993c-1.289,0.71-2.672,1.315-3.979,1.397c-3.816,0.246-3.567-2.984-1.546-5.802
			C11.341,75.19,12.758,74.015,14.284,73.544z"/>
		<path id="XMLID_1726_" display="inline" fill="#D1D3D4" d="M41.824,41.407c4.713-1.063,8.518,4.065,5.369,8.138
			c-0.893,1.157-2.308,1.935-3.677,2.563c-1.884,0.865-3.895,1.569-5.755,1.54c-5.427-0.087-4.797-4.665-1.695-8.453
			C37.518,43.421,39.627,41.903,41.824,41.407z"/>
		<linearGradient id="XMLID_55_" gradientUnits="userSpaceOnUse" x1="46.3105" y1="89.6523" x2="105.121" y2="89.6523">
			<stop  offset="0" style="stop-color:#FFFFFF"/>
			<stop  offset="1" style="stop-color:#D1D3D4"/>
		</linearGradient>
		<path id="XMLID_1725_" display="inline" fill="url(#XMLID_55_)" d="M127.465,93.412c0-9.121-7.393-16.515-16.512-16.515
			c-1.059,0-2.086,0.11-3.086,0.299c0.023-0.409,0.061-0.814,0.061-1.229c0-7.811-4.283-14.619-10.623-18.216
			c-10.194,3.311-17.563,12.88-17.563,24.177c0,2.666,0.411,5.234,1.174,7.649c-5.663,2.354-9.647,7.934-9.647,14.448
			c0,1.256,0.165,2.471,0.445,3.643H58.471c-6.718,0-12.161,5.443-12.161,12.16l0,0c0,0.42,0.02,0.836,0.062,1.246
			c4.6-0.17,8.815-1.834,12.193-4.506c3.651,3.104,8.374,4.986,13.543,4.986c6.355,0,12.038-2.842,15.876-7.313
			c0.67,0.064,1.348,0.104,2.033,0.104c5.586,0,10.648-2.203,14.4-5.768c2.006,0.863,4.213,1.35,6.535,1.35
			C120.072,109.927,127.465,102.53,127.465,93.412z"/>
		<linearGradient id="XMLID_56_" gradientUnits="userSpaceOnUse" x1="53.2529" y1="97.7627" x2="146.6324" y2="97.7627">
			<stop  offset="0" style="stop-color:#D1D3D4"/>
			<stop  offset="1" style="stop-color:#FFFFFF"/>
		</linearGradient>
		<path id="XMLID_1724_" display="inline" fill="url(#XMLID_56_)" d="M172.299,111.12c0.27-1.152,0.428-2.348,0.428-3.582
			c0-8.639-7.004-15.642-15.645-15.642c-1.445,0-2.838,0.212-4.168,0.579c-1.299-7.329-7.686-12.898-15.387-12.898
			c-0.229,0-0.453,0.024-0.68,0.034c-2.637-11.228-12.709-19.588-24.74-19.588c-14.039,0-25.42,11.381-25.42,25.421
			c0,2.666,0.411,5.234,1.171,7.647c-5.662,2.355-9.644,7.933-9.644,14.447c0,1.258,0.163,2.475,0.443,3.643H65.414
			c-6.716,0-12.161,5.445-12.161,12.162l0,0c0,6.715,5.445,12.16,12.161,12.16h15.993h45.186h43.201
			c6.803,0,12.318-5.516,12.318-12.32l0,0C182.111,117.237,177.898,112.278,172.299,111.12z"/>
		<path id="XMLID_1723_" display="inline" fill="#E6E7E8" d="M172.297,111.12c0.271-1.152,0.43-2.348,0.43-3.582
			c0-8.639-7.004-15.642-15.645-15.642c-1.445,0-2.838,0.212-4.168,0.579c-1.287-7.266-7.578-12.799-15.191-12.893
			c-0.451,24.509-14.723,45.636-35.352,55.921h24.221h43.201c6.803,0,12.318-5.516,12.318-12.32l0,0
			C182.111,117.237,177.898,112.278,172.297,111.12z"/>
		<path id="XMLID_1722_" display="inline" fill="#F1F2F2" d="M169.91,102.913c0.844,3.313-2.662,6.027-5.576,3.84
			c-0.824-0.621-1.4-1.611-1.867-2.57c-0.646-1.322-1.18-2.734-1.197-4.043c-0.055-3.824,3.158-3.414,5.873-1.256
			C168.412,99.896,169.518,101.366,169.91,102.913z"/>
		<path id="XMLID_1721_" display="inline" fill="#F1F2F2" d="M61.951,113.567c3.266-1.006,6.154,2.357,4.113,5.379
			c-0.579,0.855-1.54,1.479-2.475,1.992c-1.288,0.709-2.67,1.314-3.979,1.398c-3.814,0.244-3.565-2.986-1.546-5.803
			C59.01,115.214,60.427,114.036,61.951,113.567z"/>
		<path id="XMLID_1720_" display="inline" fill="#FFFFFF" d="M104.219,63.787c4.713-1.063,8.516,4.064,5.365,8.138
			c-0.893,1.155-2.307,1.935-3.674,2.562c-1.887,0.864-3.895,1.569-5.756,1.538c-5.426-0.085-4.797-4.663-1.695-8.451
			C99.912,65.799,102.02,64.282,104.219,63.787z"/>
	</g>
	<g id="XMLID_1665_" display="none">
		
			<linearGradient id="XMLID_57_" gradientUnits="userSpaceOnUse" x1="-2970.5781" y1="158.5029" x2="-2950.9355" y2="158.5029" gradientTransform="matrix(-1 0 0 1 -2800.6543 0)">
			<stop  offset="0.017" style="stop-color:#FFC635"/>
			<stop  offset="1" style="stop-color:#FBB040"/>
		</linearGradient>
		<polygon id="XMLID_1710_" display="inline" fill="url(#XMLID_57_)" points="169.498,140.204 163.111,151.987 169.924,151.987 
			157.168,176.8 160.359,158.966 150.281,158.966 156.666,140.204 		"/>
		
			<linearGradient id="XMLID_58_" gradientUnits="userSpaceOnUse" x1="-2859.1943" y1="140.9131" x2="-2839.5527" y2="140.9131" gradientTransform="matrix(-1 0 0 1 -2800.6543 0)">
			<stop  offset="0.017" style="stop-color:#FFC635"/>
			<stop  offset="1" style="stop-color:#FBB040"/>
		</linearGradient>
		<polygon id="XMLID_1709_" display="inline" fill="url(#XMLID_58_)" points="58.114,122.616 51.729,134.399 58.54,134.399 
			45.784,159.21 48.977,141.376 38.898,141.376 45.284,122.616 		"/>
		
			<linearGradient id="XMLID_59_" gradientUnits="userSpaceOnUse" x1="-2918.8047" y1="149.083" x2="-2899.1616" y2="149.083" gradientTransform="matrix(-1 0 0 1 -2800.6543 0)">
			<stop  offset="0.017" style="stop-color:#FFC635"/>
			<stop  offset="1" style="stop-color:#FBB040"/>
		</linearGradient>
		<polygon id="XMLID_1708_" display="inline" fill="url(#XMLID_59_)" points="117.725,130.786 111.34,142.569 118.15,142.569 
			105.395,167.378 108.588,149.546 98.508,149.546 104.895,130.786 		"/>
		<path id="XMLID_1707_" display="inline" fill="#939598" d="M188.691,67.03c0-7.554-6.125-13.676-13.68-13.676
			c-2.574,0-4.971,0.721-7.025,1.956c0.018-0.322,0.047-0.642,0.047-0.968c0-9.588-7.77-17.359-17.357-17.359
			c-3.471,0-6.697,1.03-9.41,2.785c-4.326-8.561-13.197-14.433-23.441-14.433c-14.502,0-26.26,11.757-26.26,26.259
			c0,1.133,0.08,2.242,0.219,3.331c-4.573,1.198-8.41,4.2-10.692,8.215c-9.519,0.079-17.214,7.814-17.214,17.353
			c0,9.585,7.773,17.359,17.361,17.359c0.985,0,1.945-0.103,2.885-0.26c2.72,8.435,10.627,14.541,19.969,14.541
			c4.381,0,8.445-1.346,11.811-3.643c3.496,6.73,10.516,11.336,18.623,11.336c7.463,0,14.002-3.91,17.723-9.783
			c2.752,1.326,5.824,2.09,9.084,2.09c11.59,0,20.986-9.393,20.986-20.982c0-4.071-1.178-7.857-3.182-11.076
			C184.674,78.326,188.691,73.149,188.691,67.03z"/>
		<linearGradient id="XMLID_60_" gradientUnits="userSpaceOnUse" x1="63.877" y1="86.5898" x2="188.6909" y2="86.5898">
			<stop  offset="0.5257" style="stop-color:#939598"/>
			<stop  offset="1" style="stop-color:#808285"/>
		</linearGradient>
		<path id="XMLID_1701_" display="inline" fill="url(#XMLID_60_)" d="M188.691,67.03c0-7.554-6.125-13.676-13.68-13.676
			c-2.492,0-4.816,0.682-6.83,1.847c-8.379,19.854-28.025,33.79-50.93,33.79c-18.609,0-35.07-9.2-45.081-23.3
			c-4.975,3.051-8.294,8.538-8.294,14.801c0,9.585,7.773,17.359,17.361,17.359c0.985,0,1.945-0.103,2.885-0.26
			c2.72,8.435,10.627,14.541,19.969,14.541c4.381,0,8.445-1.346,11.811-3.643c3.496,6.73,10.516,11.336,18.623,11.336
			c7.463,0,14.002-3.91,17.723-9.783c2.752,1.326,5.824,2.09,9.084,2.09c11.59,0,20.986-9.393,20.986-20.982
			c0-4.071-1.178-7.857-3.182-11.076C184.674,78.326,188.691,73.149,188.691,67.03z"/>
		<linearGradient id="XMLID_61_" gradientUnits="userSpaceOnUse" x1="63.877" y1="87.2236" x2="148.7776" y2="87.2236">
			<stop  offset="0" style="stop-color:#FFFFFF"/>
			<stop  offset="1" style="stop-color:#D1D3D4"/>
		</linearGradient>
		<path id="XMLID_1700_" display="inline" opacity="0.53" fill="url(#XMLID_61_)" d="M168.383,92.128
			c-1.469,0-2.887,0.217-4.238,0.588c-1.322-7.455-7.818-13.123-15.654-13.123c-0.234,0-0.463,0.027-0.693,0.037
			c-2.684-11.425-12.93-19.93-25.172-19.93c-3.459,0-6.758,0.681-9.771,1.916c-3.898-4.296-9.523-6.995-15.779-6.995
			c-4.042,0-7.807,1.149-11.026,3.104c-0.006-0.026-0.013-0.052-0.02-0.079c-2.013,1.452-3.703,3.321-4.937,5.493
			c-9.519,0.079-17.214,7.814-17.214,17.353c0,9.585,7.773,17.359,17.361,17.359c0.985,0,1.945-0.103,2.885-0.26
			c2.72,8.435,10.627,14.541,19.969,14.541c4.381,0,8.445-1.346,11.811-3.643c3.496,6.73,10.516,11.336,18.623,11.336
			c7.463,0,14.002-3.91,17.723-9.783c2.752,1.326,5.824,2.09,9.084,2.09c9.045,0,16.754-5.721,19.703-13.744
			C178.127,94.583,173.545,92.128,168.383,92.128z"/>
		<radialGradient id="XMLID_62_" cx="44.0205" cy="76.1602" r="79.3433" gradientUnits="userSpaceOnUse">
			<stop  offset="0" style="stop-color:#E6E7E8"/>
			<stop  offset="1" style="stop-color:#939598"/>
		</radialGradient>
		<path id="XMLID_1699_" display="inline" fill="url(#XMLID_62_)" d="M30.94,70.875c0.062,0,0.122,0.009,0.183,0.009
			c-0.117-1.007-0.183-2.031-0.183-3.067c0-14.637,11.867-26.506,26.504-26.506c12.691,0,23.293,8.923,25.891,20.834
			c3.221-1.955,6.986-3.104,11.027-3.104c11.764,0,21.299,9.535,21.299,21.299c0,0.421-0.039,0.833-0.064,1.251
			c1.02-0.194,2.066-0.303,3.141-0.303c9.281,0,16.801,7.521,16.801,16.8s-7.52,16.801-16.801,16.801
			c-2.361,0-4.605-0.49-6.646-1.371c-3.818,3.629-8.969,5.867-14.652,5.867c-0.699,0-1.387-0.039-2.068-0.105
			c-3.906,4.551-9.687,7.441-16.154,7.441c-5.258,0-10.063-1.914-13.778-5.074c-3.63,2.873-8.208,4.602-13.199,4.602
			c-8.767,0-16.289-5.299-19.556-12.865c-0.576,0.045-1.154,0.088-1.743,0.088c-11.762,0-21.299-9.535-21.299-21.299
			C9.641,80.41,19.178,70.875,30.94,70.875z"/>
		<path id="XMLID_1698_" display="inline" fill="#E6E7E8" d="M81.993,57.821c-3.946-9.684-13.448-16.51-24.549-16.51
			c-14.637,0-26.504,11.869-26.504,26.506c0,1.037,0.065,2.061,0.183,3.067c-0.061,0-0.121-0.009-0.183-0.009
			c-11.762,0-21.297,9.535-21.297,21.298c0,11.764,9.535,21.299,21.297,21.299c0.034,0,0.069-0.004,0.102-0.004
			C58.153,108.218,79.106,85.703,81.993,57.821z"/>
		<linearGradient id="XMLID_63_" gradientUnits="userSpaceOnUse" x1="52.9688" y1="94.2646" x2="112.8039" y2="94.2646">
			<stop  offset="0" style="stop-color:#FFFFFF"/>
			<stop  offset="1" style="stop-color:#D1D3D4"/>
		</linearGradient>
		<path id="XMLID_1697_" display="inline" opacity="0.44" fill="url(#XMLID_63_)" d="M135.537,98.089c0-9.279-7.52-16.8-16.801-16.8
			c-1.074,0-2.121,0.109-3.141,0.303c0.025-0.418,0.064-0.83,0.064-1.251c0-7.949-4.357-14.874-10.811-18.534
			C94.48,65.174,86.982,74.914,86.982,86.403c0,2.712,0.42,5.329,1.193,7.785c-5.76,2.393-9.813,8.068-9.813,14.699
			c0,1.275,0.168,2.514,0.451,3.705H65.34c-6.833,0-12.371,5.539-12.371,12.373l0,0c0,0.426,0.021,0.85,0.063,1.268
			c4.68-0.176,8.967-1.863,12.405-4.586c3.714,3.16,8.52,5.074,13.778,5.074c6.468,0,12.248-2.891,16.154-7.441
			c0.682,0.066,1.369,0.105,2.068,0.105c5.684,0,10.834-2.238,14.652-5.867c2.041,0.881,4.285,1.371,6.646,1.371
			C128.018,114.89,135.537,107.368,135.537,98.089z"/>
		<linearGradient id="XMLID_64_" gradientUnits="userSpaceOnUse" x1="60.0322" y1="102.5146" x2="155.0394" y2="102.5146">
			<stop  offset="0" style="stop-color:#D1D3D4"/>
			<stop  offset="1" style="stop-color:#FFFFFF"/>
		</linearGradient>
		<path id="XMLID_1696_" display="inline" fill="url(#XMLID_64_)" d="M181.152,116.106c0.275-1.174,0.436-2.387,0.436-3.643
			c0-8.789-7.127-15.917-15.916-15.917c-1.473,0-2.887,0.215-4.24,0.589c-1.324-7.455-7.82-13.123-15.656-13.123
			c-0.234,0-0.461,0.023-0.693,0.033c-2.682-11.421-12.93-19.93-25.17-19.93c-14.283,0-25.865,11.58-25.865,25.865
			c0,2.711,0.421,5.325,1.193,7.783c-5.76,2.395-9.813,8.07-9.813,14.699c0,1.277,0.166,2.516,0.453,3.707H72.405
			c-6.833,0-12.373,5.539-12.373,12.369v0.004c0,6.834,5.54,12.369,12.373,12.369h16.271h45.972h43.955
			c6.922,0,12.533-5.613,12.533-12.535l0,0C191.137,122.331,186.854,117.282,181.152,116.106z"/>
		<path id="XMLID_1695_" display="inline" fill="#E6E7E8" d="M181.152,116.106c0.275-1.174,0.436-2.387,0.436-3.643
			c0-8.789-7.127-15.917-15.916-15.917c-1.473,0-2.887,0.215-4.24,0.589c-1.311-7.393-7.711-13.024-15.457-13.119
			c-0.459,24.935-14.98,46.431-35.969,56.896h24.643h43.955c6.922,0,12.533-5.613,12.533-12.535l0,0
			C191.137,122.331,186.854,117.282,181.152,116.106z"/>
		<path id="XMLID_1694_" display="inline" fill="#F1F2F2" d="M178.723,107.755c0.857,3.371-2.709,6.135-5.672,3.906
			c-0.842-0.633-1.426-1.639-1.902-2.613c-0.656-1.346-1.199-2.781-1.219-4.113c-0.055-3.891,3.217-3.475,5.977-1.279
			C177.199,104.685,178.322,106.185,178.723,107.755z"/>
		<path id="XMLID_1693_" display="inline" fill="#F1F2F2" d="M68.881,118.597c3.323-1.023,6.261,2.398,4.185,5.469
			c-0.589,0.875-1.566,1.508-2.518,2.033c-1.31,0.721-2.717,1.336-4.048,1.42c-3.883,0.248-3.627-3.037-1.574-5.902
			C65.89,120.271,67.332,119.073,68.881,118.597z"/>
		<path id="XMLID_1692_" display="inline" fill="#D1D3D4" d="M19.407,77.875c3.323-1.024,6.262,2.399,4.185,5.47
			c-0.588,0.873-1.567,1.508-2.517,2.031c-1.312,0.721-2.718,1.336-4.049,1.422c-3.883,0.247-3.628-3.038-1.573-5.904
			C16.415,79.551,17.856,78.353,19.407,77.875z"/>
		<path id="XMLID_1691_" display="inline" fill="#A7A9AC" d="M103.895,32.378c3.322-1.027,6.26,2.399,4.186,5.47
			c-0.59,0.873-1.568,1.505-2.52,2.028c-1.309,0.724-2.717,1.336-4.049,1.422c-3.881,0.25-3.627-3.035-1.572-5.901
			C100.902,34.054,102.344,32.855,103.895,32.378z"/>
		<path id="XMLID_1690_" display="inline" fill="#FFFFFF" d="M111.885,67.949c4.795-1.083,8.666,4.134,5.461,8.278
			c-0.908,1.175-2.346,1.968-3.738,2.607c-1.918,0.879-3.963,1.596-5.855,1.566c-5.523-0.088-4.883-4.746-1.725-8.601
			C107.506,69.996,109.648,68.452,111.885,67.949z"/>
		<path id="XMLID_1689_" display="inline" fill="#D1D3D4" d="M46.631,47.199c4.796-1.083,8.665,4.134,5.462,8.278
			c-0.909,1.175-2.347,1.968-3.739,2.606c-1.919,0.879-3.966,1.597-5.857,1.567c-5.521-0.089-4.879-4.746-1.725-8.6
			C42.25,49.247,44.395,47.703,46.631,47.199z"/>
		<path id="XMLID_1688_" display="inline" fill="#A7A9AC" d="M157.932,41.762c3.887,3.008,2.33,9.314-2.904,9.486
			c-1.484,0.046-3.014-0.557-4.393-1.225c-1.898-0.918-3.756-2.041-4.936-3.519c-3.451-4.312,0.549-6.784,5.529-6.806
			C153.561,39.688,156.117,40.36,157.932,41.762z"/>
		<g id="XMLID_1678_" display="inline">
			<g id="XMLID_1685_">
				
					<radialGradient id="XMLID_65_" cx="88.6748" cy="178.6387" r="5.4469" gradientTransform="matrix(1 0 0 1.376 -11.6606 -95.0565)" gradientUnits="userSpaceOnUse">
					<stop  offset="0.0428" style="stop-color:#A8E0F9"/>
					<stop  offset="0.6495" style="stop-color:#74D1F6"/>
					<stop  offset="1" style="stop-color:#27A8E0"/>
				</radialGradient>
				<path id="XMLID_1687_" fill="url(#XMLID_65_)" d="M78.295,143.845c-0.199-0.342-0.693-0.342-0.89,0
					c-1.657,2.883-6.998,13.084,0.444,13.084C85.293,156.929,79.952,146.728,78.295,143.845z"/>
				<path id="XMLID_1686_" fill="#F1F2F2" d="M74.686,154.229c0.016-0.898,1.094-1.346,1.684-0.586
					c0.167,0.215,0.243,0.508,0.296,0.783c0.071,0.379,0.11,0.777,0.023,1.109c-0.252,0.975-1.041,0.648-1.58-0.088
					C74.855,155.101,74.678,154.651,74.686,154.229z"/>
			</g>
			<g id="XMLID_1682_">
				
					<radialGradient id="XMLID_66_" cx="104.8301" cy="72.2329" r="5.4463" gradientTransform="matrix(1 0 0 1.376 20.4355 56.8477)" gradientUnits="userSpaceOnUse">
					<stop  offset="0.0428" style="stop-color:#A8E0F9"/>
					<stop  offset="0.6495" style="stop-color:#74D1F6"/>
					<stop  offset="1" style="stop-color:#27A8E0"/>
				</radialGradient>
				<path id="XMLID_1684_" fill="url(#XMLID_66_)" d="M126.547,149.339c-0.199-0.344-0.691-0.344-0.891,0
					c-1.656,2.883-6.998,13.082,0.445,13.082S128.203,152.222,126.547,149.339z"/>
				<path id="XMLID_1683_" fill="#F1F2F2" d="M122.938,159.724c0.016-0.9,1.098-1.346,1.686-0.586
					c0.166,0.213,0.242,0.506,0.293,0.783c0.072,0.379,0.111,0.777,0.023,1.109c-0.252,0.977-1.041,0.646-1.578-0.09
					C123.107,160.595,122.93,160.144,122.938,159.724z"/>
			</g>
			<g id="XMLID_1679_">
				
					<radialGradient id="XMLID_67_" cx="127.9199" cy="151.6348" r="5.4458" gradientTransform="matrix(1 0 0 1.376 -32.2793 -38.0267)" gradientUnits="userSpaceOnUse">
					<stop  offset="0.0428" style="stop-color:#A8E0F9"/>
					<stop  offset="0.6495" style="stop-color:#74D1F6"/>
					<stop  offset="1" style="stop-color:#27A8E0"/>
				</radialGradient>
				<path id="XMLID_1681_" fill="url(#XMLID_67_)" d="M96.922,163.718c-0.196-0.342-0.691-0.342-0.891,0
					c-1.656,2.881-6.998,13.082,0.445,13.082S98.578,166.599,96.922,163.718z"/>
				<path id="XMLID_1680_" fill="#F1F2F2" d="M93.313,174.103c0.016-0.896,1.096-1.346,1.686-0.59
					c0.166,0.219,0.242,0.508,0.295,0.785c0.071,0.381,0.109,0.777,0.023,1.111c-0.252,0.977-1.04,0.65-1.58-0.088
					C93.482,174.976,93.306,174.524,93.313,174.103z"/>
			</g>
		</g>
	</g>
	<g id="XMLID_1470_" display="none">
		<g id="XMLID_1557_" display="inline">
			<radialGradient id="XMLID_68_" cx="42.5078" cy="75.7256" r="82.5664" gradientUnits="userSpaceOnUse">
				<stop  offset="0" style="stop-color:#E6E7E8"/>
				<stop  offset="1" style="stop-color:#939598"/>
			</radialGradient>
			<path id="XMLID_1577_" fill="url(#XMLID_68_)" d="M28.894,70.224c0.065,0,0.126,0.01,0.19,0.01
				c-0.12-1.048-0.19-2.113-0.19-3.192c0-15.235,12.349-27.583,27.581-27.583c13.208,0,24.24,9.285,26.942,21.681
				c3.35-2.038,7.269-3.229,11.474-3.229c12.242,0,22.164,9.922,22.164,22.164c0,0.438-0.041,0.867-0.064,1.302
				c1.061-0.202,2.148-0.318,3.268-0.318c9.654,0,17.484,7.83,17.484,17.486c0,9.654-7.83,17.484-17.484,17.484
				c-2.457,0-4.795-0.514-6.916-1.428c-3.975,3.773-9.334,6.105-15.248,6.105c-0.727,0-1.443-0.041-2.152-0.109
				c-4.066,4.734-10.083,7.744-16.81,7.744c-5.473,0-10.474-1.992-14.341-5.281c-3.778,2.99-8.542,4.789-13.733,4.789
				c-9.123,0-16.951-5.516-20.353-13.389c-0.598,0.047-1.2,0.092-1.812,0.092c-12.24,0-22.163-9.926-22.163-22.164
				C6.731,80.147,16.654,70.224,28.894,70.224z"/>
			<path id="XMLID_1576_" fill="#E6E7E8" d="M82.021,56.64c-4.105-10.077-13.993-17.18-25.546-17.18
				c-15.231,0-27.581,12.347-27.581,27.583c0,1.079,0.07,2.144,0.19,3.192c-0.063,0-0.125-0.01-0.19-0.01
				c-12.24,0-22.163,9.923-22.163,22.164c0,12.238,9.923,22.164,22.163,22.164c0.036,0,0.07-0.004,0.106-0.004
				C57.213,109.085,79.017,85.654,82.021,56.64z"/>
			<path id="XMLID_1575_" fill="#D1D3D4" d="M16.892,77.51c3.458-1.065,6.517,2.497,4.355,5.692c-0.613,0.908-1.63,1.565-2.618,2.11
				c-1.365,0.753-2.829,1.394-4.215,1.479c-4.038,0.26-3.774-3.158-1.637-6.141C13.779,79.253,15.281,78.006,16.892,77.51z"/>
			<path id="XMLID_1574_" fill="#D1D3D4" d="M45.223,45.584c4.99-1.124,9.019,4.305,5.684,8.618
				c-0.947,1.223-2.444,2.048-3.893,2.712c-1.995,0.915-4.124,1.661-6.093,1.63c-5.746-0.092-5.08-4.939-1.795-8.95
				C40.665,47.718,42.897,46.111,45.223,45.584z"/>
			<linearGradient id="XMLID_69_" gradientUnits="userSpaceOnUse" x1="51.8164" y1="94.5649" x2="114.0846" y2="94.5649">
				<stop  offset="0" style="stop-color:#FFFFFF"/>
				<stop  offset="1" style="stop-color:#D1D3D4"/>
			</linearGradient>
			<path id="XMLID_1573_" fill="url(#XMLID_69_)" d="M137.742,98.544c0-9.656-7.83-17.486-17.484-17.486
				c-1.119,0-2.207,0.116-3.268,0.318c0.023-0.435,0.064-0.863,0.064-1.302c0-8.271-4.533-15.478-11.248-19.287
				c-10.789,3.504-18.593,13.635-18.593,25.596c0,2.823,0.437,5.542,1.242,8.101c-5.994,2.49-10.212,8.397-10.212,15.296
				c0,1.33,0.173,2.617,0.469,3.857H64.692c-7.111,0-12.875,5.764-12.875,12.875l0,0c0,0.445,0.024,0.883,0.067,1.318
				c4.871-0.182,9.332-1.941,12.908-4.771c3.867,3.289,8.868,5.281,14.341,5.281c6.727,0,12.743-3.01,16.81-7.744
				c0.709,0.068,1.426,0.109,2.152,0.109c5.914,0,11.273-2.332,15.248-6.105c2.121,0.914,4.459,1.428,6.916,1.428
				C129.912,116.028,137.742,108.198,137.742,98.544z"/>
			<linearGradient id="XMLID_70_" gradientUnits="userSpaceOnUse" x1="59.1685" y1="103.1494" x2="158.035" y2="103.1494">
				<stop  offset="0" style="stop-color:#D1D3D4"/>
				<stop  offset="1" style="stop-color:#FFFFFF"/>
			</linearGradient>
			<path id="XMLID_1572_" fill="url(#XMLID_70_)" d="M185.209,117.292c0.285-1.219,0.451-2.482,0.451-3.791
				c0-9.146-7.416-16.561-16.563-16.561c-1.529,0-3.006,0.223-4.41,0.613c-1.377-7.761-8.139-13.656-16.293-13.656
				c-0.242,0-0.479,0.024-0.721,0.034c-2.791-11.885-13.455-20.739-26.193-20.739c-14.865,0-26.915,12.05-26.915,26.915
				c0,2.823,0.437,5.542,1.241,8.097c-5.993,2.494-10.211,8.402-10.211,15.297c0,1.332,0.175,2.619,0.471,3.855H72.043
				c-7.108,0-12.875,5.766-12.875,12.875l0,0c0,7.111,5.767,12.875,12.875,12.875h16.933h47.84h45.738
				c7.203,0,13.043-5.84,13.043-13.043l0,0C195.598,123.769,191.141,118.519,185.209,117.292z"/>
			<path id="XMLID_1571_" fill="#E6E7E8" d="M185.209,117.292c0.285-1.219,0.451-2.482,0.451-3.791
				c0-9.146-7.416-16.561-16.563-16.561c-1.529,0-3.006,0.223-4.41,0.613c-1.365-7.693-8.023-13.553-16.086-13.652
				c-0.477,25.948-15.588,48.317-37.432,59.206h25.646h45.738c7.203,0,13.043-5.84,13.043-13.043l0,0
				C195.598,123.769,191.141,118.519,185.209,117.292z"/>
			<path id="XMLID_1570_" fill="#F1F2F2" d="M182.68,108.603c0.891,3.508-2.818,6.385-5.902,4.066
				c-0.875-0.658-1.484-1.707-1.979-2.721c-0.684-1.4-1.248-2.895-1.268-4.281c-0.057-4.049,3.344-3.613,6.217-1.328
				C181.096,105.407,182.264,106.968,182.68,108.603z"/>
			<path id="XMLID_1569_" fill="#F1F2F2" d="M68.377,119.886c3.458-1.066,6.515,2.496,4.355,5.691
				c-0.613,0.908-1.63,1.566-2.618,2.109c-1.365,0.754-2.829,1.395-4.215,1.48c-4.04,0.26-3.776-3.158-1.637-6.141
				C65.264,121.628,66.764,120.382,68.377,119.886z"/>
			<path id="XMLID_1568_" fill="#FFFFFF" d="M113.127,67.179c4.99-1.127,9.018,4.302,5.686,8.614
				c-0.947,1.223-2.443,2.048-3.891,2.713c-2,0.915-4.127,1.661-6.098,1.63c-5.744-0.093-5.078-4.939-1.795-8.95
				C108.568,69.31,110.801,67.703,113.127,67.179z"/>
		</g>
		<g id="XMLID_1471_" display="inline">
			<radialGradient id="XMLID_71_" cx="67.2671" cy="158.7881" r="6.8126" gradientUnits="userSpaceOnUse">
				<stop  offset="0.0428" style="stop-color:#A8E0F9"/>
				<stop  offset="0.6495" style="stop-color:#74D1F6"/>
				<stop  offset="1" style="stop-color:#27A8E0"/>
			</radialGradient>
			<path id="XMLID_1500_" fill="url(#XMLID_71_)" d="M73.855,161.212l-0.738-1.154c-0.043-0.068-0.128-0.092-0.201-0.061
				l-0.988,0.434l-1.018-0.393l1.208-0.535c0.081-0.033,0.118-0.129,0.082-0.213c-0.036-0.078-0.13-0.115-0.212-0.082l-1.502,0.666
				l-0.409-0.158l0.235-0.605c0.031-0.084-0.01-0.176-0.093-0.209c-0.082-0.031-0.176,0.01-0.209,0.092l-0.234,0.605l-0.413-0.16
				l-0.278-1.873l0.343-0.271l0.402,0.51c0.036,0.045,0.094,0.066,0.149,0.059c0.027-0.004,0.055-0.014,0.077-0.033
				c0.07-0.055,0.082-0.158,0.026-0.227l-0.403-0.508l0.367-0.291l1.591,0.186c0.014,0,0.029,0,0.043,0
				c0.07-0.014,0.128-0.068,0.135-0.145c0.01-0.086-0.051-0.168-0.141-0.178l-1.271-0.146l0.833-0.658l1.072,0.123
				c0,0,0.029,0,0.041,0c0.063-0.01,0.117-0.055,0.134-0.115l0.363-1.322c0.014-0.053,0.002-0.104-0.029-0.145
				c-0.033-0.037-0.081-0.063-0.132-0.063l-1.37,0.053c-0.079,0.002-0.144,0.064-0.154,0.143l-0.123,1.072l-0.856,0.678l0.152-1.311
				c0.01-0.09-0.053-0.168-0.14-0.178c-0.091-0.012-0.17,0.051-0.18,0.141l-0.188,1.629l-0.346,0.275l-0.402-0.512
				c-0.055-0.068-0.156-0.078-0.226-0.023s-0.081,0.154-0.026,0.227l0.402,0.506l-0.333,0.268l-1.781-0.705l-0.065-0.439
				l0.642-0.096c0.087-0.014,0.149-0.096,0.135-0.182c-0.014-0.088-0.094-0.15-0.182-0.137L67,155.843l-0.066-0.463l0.954-1.285
				c0.053-0.072,0.04-0.172-0.032-0.227c-0.07-0.051-0.173-0.037-0.225,0.035l-0.764,1.027l-0.156-1.051l0.644-0.867
				c0.048-0.064,0.042-0.154-0.014-0.209l-0.962-0.977c-0.036-0.037-0.087-0.051-0.139-0.045c-0.051,0.008-0.094,0.039-0.118,0.082
				l-0.641,1.213c-0.038,0.068-0.017,0.158,0.046,0.207l0.865,0.639l0.159,1.084l-1.058-0.789c-0.072-0.055-0.173-0.037-0.226,0.035
				c-0.051,0.068-0.038,0.17,0.034,0.223l1.317,0.979l0.063,0.436l-0.641,0.096c-0.089,0.014-0.149,0.094-0.137,0.182
				c0.014,0.09,0.096,0.15,0.183,0.137l0.642-0.096l0.065,0.439l-1.524,1.209l-0.397-0.154l0.233-0.607
				c0.034-0.082-0.008-0.174-0.091-0.209c-0.082-0.029-0.176,0.012-0.209,0.094l-0.232,0.605l-0.411-0.158l-0.665-1.502
				c-0.036-0.082-0.13-0.117-0.21-0.082c-0.083,0.037-0.118,0.129-0.083,0.211l0.534,1.209l-1.019-0.393l-0.437-0.99
				c-0.031-0.072-0.113-0.109-0.188-0.09l-1.324,0.357c-0.049,0.014-0.089,0.051-0.108,0.098c-0.019,0.045-0.014,0.1,0.014,0.145
				l0.74,1.154c0.034,0.055,0.097,0.082,0.157,0.072c0.014-0.004,0.027-0.008,0.043-0.01l0.986-0.439l0.992,0.385l-1.171,0.516
				c-0.081,0.039-0.117,0.131-0.083,0.213c0.031,0.068,0.101,0.105,0.171,0.096c0.014-0.004,0.027-0.006,0.041-0.014l1.466-0.646
				l0.435,0.168l-0.233,0.605c-0.032,0.086,0.009,0.178,0.091,0.209c0.028,0.01,0.055,0.014,0.083,0.01
				c0.056-0.01,0.104-0.043,0.126-0.102l0.235-0.607l0.43,0.168l0.274,1.859l-0.354,0.279l-0.404-0.508
				c-0.055-0.068-0.156-0.082-0.226-0.027c-0.07,0.055-0.081,0.158-0.026,0.227l0.402,0.51l-0.344,0.271l-1.632-0.189
				c-0.087-0.01-0.168,0.055-0.178,0.141c-0.009,0.09,0.055,0.168,0.142,0.178l1.312,0.154l-0.856,0.678l-1.072-0.127
				c-0.079-0.006-0.152,0.041-0.173,0.121l-0.365,1.318c-0.012,0.051-0.001,0.104,0.031,0.145c0.031,0.041,0.081,0.061,0.132,0.061
				l1.369-0.051h0.012c0.079-0.014,0.134-0.068,0.142-0.145l0.125-1.072l0.833-0.656l-0.147,1.27
				c-0.01,0.09,0.053,0.168,0.141,0.178c0.016,0.004,0.031,0,0.043,0c0.07-0.01,0.128-0.068,0.137-0.139l0.185-1.594l0.367-0.291
				l0.402,0.51c0.038,0.049,0.096,0.068,0.15,0.059c0.026-0.004,0.053-0.014,0.076-0.031c0.07-0.055,0.082-0.156,0.027-0.225
				l-0.404-0.512l0.361-0.283l1.766,0.699l0.065,0.438l-0.644,0.096c-0.087,0.014-0.147,0.092-0.134,0.182
				c0.012,0.09,0.094,0.15,0.182,0.137l0.642-0.096l0.063,0.436l-0.979,1.318c-0.051,0.072-0.038,0.172,0.034,0.227
				c0.036,0.023,0.079,0.033,0.12,0.027c0.04-0.004,0.079-0.027,0.104-0.063l0.788-1.059l0.159,1.08l-0.644,0.865
				c-0.048,0.063-0.041,0.152,0.016,0.209l0.962,0.977c0.036,0.035,0.087,0.051,0.139,0.045c0.05-0.008,0.094-0.037,0.118-0.086
				l0.641-1.209c0.036-0.072,0.017-0.158-0.046-0.205l-0.867-0.645l-0.154-1.051l1.027,0.764c0.034,0.027,0.077,0.037,0.118,0.031
				c0.041-0.008,0.079-0.027,0.106-0.066c0.053-0.068,0.038-0.17-0.033-0.223l-1.286-0.955l-0.068-0.465l0.642-0.094
				c0.087-0.014,0.149-0.096,0.135-0.186c-0.012-0.084-0.094-0.146-0.183-0.133l-0.641,0.092l-0.065-0.438l1.499-1.186l0.413,0.162
				l-0.235,0.602c-0.032,0.086,0.009,0.178,0.091,0.209c0.027,0.01,0.055,0.014,0.083,0.01c0.055-0.01,0.106-0.043,0.126-0.102
				l0.235-0.604l0.437,0.168l0.647,1.467c0.031,0.064,0.101,0.102,0.169,0.092c0.016-0.004,0.029-0.006,0.043-0.01
				c0.081-0.037,0.118-0.135,0.082-0.213l-0.517-1.172l0.992,0.385l0.435,0.986c0.029,0.064,0.101,0.105,0.171,0.092h0.012
				l1.329-0.359c0.05-0.014,0.091-0.049,0.11-0.096C73.888,161.308,73.883,161.253,73.855,161.212z M71.467,154.712l1.012-0.037
				l-0.269,0.975l-0.841-0.1L71.467,154.712z M66.303,152.212l0.71,0.719l-0.505,0.682l-0.68-0.508L66.303,152.212z M61.612,157.253
				l-0.544-0.854l0.978-0.264l0.341,0.775L61.612,157.253z M63.068,162.892l-1.014,0.037l0.271-0.98l0.841,0.1L63.068,162.892z
				 M68.242,165.364l-0.712-0.723l0.505-0.68l0.68,0.504L68.242,165.364z M69.018,159.304l-1.43-0.551l1.208-0.959L69.018,159.304z
				 M68.603,157.538l-1.212,0.959l-0.224-1.529L68.603,157.538z M66.85,157.017l0.226,1.537l-1.458-0.564L66.85,157.017z
				 M65.531,158.302l1.415,0.547l-1.195,0.945L65.531,158.302z M65.957,160.042l1.197-0.947l0.223,1.512L65.957,160.042z
				 M67.695,160.558l-0.223-1.506l1.427,0.555L67.695,160.558z M72.487,161.462l-0.341-0.773l0.774-0.342l0.546,0.852
				L72.487,161.462z"/>
			<radialGradient id="XMLID_72_" cx="132.5391" cy="160.1475" r="9.4145" gradientUnits="userSpaceOnUse">
				<stop  offset="0.0428" style="stop-color:#A8E0F9"/>
				<stop  offset="0.6495" style="stop-color:#74D1F6"/>
				<stop  offset="1" style="stop-color:#27A8E0"/>
			</radialGradient>
			<path id="XMLID_1486_" fill="url(#XMLID_72_)" d="M141.643,163.497l-1.021-1.596c-0.059-0.094-0.176-0.127-0.277-0.082
				l-1.363,0.602l-1.406-0.545l1.668-0.736c0.113-0.051,0.164-0.182,0.113-0.293c-0.049-0.113-0.182-0.166-0.293-0.113l-2.074,0.918
				l-0.568-0.221l0.326-0.838c0.043-0.113-0.014-0.244-0.129-0.287c-0.113-0.045-0.242,0.014-0.287,0.129l-0.324,0.836l-0.572-0.223
				l-0.381-2.59l0.471-0.373l0.559,0.703c0.051,0.064,0.129,0.092,0.205,0.082c0.037-0.008,0.074-0.021,0.105-0.045
				c0.098-0.078,0.113-0.217,0.037-0.314l-0.557-0.703l0.506-0.4l2.199,0.254c0.02,0.002,0.039,0.002,0.059,0
				c0.096-0.014,0.176-0.094,0.189-0.195c0.014-0.121-0.074-0.23-0.195-0.248l-1.758-0.201l1.15-0.91l1.482,0.17
				c0.018,0,0.039,0,0.057,0c0.086-0.014,0.158-0.074,0.182-0.16l0.504-1.83c0.02-0.064,0.004-0.141-0.039-0.195
				c-0.045-0.055-0.113-0.084-0.184-0.084l-1.893,0.07c-0.109,0.004-0.199,0.09-0.211,0.195l-0.174,1.484l-1.184,0.934l0.213-1.811
				c0.014-0.121-0.074-0.234-0.195-0.248c-0.123-0.014-0.232,0.076-0.246,0.195l-0.264,2.254l-0.475,0.377l-0.557-0.701
				c-0.078-0.096-0.217-0.113-0.314-0.039c-0.096,0.08-0.111,0.217-0.035,0.316l0.557,0.701l-0.463,0.367l-2.461-0.977l-0.09-0.605
				l0.889-0.131c0.121-0.018,0.205-0.131,0.188-0.254c-0.02-0.119-0.131-0.205-0.254-0.188l-0.887,0.133l-0.094-0.641l1.32-1.777
				c0.072-0.1,0.053-0.236-0.047-0.311c-0.098-0.072-0.238-0.053-0.309,0.047l-1.057,1.418l-0.215-1.451l0.891-1.199
				c0.064-0.086,0.057-0.209-0.021-0.287l-1.328-1.348c-0.051-0.051-0.121-0.074-0.191-0.064s-0.131,0.055-0.164,0.117l-0.887,1.674
				c-0.051,0.096-0.023,0.217,0.066,0.281l1.195,0.891l0.221,1.49l-1.465-1.086c-0.1-0.076-0.238-0.055-0.313,0.045
				c-0.072,0.1-0.053,0.238,0.047,0.311l1.822,1.354l0.088,0.604l-0.887,0.129c-0.123,0.018-0.207,0.131-0.189,0.25
				c0.02,0.123,0.133,0.205,0.254,0.189l0.887-0.131l0.09,0.605l-2.105,1.668l-0.551-0.211l0.324-0.836
				c0.045-0.117-0.014-0.244-0.127-0.287c-0.113-0.045-0.242,0.01-0.287,0.125l-0.324,0.836l-0.566-0.219l-0.918-2.076
				c-0.049-0.111-0.182-0.16-0.293-0.111c-0.111,0.047-0.162,0.18-0.113,0.293l0.738,1.668l-1.406-0.543l-0.604-1.363
				c-0.045-0.104-0.158-0.154-0.262-0.127l-1.828,0.492c-0.068,0.018-0.125,0.068-0.15,0.135c-0.025,0.068-0.018,0.141,0.021,0.201
				l1.02,1.596c0.049,0.072,0.135,0.109,0.219,0.1c0.021-0.004,0.041-0.01,0.059-0.018l1.363-0.602l1.371,0.531l-1.617,0.715
				c-0.113,0.049-0.164,0.178-0.115,0.291c0.041,0.092,0.139,0.145,0.236,0.131c0.02-0.004,0.039-0.008,0.057-0.018l2.023-0.895
				l0.605,0.234l-0.324,0.834c-0.045,0.117,0.012,0.244,0.127,0.289c0.037,0.018,0.076,0.02,0.113,0.014
				c0.076-0.012,0.145-0.063,0.174-0.141l0.324-0.836l0.594,0.229l0.379,2.57l-0.49,0.387l-0.557-0.703
				c-0.076-0.096-0.215-0.113-0.313-0.037s-0.113,0.217-0.035,0.313l0.557,0.705l-0.477,0.377l-2.254-0.264
				c-0.121-0.014-0.232,0.074-0.248,0.195c-0.014,0.123,0.074,0.232,0.197,0.246l1.811,0.213l-1.182,0.934l-1.48-0.17
				c-0.109-0.014-0.213,0.055-0.24,0.16l-0.504,1.826c-0.018,0.068-0.002,0.145,0.041,0.199c0.045,0.055,0.111,0.084,0.182,0.082
				l1.893-0.068c0,0,0.018,0,0.025-0.004c0.098-0.014,0.176-0.092,0.188-0.195l0.172-1.48l1.152-0.91l-0.205,1.758
				c-0.014,0.119,0.074,0.229,0.195,0.246c0.021,0,0.039,0,0.059-0.004c0.098-0.014,0.176-0.092,0.189-0.191l0.254-2.199l0.508-0.4
				l0.559,0.701c0.049,0.066,0.129,0.094,0.205,0.082c0.037-0.006,0.074-0.02,0.105-0.043c0.096-0.08,0.111-0.221,0.037-0.316
				l-0.557-0.701l0.498-0.395l2.438,0.967l0.09,0.605l-0.887,0.131c-0.121,0.016-0.205,0.129-0.188,0.252
				c0.018,0.121,0.131,0.207,0.252,0.189l0.889-0.135l0.088,0.604l-1.354,1.822c-0.072,0.096-0.053,0.236,0.047,0.309
				c0.047,0.037,0.107,0.051,0.164,0.045c0.055-0.012,0.109-0.041,0.146-0.09l1.088-1.463l0.219,1.49l-0.889,1.199
				c-0.064,0.086-0.057,0.209,0.021,0.287l1.328,1.35c0.051,0.049,0.121,0.072,0.193,0.063c0.068-0.012,0.129-0.053,0.162-0.117
				l0.885-1.674c0.051-0.098,0.023-0.217-0.063-0.281l-1.197-0.891l-0.215-1.453l1.42,1.055c0.051,0.039,0.107,0.053,0.164,0.041
				c0.057-0.006,0.109-0.037,0.146-0.084c0.074-0.1,0.053-0.24-0.045-0.313l-1.777-1.322l-0.094-0.637l0.887-0.133
				c0.121-0.018,0.205-0.131,0.188-0.252c-0.016-0.123-0.129-0.205-0.252-0.188l-0.889,0.131l-0.088-0.607l2.07-1.641l0.57,0.223
				l-0.324,0.836c-0.045,0.117,0.012,0.244,0.127,0.287c0.037,0.014,0.076,0.018,0.113,0.014c0.076-0.014,0.145-0.061,0.174-0.139
				l0.324-0.836l0.604,0.232l0.895,2.023c0.041,0.094,0.139,0.145,0.236,0.131c0.02-0.004,0.039-0.008,0.057-0.018
				c0.113-0.047,0.164-0.182,0.115-0.295l-0.717-1.615l1.371,0.529l0.604,1.363c0.039,0.094,0.139,0.145,0.234,0.131
				c0,0,0.016-0.004,0.027-0.004l1.828-0.492c0.066-0.021,0.123-0.068,0.148-0.135C141.689,163.63,141.68,163.56,141.643,163.497z
				 M138.34,154.517l1.4-0.055l-0.373,1.35l-1.162-0.135L138.34,154.517z M131.205,151.06l0.984,0.998l-0.697,0.938l-0.939-0.699
				L131.205,151.06z M124.727,158.03l-0.756-1.182l1.354-0.363l0.473,1.072L124.727,158.03z M126.734,165.815l-1.398,0.051
				l0.371-1.348l1.162,0.137L126.734,165.815z M133.883,169.233l-0.982-0.996l0.697-0.938l0.939,0.697L133.883,169.233z
				 M134.957,160.862l-1.977-0.764l1.67-1.322L134.957,160.862z M134.383,158.421l-1.674,1.326l-0.309-2.113L134.383,158.421z
				 M131.959,157.698l0.314,2.127l-2.014-0.781L131.959,157.698z M130.139,159.476l1.957,0.758l-1.652,1.309L130.139,159.476z
				 M130.729,161.884l1.654-1.313l0.309,2.09L130.729,161.884z M133.131,162.597l-0.307-2.082l1.969,0.764L133.131,162.597z
				 M139.752,163.847l-0.473-1.072l1.07-0.473l0.754,1.178L139.752,163.847z"/>
			<radialGradient id="XMLID_73_" cx="103.8711" cy="171.0479" r="7.5937" gradientUnits="userSpaceOnUse">
				<stop  offset="0.0428" style="stop-color:#A8E0F9"/>
				<stop  offset="0.6495" style="stop-color:#74D1F6"/>
				<stop  offset="1" style="stop-color:#27A8E0"/>
			</radialGradient>
			<path id="XMLID_1472_" fill="url(#XMLID_73_)" d="M111.215,173.749l-0.824-1.285c-0.047-0.076-0.141-0.105-0.223-0.068
				l-1.1,0.486l-1.135-0.438l1.346-0.598c0.092-0.041,0.131-0.146,0.094-0.236c-0.041-0.092-0.148-0.133-0.238-0.092l-1.674,0.74
				l-0.457-0.176l0.262-0.674c0.035-0.092-0.01-0.199-0.102-0.232c-0.094-0.039-0.197,0.01-0.234,0.102l-0.26,0.676l-0.463-0.178
				l-0.307-2.09l0.381-0.301l0.449,0.564c0.041,0.051,0.104,0.074,0.166,0.068c0.031-0.008,0.061-0.018,0.086-0.037
				c0.078-0.063,0.09-0.176,0.029-0.254l-0.449-0.564l0.408-0.326l1.773,0.205c0.016,0.004,0.033,0.004,0.047,0
				c0.078-0.01,0.143-0.074,0.152-0.158c0.012-0.098-0.061-0.184-0.158-0.197l-1.416-0.164l0.928-0.736l1.195,0.139
				c0.016,0.004,0.031,0,0.047,0c0.068-0.01,0.129-0.061,0.146-0.129l0.406-1.473c0.014-0.055,0.002-0.113-0.035-0.162
				c-0.033-0.043-0.088-0.068-0.146-0.064l-1.525,0.055c-0.088,0.004-0.162,0.072-0.172,0.16l-0.139,1.193l-0.953,0.756l0.168-1.463
				c0.014-0.098-0.057-0.188-0.156-0.197c-0.098-0.01-0.188,0.059-0.199,0.156l-0.211,1.82l-0.383,0.305l-0.449-0.568
				c-0.061-0.08-0.174-0.094-0.252-0.031c-0.078,0.061-0.092,0.174-0.031,0.254l0.449,0.568l-0.371,0.295l-1.984-0.789l-0.072-0.49
				l0.715-0.102c0.098-0.018,0.166-0.107,0.152-0.205c-0.016-0.098-0.107-0.166-0.205-0.152l-0.713,0.107l-0.078-0.518l1.064-1.432
				c0.059-0.078,0.043-0.191-0.037-0.25c-0.08-0.063-0.191-0.045-0.252,0.033l-0.85,1.148l-0.172-1.176l0.717-0.961
				c0.053-0.072,0.047-0.172-0.018-0.234l-1.07-1.088c-0.043-0.041-0.098-0.059-0.154-0.053c-0.057,0.012-0.107,0.045-0.133,0.094
				l-0.715,1.352c-0.041,0.08-0.018,0.176,0.053,0.227l0.965,0.719l0.178,1.203l-1.182-0.877c-0.08-0.059-0.191-0.045-0.25,0.037
				c-0.061,0.08-0.043,0.193,0.037,0.25l1.469,1.094l0.07,0.482l-0.715,0.105c-0.098,0.014-0.166,0.107-0.152,0.203
				c0.014,0.1,0.105,0.168,0.205,0.15l0.713-0.104l0.074,0.486l-1.699,1.348l-0.443-0.172l0.262-0.674
				c0.037-0.094-0.01-0.195-0.102-0.234c-0.094-0.033-0.197,0.012-0.232,0.104l-0.262,0.674l-0.457-0.174l-0.74-1.676
				c-0.039-0.088-0.145-0.129-0.236-0.092c-0.09,0.041-0.129,0.146-0.09,0.236l0.594,1.346l-1.135-0.438l-0.484-1.1
				c-0.037-0.082-0.127-0.123-0.213-0.1l-1.473,0.396c-0.057,0.014-0.102,0.055-0.122,0.107c-0.021,0.055-0.015,0.113,0.016,0.16
				l0.823,1.289c0.04,0.061,0.108,0.092,0.179,0.078c0.015,0,0.03-0.004,0.046-0.01l1.1-0.486l1.104,0.424l-1.305,0.578
				c-0.091,0.041-0.13,0.145-0.091,0.236c0.032,0.076,0.113,0.117,0.189,0.107c0.016-0.004,0.031-0.008,0.047-0.014l1.632-0.723
				l0.488,0.188l-0.263,0.676c-0.035,0.092,0.011,0.195,0.104,0.232c0.029,0.01,0.061,0.014,0.091,0.01
				c0.062-0.01,0.116-0.051,0.14-0.113l0.262-0.674l0.479,0.186l0.305,2.072l-0.393,0.311l-0.449-0.568
				c-0.063-0.076-0.176-0.09-0.254-0.027c-0.077,0.063-0.091,0.174-0.027,0.25l0.449,0.568l-0.385,0.305l-1.818-0.213
				c-0.1-0.01-0.188,0.059-0.198,0.158c-0.013,0.1,0.058,0.189,0.157,0.199l1.461,0.172l-0.954,0.752l-1.195-0.137
				c-0.087-0.01-0.167,0.045-0.192,0.131l-0.405,1.473c-0.015,0.055-0.003,0.113,0.032,0.158c0.037,0.043,0.092,0.068,0.147,0.068
				l1.526-0.059c0,0,0.014,0,0.019,0c0.081-0.014,0.144-0.076,0.152-0.158l0.139-1.195l0.931-0.736l-0.166,1.418
				c-0.011,0.1,0.059,0.189,0.156,0.199c0.018,0.004,0.033,0.004,0.049,0c0.078-0.01,0.143-0.076,0.15-0.158l0.207-1.771l0.41-0.324
				l0.447,0.568c0.041,0.051,0.107,0.072,0.166,0.064c0.031-0.002,0.061-0.016,0.086-0.037c0.078-0.063,0.092-0.174,0.029-0.25
				l-0.449-0.568l0.402-0.318l1.969,0.781l0.072,0.486l-0.717,0.105c-0.1,0.014-0.166,0.105-0.152,0.205
				c0.016,0.096,0.107,0.164,0.205,0.15l0.715-0.105l0.072,0.486l-1.092,1.467c-0.059,0.082-0.041,0.191,0.037,0.252
				c0.039,0.027,0.088,0.039,0.133,0.031c0.045-0.006,0.088-0.031,0.117-0.068l0.879-1.182l0.176,1.203l-0.717,0.965
				c-0.053,0.072-0.045,0.172,0.016,0.232l1.074,1.09c0.039,0.041,0.096,0.059,0.152,0.051c0.057-0.01,0.107-0.043,0.135-0.096
				l0.711-1.35c0.043-0.078,0.021-0.174-0.051-0.225l-0.965-0.721l-0.174-1.17l1.146,0.848c0.039,0.031,0.088,0.043,0.133,0.035
				c0.047-0.006,0.088-0.031,0.117-0.068c0.059-0.082,0.043-0.191-0.037-0.254l-1.432-1.064l-0.076-0.514l0.717-0.107
				c0.096-0.014,0.164-0.105,0.15-0.201c-0.016-0.1-0.105-0.168-0.205-0.154l-0.715,0.105l-0.072-0.488l1.67-1.322l0.459,0.178
				l-0.26,0.674c-0.035,0.094,0.01,0.199,0.104,0.234c0.029,0.01,0.059,0.014,0.09,0.01c0.063-0.01,0.117-0.051,0.141-0.113
				l0.26-0.674l0.488,0.188l0.721,1.633c0.035,0.076,0.113,0.117,0.191,0.104c0.016,0,0.031-0.004,0.045-0.01
				c0.092-0.041,0.133-0.148,0.092-0.24l-0.576-1.301l1.105,0.424l0.486,1.104c0.033,0.072,0.111,0.115,0.189,0.102
				c0,0,0.014,0,0.021-0.002l1.475-0.398c0.057-0.014,0.1-0.055,0.121-0.109C111.252,173.858,111.246,173.796,111.215,173.749z
				 M108.553,166.505l1.127-0.041l-0.301,1.088l-0.936-0.109L108.553,166.505z M102.799,163.72l0.793,0.801l-0.563,0.758
				l-0.76-0.563L102.799,163.72z M97.571,169.341l-0.608-0.953l1.09-0.295l0.382,0.863L97.571,169.341z M99.193,175.618
				l-1.129,0.045l0.3-1.09l0.937,0.109L99.193,175.618z M104.957,178.376l-0.793-0.801l0.564-0.762l0.756,0.566L104.957,178.376z
				 M105.824,171.624l-1.594-0.615l1.346-1.066L105.824,171.624z M105.361,169.655l-1.35,1.068l-0.252-1.701L105.361,169.655z
				 M103.406,169.073l0.252,1.713l-1.623-0.627L103.406,169.073z M101.938,170.505l1.578,0.613l-1.332,1.051L101.938,170.505z
				 M102.412,172.446l1.334-1.059l0.248,1.686L102.412,172.446z M104.35,173.022l-0.246-1.678l1.588,0.613L104.35,173.022z
				 M109.691,174.028l-0.381-0.861l0.861-0.381l0.607,0.949L109.691,174.028z"/>
		</g>
	</g>
	<g id="XMLID_1164_" display="none">
		<g id="XMLID_7_" display="inline">
			
				<radialGradient id="XMLID_74_" cx="22.3047" cy="334.291" r="103.8621" gradientTransform="matrix(1 -7.000000e-004 7.000000e-004 1 38.8296 -256.0698)" gradientUnits="userSpaceOnUse">
				<stop  offset="0.1141" style="stop-color:#FFE5C2"/>
				<stop  offset="0.6835" style="stop-color:#FEC77C"/>
				<stop  offset="0.9525" style="stop-color:#C9AC68"/>
			</radialGradient>
			<path id="XMLID_26_" fill="url(#XMLID_74_)" d="M164.85,101.013c0.027,41.654-33.715,75.443-75.365,75.475
				c-41.654,0.027-75.443-33.713-75.473-75.365c-0.029-41.654,33.712-75.443,75.364-75.475
				C131.029,25.62,164.818,59.359,164.85,101.013z"/>
			
				<radialGradient id="XMLID_75_" cx="53.3804" cy="346.3906" r="12.334" gradientTransform="matrix(0.9542 -0.2991 0.2991 0.9542 -64.9658 -221.5532)" gradientUnits="userSpaceOnUse">
				<stop  offset="0" style="stop-color:#FFE5C2"/>
				<stop  offset="0.5476" style="stop-color:#FEC77C"/>
				<stop  offset="0.9525" style="stop-color:#C9AC68"/>
			</radialGradient>
			<path id="XMLID_25_" opacity="0.37" fill="url(#XMLID_75_)" d="M101.346,89.316c2.039,6.5-1.578,13.421-8.08,15.458
				c-6.5,2.037-13.421-1.582-15.458-8.08c-2.037-6.5,1.579-13.419,8.08-15.456C92.387,79.198,99.309,82.816,101.346,89.316z"/>
			
				<radialGradient id="XMLID_76_" cx="134.0117" cy="394.4863" r="15.4892" gradientTransform="matrix(0.8941 -0.2803 0.2842 0.9067 -103.6484 -202.583)" gradientUnits="userSpaceOnUse">
				<stop  offset="0" style="stop-color:#FFE5C2"/>
				<stop  offset="0.5476" style="stop-color:#FEC77C"/>
				<stop  offset="0.9525" style="stop-color:#C9AC68"/>
			</radialGradient>
			<path id="XMLID_24_" opacity="0.37" fill="url(#XMLID_76_)" d="M146.684,119.056c2.432,7.756-1.799,15.988-9.445,18.385
				c-7.648,2.398-15.82-1.945-18.252-9.705c-2.43-7.756,1.799-15.984,9.447-18.383C136.082,106.956,144.252,111.3,146.684,119.056z"
				/>
			
				<radialGradient id="XMLID_77_" cx="85.2944" cy="428.7285" r="3.6558" gradientTransform="matrix(0.8941 -0.2803 0.2842 0.9067 -103.6484 -202.583)" gradientUnits="userSpaceOnUse">
				<stop  offset="0" style="stop-color:#FFE5C2"/>
				<stop  offset="0.5476" style="stop-color:#FEC77C"/>
				<stop  offset="0.9525" style="stop-color:#C9AC68"/>
			</radialGradient>
			<path id="XMLID_23_" opacity="0.37" fill="url(#XMLID_77_)" d="M97.721,161.212c0.574,1.832-0.425,3.773-2.228,4.342
				c-1.806,0.566-3.734-0.459-4.308-2.289c-0.574-1.832,0.425-3.773,2.229-4.342C95.221,158.36,97.146,159.382,97.721,161.212z"/>
			
				<radialGradient id="XMLID_78_" cx="-3.2974" cy="346.7793" r="7.7449" gradientTransform="matrix(0.9542 -0.2991 0.2991 0.9542 -64.9658 -221.5532)" gradientUnits="userSpaceOnUse">
				<stop  offset="0" style="stop-color:#FFE5C2"/>
				<stop  offset="0.5476" style="stop-color:#FEC77C"/>
				<stop  offset="0.9525" style="stop-color:#C9AC68"/>
			</radialGradient>
			<circle id="XMLID_22_" opacity="0.37" fill="url(#XMLID_78_)" cx="35.611" cy="110.33" r="7.744"/>
			
				<radialGradient id="XMLID_79_" cx="67.0845" cy="330.4434" r="4.8174" gradientTransform="matrix(0.9542 -0.2991 0.2991 0.9542 -64.9658 -221.5532)" gradientUnits="userSpaceOnUse">
				<stop  offset="0" style="stop-color:#FFE5C2"/>
				<stop  offset="0.5476" style="stop-color:#FEC77C"/>
				<stop  offset="0.9525" style="stop-color:#C9AC68"/>
			</radialGradient>
			<path id="XMLID_21_" opacity="0.37" fill="url(#XMLID_79_)" d="M102.479,72.247c0.797,2.541-0.615,5.243-3.154,6.041
				c-2.539,0.794-5.241-0.62-6.037-3.157c-0.797-2.537,0.617-5.243,3.154-6.037C98.98,68.295,101.686,69.709,102.479,72.247z"/>
			
				<radialGradient id="XMLID_80_" cx="41.6001" cy="306.0957" r="7.7449" gradientTransform="matrix(0.9542 -0.2991 0.2991 0.9542 -64.9658 -221.5532)" gradientUnits="userSpaceOnUse">
				<stop  offset="0" style="stop-color:#FFE5C2"/>
				<stop  offset="0.5476" style="stop-color:#FEC77C"/>
				<stop  offset="0.9525" style="stop-color:#C9AC68"/>
			</radialGradient>
			<circle id="XMLID_20_" opacity="0.37" fill="url(#XMLID_80_)" cx="66.284" cy="58.08" r="7.745"/>
			
				<radialGradient id="XMLID_81_" cx="7.5293" cy="372.2793" r="4.3005" gradientTransform="matrix(0.9542 -0.2991 0.2991 0.9542 -64.9658 -221.5532)" gradientUnits="userSpaceOnUse">
				<stop  offset="0" style="stop-color:#FFE5C2"/>
				<stop  offset="0.5476" style="stop-color:#FEC77C"/>
				<stop  offset="0.9525" style="stop-color:#C9AC68"/>
			</radialGradient>
			<circle id="XMLID_19_" opacity="0.37" fill="url(#XMLID_81_)" cx="53.569" cy="131.422" r="4.301"/>
			
				<radialGradient id="XMLID_82_" cx="2.502" cy="388.3301" r="5.7964" gradientTransform="matrix(0.9542 -0.2991 0.2991 0.9542 -64.9658 -221.5532)" gradientUnits="userSpaceOnUse">
				<stop  offset="0" style="stop-color:#FFE5C2"/>
				<stop  offset="0.5476" style="stop-color:#FEC77C"/>
				<stop  offset="0.9525" style="stop-color:#C9AC68"/>
			</radialGradient>
			<path id="XMLID_18_" opacity="0.37" fill="url(#XMLID_82_)" d="M59.1,146.509c0.958,3.057-0.742,6.307-3.797,7.266
				c-3.054,0.957-6.305-0.74-7.263-3.797c-0.959-3.055,0.742-6.307,3.796-7.266C54.89,141.757,58.143,143.458,59.1,146.509z"/>
			
				<radialGradient id="XMLID_83_" cx="2.499" cy="333.6973" r="2.8977" gradientTransform="matrix(0.9542 -0.2991 0.2991 0.9542 -64.9658 -221.5532)" gradientUnits="userSpaceOnUse">
				<stop  offset="0" style="stop-color:#FFE5C2"/>
				<stop  offset="0.5476" style="stop-color:#FEC77C"/>
				<stop  offset="0.9525" style="stop-color:#C9AC68"/>
			</radialGradient>
			<circle id="XMLID_17_" opacity="0.37" fill="url(#XMLID_83_)" cx="37.228" cy="96.111" r="2.898"/>
			
				<radialGradient id="XMLID_84_" cx="29.5396" cy="318.6738" r="2.8979" gradientTransform="matrix(0.9542 -0.2991 0.2991 0.9542 -64.9658 -221.5532)" gradientUnits="userSpaceOnUse">
				<stop  offset="0" style="stop-color:#FFE5C2"/>
				<stop  offset="0.5476" style="stop-color:#FEC77C"/>
				<stop  offset="0.9525" style="stop-color:#C9AC68"/>
			</radialGradient>
			<circle id="XMLID_16_" opacity="0.37" fill="url(#XMLID_84_)" cx="58.538" cy="73.69" r="2.898"/>
			
				<radialGradient id="XMLID_85_" cx="110.2266" cy="365.5176" r="2.8975" gradientTransform="matrix(0.9542 -0.2991 0.2991 0.9542 -64.9658 -221.5532)" gradientUnits="userSpaceOnUse">
				<stop  offset="0" style="stop-color:#FFE5C2"/>
				<stop  offset="0.5476" style="stop-color:#FEC77C"/>
				<stop  offset="0.9525" style="stop-color:#C9AC68"/>
			</radialGradient>
			<circle id="XMLID_15_" opacity="0.37" fill="url(#XMLID_85_)" cx="149.54" cy="94.255" r="2.898"/>
			
				<radialGradient id="XMLID_86_" cx="95.9746" cy="314.293" r="5.325" gradientTransform="matrix(0.9542 -0.2991 0.2991 0.9542 -64.9658 -221.5532)" gradientUnits="userSpaceOnUse">
				<stop  offset="0" style="stop-color:#FFE5C2"/>
				<stop  offset="0.5476" style="stop-color:#FEC77C"/>
				<stop  offset="0.9525" style="stop-color:#C9AC68"/>
			</radialGradient>
			<path id="XMLID_14_" opacity="0.37" fill="url(#XMLID_86_)" d="M125.701,48.044c0.883,2.807-0.68,5.796-3.484,6.675
				c-2.809,0.882-5.797-0.683-6.678-3.486c-0.877-2.807,0.686-5.796,3.49-6.674C121.834,43.676,124.824,45.241,125.701,48.044z"/>
			
				<radialGradient id="XMLID_87_" cx="50.8296" cy="405.8438" r="5.3262" gradientTransform="matrix(0.9542 -0.2991 0.2991 0.9542 -64.9658 -221.5532)" gradientUnits="userSpaceOnUse">
				<stop  offset="0" style="stop-color:#FFE5C2"/>
				<stop  offset="0.5476" style="stop-color:#FEC77C"/>
				<stop  offset="0.9525" style="stop-color:#C9AC68"/>
			</radialGradient>
			<circle id="XMLID_13_" opacity="0.37" fill="url(#XMLID_87_)" cx="104.926" cy="150.499" r="5.325"/>
			
				<radialGradient id="XMLID_88_" cx="67.7373" cy="296.5957" r="2.8391" gradientTransform="matrix(0.9542 -0.2991 0.2991 0.9542 -64.9658 -221.5532)" gradientUnits="userSpaceOnUse">
				<stop  offset="0" style="stop-color:#FFE5C2"/>
				<stop  offset="0.5476" style="stop-color:#FEC77C"/>
				<stop  offset="0.9525" style="stop-color:#C9AC68"/>
			</radialGradient>
			<circle id="XMLID_12_" opacity="0.37" fill="url(#XMLID_88_)" cx="88.381" cy="41.198" r="2.839"/>
			
				<radialGradient id="XMLID_89_" cx="-2.6733" cy="363.1445" r="103.7314" gradientTransform="matrix(0.9542 -0.2991 0.2991 0.9542 -64.9658 -221.5532)" gradientUnits="userSpaceOnUse">
				<stop  offset="0.1141" style="stop-color:#FFE5C2"/>
				<stop  offset="0.6835" style="stop-color:#FEC77C"/>
				<stop  offset="0.9525" style="stop-color:#C9AC68"/>
			</radialGradient>
			<path id="XMLID_9_" opacity="0.25" fill="url(#XMLID_89_)" d="M143.932,54.386c1.051,2.401,1.979,4.868,2.773,7.406
				c2.855,9.107,3.859,18.498,3.049,27.73c1.934,0.088,3.699,1.362,4.313,3.314c0.781,2.496-0.613,5.163-3.107,5.943
				c-0.895,0.279-1.811,0.276-2.654,0.049c-0.969,4.322-2.352,8.574-4.133,12.711c1.918,1.865,3.416,4.225,4.273,6.963
				c2.73,8.715-2.047,18-10.654,20.699c-4.465,1.398-9.094,0.752-12.898-1.408c-4.178,3.574-8.775,6.658-13.715,9.199
				c0.24,0.422,0.438,0.877,0.59,1.361c1.184,3.771-0.924,7.805-4.695,8.986c-3.773,1.184-7.806-0.924-8.988-4.695
				c-0.045-0.145-0.083-0.285-0.117-0.428c-12.613,3.611-25.705,3.699-38.121,0.375c-0.935,1.35-2.305,2.414-3.99,2.943
				c-4.021,1.26-8.318-0.988-9.578-5.006c-0.337-1.078-0.421-2.176-0.289-3.23c-0.317-0.16-0.635-0.318-0.952-0.482
				c-8.232-4.305-15.409-10.039-21.276-16.887c6.517,14.906,17.82,27.061,32.443,34.705c16.98,8.877,36.398,10.605,54.681,4.875
				c18.281-5.732,33.238-18.238,42.113-35.217c8.875-16.982,10.605-36.399,4.875-54.684
				C154.922,70.192,150.166,61.663,143.932,54.386z M96.045,167.313c-2.773,0.867-5.744-0.699-6.621-3.5
				c-0.876-2.797,0.666-5.779,3.439-6.65c2.771-0.867,5.742,0.699,6.618,3.5C100.36,163.46,98.816,166.444,96.045,167.313z"/>
			<path id="XMLID_8_" opacity="0.56" fill="#F1F2F2" d="M32.777,57.519c5.323-4.354,11.774-0.609,9.429,6.374
				c-0.667,1.984-2.1,3.847-3.528,5.499c-1.974,2.275-4.154,4.435-6.417,5.607c-6.601,3.427-7.484-2.534-5.094-9.142
				C28.288,62.758,30.295,59.548,32.777,57.519z"/>
		</g>
		<g display="inline">
			<linearGradient id="XMLID_90_" gradientUnits="userSpaceOnUse" x1="56.6606" y1="117.5791" x2="146.9116" y2="117.5791">
				<stop  offset="0" style="stop-color:#FFFFFF"/>
				<stop  offset="1" style="stop-color:#D1D3D4"/>
			</linearGradient>
			<path id="XMLID_6_" fill="url(#XMLID_90_)" d="M56.661,140.958c9.401,6.203,20.663,9.814,32.769,9.814
				c27.461,0,50.578-18.578,57.482-43.848c-2.055-0.889-4.316-1.383-6.699-1.383c-0.248,0-0.49,0.027-0.734,0.039
				c-2.854-12.149-13.75-21.193-26.77-21.193c-15.189,0-27.502,12.313-27.502,27.5c0,2.887,0.446,5.666,1.271,8.277
				c-6.127,2.545-10.437,8.582-10.437,15.631c0,1.357,0.178,2.674,0.481,3.941H62.194C60.217,139.737,58.343,140.175,56.661,140.958
				z"/>
			<linearGradient id="XMLID_91_" gradientUnits="userSpaceOnUse" x1="55.5547" y1="129.0205" x2="156.5828" y2="129.0205">
				<stop  offset="0" style="stop-color:#D1D3D4"/>
				<stop  offset="1" style="stop-color:#FFFFFF"/>
			</linearGradient>
			<path id="XMLID_5_" fill="url(#XMLID_91_)" d="M184.35,143.472c0.293-1.246,0.463-2.537,0.463-3.871
				c0-9.35-7.576-16.926-16.926-16.926c-1.564,0-3.068,0.227-4.508,0.625c-1.406-7.926-8.314-13.953-16.646-13.953
				c-0.25,0-0.49,0.027-0.738,0.037c-2.852-12.147-13.748-21.195-26.766-21.195c-15.189,0-27.505,12.313-27.505,27.503
				c0,2.883,0.448,5.662,1.271,8.277c-6.125,2.545-10.435,8.582-10.435,15.631c0,1.357,0.177,2.674,0.481,3.941H68.711
				c-7.266,0-13.157,5.891-13.157,13.156l0,0c0,7.266,5.891,13.152,13.157,13.152h17.302H134.9h46.738
				c7.361,0,13.328-5.963,13.328-13.328l0,0C194.967,150.093,190.41,144.724,184.35,143.472z"/>
			<path id="XMLID_4_" fill="#E6E7E8" d="M184.35,143.472c0.293-1.246,0.463-2.537,0.463-3.871c0-9.35-7.576-16.926-16.926-16.926
				c-1.564,0-3.068,0.227-4.508,0.625c-1.395-7.859-8.199-13.85-16.436-13.949c-0.488,26.516-15.93,49.373-38.248,60.5H134.9h46.738
				c7.361,0,13.328-5.963,13.328-13.328l0,0C194.967,150.093,190.41,144.724,184.35,143.472z"/>
			<path id="XMLID_3_" fill="#F1F2F2" d="M181.768,134.591c0.91,3.584-2.881,6.525-6.033,4.156c-0.896-0.67-1.518-1.744-2.023-2.779
				c-0.695-1.432-1.273-2.959-1.295-4.375c-0.059-4.137,3.42-3.693,6.355-1.359C180.146,131.327,181.342,132.923,181.768,134.591z"
				/>
			<path id="XMLID_2_" fill="#F1F2F2" d="M64.963,146.12c3.535-1.088,6.659,2.553,4.452,5.818c-0.627,0.928-1.666,1.602-2.678,2.158
				c-1.393,0.768-2.889,1.422-4.305,1.512c-4.128,0.264-3.858-3.23-1.673-6.277C61.783,147.901,63.316,146.628,64.963,146.12z"/>
			<path id="XMLID_1_" fill="#FFFFFF" d="M110.693,92.263c5.098-1.151,9.215,4.396,5.807,8.802
				c-0.965,1.252-2.494,2.092-3.977,2.771c-2.039,0.938-4.215,1.697-6.227,1.666c-5.872-0.094-5.189-5.047-1.834-9.145
				C106.035,94.44,108.314,92.799,110.693,92.263z"/>
		</g>
	</g>
	<g id="XMLID_1166_">
		
			<radialGradient id="XMLID_92_" cx="31.1372" cy="332.8818" r="110.2883" gradientTransform="matrix(1 -7.000000e-004 7.000000e-004 1 38.8296 -256.0698)" gradientUnits="userSpaceOnUse">
			<stop  offset="0.1141" style="stop-color:#FFE5C2"/>
			<stop  offset="0.6835" style="stop-color:#FEC77C"/>
			<stop  offset="0.9525" style="stop-color:#C9AC68"/>
		</radialGradient>
		<path id="XMLID_1189_" fill="url(#XMLID_92_)" d="M180.086,101.009c0.029,44.232-35.801,80.111-80.03,80.145
			c-44.231,0.029-80.111-35.797-80.143-80.029c-0.032-44.23,35.798-80.11,80.027-80.144
			C144.172,20.951,180.051,56.779,180.086,101.009z"/>
		
			<radialGradient id="XMLID_93_" cx="63.624" cy="349.0791" r="13.0967" gradientTransform="matrix(0.9542 -0.2991 0.2991 0.9542 -64.9658 -221.5532)" gradientUnits="userSpaceOnUse">
			<stop  offset="0" style="stop-color:#FFE5C2"/>
			<stop  offset="0.5476" style="stop-color:#FEC77C"/>
			<stop  offset="0.9525" style="stop-color:#C9AC68"/>
		</radialGradient>
		<path id="XMLID_1188_" opacity="0.37" fill="url(#XMLID_93_)" d="M112.65,88.589c2.166,6.901-1.676,14.252-8.578,16.416
			c-6.902,2.162-14.252-1.68-16.415-8.581c-2.163-6.902,1.676-14.25,8.579-16.413C103.139,77.844,110.488,81.687,112.65,88.589z"/>
		
			<radialGradient id="XMLID_94_" cx="146.8926" cy="399.5957" r="16.4477" gradientTransform="matrix(0.8941 -0.2803 0.2842 0.9067 -103.6484 -202.583)" gradientUnits="userSpaceOnUse">
			<stop  offset="0" style="stop-color:#FFE5C2"/>
			<stop  offset="0.5476" style="stop-color:#FEC77C"/>
			<stop  offset="0.9525" style="stop-color:#C9AC68"/>
		</radialGradient>
		<path id="XMLID_1187_" opacity="0.37" fill="url(#XMLID_94_)" d="M160.797,120.169c2.58,8.234-1.912,16.977-10.031,19.523
			c-8.121,2.545-16.799-2.066-19.381-10.307c-2.582-8.236,1.908-16.975,10.031-19.52
			C149.539,107.319,158.213,111.933,160.797,120.169z"/>
		
			<radialGradient id="XMLID_95_" cx="95.1606" cy="435.9551" r="3.8821" gradientTransform="matrix(0.8941 -0.2803 0.2842 0.9067 -103.6484 -202.583)" gradientUnits="userSpaceOnUse">
			<stop  offset="0" style="stop-color:#FFE5C2"/>
			<stop  offset="0.5476" style="stop-color:#FEC77C"/>
			<stop  offset="0.9525" style="stop-color:#C9AC68"/>
		</radialGradient>
		<path id="XMLID_1186_" opacity="0.37" fill="url(#XMLID_95_)" d="M108.803,164.935c0.609,1.943-0.451,4.006-2.365,4.609
			c-1.918,0.602-3.967-0.488-4.576-2.432s0.453-4.006,2.367-4.607C106.146,161.905,108.193,162.991,108.803,164.935z"/>
		
			<radialGradient id="XMLID_96_" cx="3.4395" cy="349.4941" r="8.2239" gradientTransform="matrix(0.9542 -0.2991 0.2991 0.9542 -64.9658 -221.5532)" gradientUnits="userSpaceOnUse">
			<stop  offset="0" style="stop-color:#FFE5C2"/>
			<stop  offset="0.5476" style="stop-color:#FEC77C"/>
			<stop  offset="0.9525" style="stop-color:#C9AC68"/>
		</radialGradient>
		<path id="XMLID_1185_" opacity="0.37" fill="url(#XMLID_96_)" d="M50.696,108.442c1.358,4.334-1.052,8.949-5.387,10.311
			c-4.333,1.355-8.948-1.057-10.306-5.391c-1.358-4.332,1.054-8.949,5.387-10.305C44.723,101.696,49.337,104.108,50.696,108.442z"/>
		
			<radialGradient id="XMLID_97_" cx="78.1768" cy="332.1436" r="5.1157" gradientTransform="matrix(0.9542 -0.2991 0.2991 0.9542 -64.9658 -221.5532)" gradientUnits="userSpaceOnUse">
			<stop  offset="0" style="stop-color:#FFE5C2"/>
			<stop  offset="0.5476" style="stop-color:#FEC77C"/>
			<stop  offset="0.9525" style="stop-color:#C9AC68"/>
		</radialGradient>
		<path id="XMLID_1184_" opacity="0.37" fill="url(#XMLID_97_)" d="M113.855,70.463c0.846,2.698-0.654,5.568-3.35,6.415
			c-2.697,0.844-5.566-0.658-6.412-3.353c-0.846-2.694,0.656-5.567,3.35-6.411C110.141,66.267,113.012,67.769,113.855,70.463z"/>
		
			<radialGradient id="XMLID_98_" cx="51.1157" cy="306.29" r="8.2239" gradientTransform="matrix(0.9542 -0.2991 0.2991 0.9542 -64.9658 -221.5532)" gradientUnits="userSpaceOnUse">
			<stop  offset="0" style="stop-color:#FFE5C2"/>
			<stop  offset="0.5476" style="stop-color:#FEC77C"/>
			<stop  offset="0.9525" style="stop-color:#C9AC68"/>
		</radialGradient>
		<circle id="XMLID_1183_" opacity="0.37" fill="url(#XMLID_98_)" cx="75.42" cy="55.42" r="8.224"/>
		
			<radialGradient id="XMLID_99_" cx="14.9365" cy="376.5693" r="4.5676" gradientTransform="matrix(0.9542 -0.2991 0.2991 0.9542 -64.9658 -221.5532)" gradientUnits="userSpaceOnUse">
			<stop  offset="0" style="stop-color:#FFE5C2"/>
			<stop  offset="0.5476" style="stop-color:#FEC77C"/>
			<stop  offset="0.9525" style="stop-color:#C9AC68"/>
		</radialGradient>
		<circle id="XMLID_1182_" opacity="0.37" fill="url(#XMLID_99_)" cx="61.919" cy="133.301" r="4.568"/>
		
			<radialGradient id="XMLID_100_" cx="9.5947" cy="393.6123" r="6.1548" gradientTransform="matrix(0.9542 -0.2991 0.2991 0.9542 -64.9658 -221.5532)" gradientUnits="userSpaceOnUse">
			<stop  offset="0" style="stop-color:#FFE5C2"/>
			<stop  offset="0.5476" style="stop-color:#FEC77C"/>
			<stop  offset="0.9525" style="stop-color:#C9AC68"/>
		</radialGradient>
		<path id="XMLID_1181_" opacity="0.37" fill="url(#XMLID_100_)" d="M67.792,149.321c1.017,3.244-0.788,6.697-4.033,7.715
			c-3.243,1.016-6.695-0.787-7.712-4.031c-1.018-3.244,0.788-6.697,4.031-7.717C63.321,144.274,66.775,146.081,67.792,149.321z"/>
		
			<radialGradient id="XMLID_101_" cx="9.5938" cy="335.5996" r="3.0769" gradientTransform="matrix(0.9542 -0.2991 0.2991 0.9542 -64.9658 -221.5532)" gradientUnits="userSpaceOnUse">
			<stop  offset="0" style="stop-color:#FFE5C2"/>
			<stop  offset="0.5476" style="stop-color:#FEC77C"/>
			<stop  offset="0.9525" style="stop-color:#C9AC68"/>
		</radialGradient>
		<circle id="XMLID_1180_" opacity="0.37" fill="url(#XMLID_101_)" cx="44.566" cy="95.805" r="3.078"/>
		
			<radialGradient id="XMLID_102_" cx="38.3076" cy="319.6455" r="3.0776" gradientTransform="matrix(0.9542 -0.2991 0.2991 0.9542 -64.9658 -221.5532)" gradientUnits="userSpaceOnUse">
			<stop  offset="0" style="stop-color:#FFE5C2"/>
			<stop  offset="0.5476" style="stop-color:#FEC77C"/>
			<stop  offset="0.9525" style="stop-color:#C9AC68"/>
		</radialGradient>
		<circle id="XMLID_1179_" opacity="0.37" fill="url(#XMLID_102_)" cx="67.194" cy="71.996" r="3.078"/>
		
			<radialGradient id="XMLID_103_" cx="123.9883" cy="369.3896" r="3.0776" gradientTransform="matrix(0.9542 -0.2991 0.2991 0.9542 -64.9658 -221.5532)" gradientUnits="userSpaceOnUse">
			<stop  offset="0" style="stop-color:#FFE5C2"/>
			<stop  offset="0.5476" style="stop-color:#FEC77C"/>
			<stop  offset="0.9525" style="stop-color:#C9AC68"/>
		</radialGradient>
		<circle id="XMLID_1178_" opacity="0.37" fill="url(#XMLID_103_)" cx="163.829" cy="93.833" r="3.078"/>
		
			<radialGradient id="XMLID_104_" cx="108.8564" cy="314.9951" r="5.6543" gradientTransform="matrix(0.9542 -0.2991 0.2991 0.9542 -64.9658 -221.5532)" gradientUnits="userSpaceOnUse">
			<stop  offset="0" style="stop-color:#FFE5C2"/>
			<stop  offset="0.5476" style="stop-color:#FEC77C"/>
			<stop  offset="0.9525" style="stop-color:#C9AC68"/>
		</radialGradient>
		<circle id="XMLID_1177_" opacity="0.37" fill="url(#XMLID_104_)" cx="133.12" cy="46.456" r="5.655"/>
		
			<radialGradient id="XMLID_105_" cx="60.917" cy="412.21" r="5.6553" gradientTransform="matrix(0.9542 -0.2991 0.2991 0.9542 -64.9658 -221.5532)" gradientUnits="userSpaceOnUse">
			<stop  offset="0" style="stop-color:#FFE5C2"/>
			<stop  offset="0.5476" style="stop-color:#FEC77C"/>
			<stop  offset="0.9525" style="stop-color:#C9AC68"/>
		</radialGradient>
		<path id="XMLID_1176_" opacity="0.37" fill="url(#XMLID_105_)" d="M121.85,151.866c0.934,2.982-0.725,6.156-3.705,7.088
			c-2.979,0.934-6.152-0.725-7.088-3.705c-0.934-2.98,0.725-6.15,3.705-7.088C117.74,147.229,120.916,148.886,121.85,151.866z"/>
		
			<radialGradient id="XMLID_106_" cx="78.8682" cy="296.2021" r="3.0151" gradientTransform="matrix(0.9542 -0.2991 0.2991 0.9542 -64.9658 -221.5532)" gradientUnits="userSpaceOnUse">
			<stop  offset="0" style="stop-color:#FFE5C2"/>
			<stop  offset="0.5476" style="stop-color:#FEC77C"/>
			<stop  offset="0.9525" style="stop-color:#C9AC68"/>
		</radialGradient>
		<circle id="XMLID_1175_" opacity="0.37" fill="url(#XMLID_106_)" cx="98.885" cy="37.493" r="3.015"/>
		
			<radialGradient id="XMLID_107_" cx="4.1016" cy="366.8711" r="110.151" gradientTransform="matrix(0.9542 -0.2991 0.2991 0.9542 -64.9658 -221.5532)" gradientUnits="userSpaceOnUse">
			<stop  offset="0.1141" style="stop-color:#FFE5C2"/>
			<stop  offset="0.6835" style="stop-color:#FEC77C"/>
			<stop  offset="0.9525" style="stop-color:#C9AC68"/>
		</radialGradient>
		<path id="XMLID_1172_" opacity="0.25" fill="url(#XMLID_107_)" d="M157.873,51.498c1.115,2.549,2.102,5.169,2.945,7.864
			c3.033,9.67,4.098,19.642,3.236,29.446c2.055,0.093,3.93,1.446,4.58,3.52c0.83,2.65-0.65,5.482-3.299,6.311
			c-0.951,0.297-1.924,0.294-2.818,0.052c-1.031,4.59-2.498,9.105-4.391,13.498c2.037,1.98,3.627,4.486,4.539,7.393
			c2.9,9.254-2.176,19.115-11.314,21.98c-4.74,1.486-9.654,0.799-13.695-1.494c-4.438,3.795-9.318,7.068-14.563,9.768
			c0.254,0.449,0.463,0.932,0.625,1.445c1.256,4.006-0.98,8.287-4.986,9.543c-4.008,1.258-8.289-0.98-9.545-4.986
			c-0.047-0.152-0.088-0.301-0.125-0.453c-13.393,3.834-27.294,3.928-40.479,0.396c-0.992,1.436-2.447,2.564-4.237,3.127
			c-4.271,1.338-8.833-1.049-10.17-5.316c-0.358-1.145-0.448-2.311-0.307-3.43c-0.336-0.172-0.674-0.338-1.011-0.514
			c-8.742-4.57-16.362-10.658-22.593-17.932c6.92,15.828,18.923,28.736,34.451,36.854c18.031,9.426,38.651,11.262,58.065,5.178
			c19.414-6.088,35.295-19.367,44.719-37.396c9.424-18.033,11.262-38.652,5.178-58.068
			C169.543,68.281,164.492,59.224,157.873,51.498z M107.021,171.413c-2.945,0.922-6.098-0.744-7.029-3.717
			c-0.931-2.971,0.707-6.137,3.652-7.063c2.943-0.922,6.096,0.744,7.027,3.717C111.605,167.321,109.967,170.491,107.021,171.413z"/>
		<path id="XMLID_1171_" opacity="0.56" fill="#F1F2F2" d="M39.839,54.824c5.653-4.624,12.503-0.646,10.013,6.768
			c-0.708,2.107-2.23,4.084-3.747,5.838c-2.096,2.416-4.411,4.709-6.814,5.954c-7.01,3.639-7.948-2.691-5.41-9.708
			C35.073,60.388,37.205,56.979,39.839,54.824z"/>
	</g>
</g>
</svg>
