<?xml version="1.0" encoding="utf-8"?>
<!-- Generator: Adobe Illustrator 16.0.0, SVG Export Plug-In . SVG Version: 6.00 Build 0)  -->
<!DOCTYPE svg PUBLIC "-//W3C//DTD SVG 1.1//EN" "http://www.w3.org/Graphics/SVG/1.1/DTD/svg11.dtd">
<svg version="1.1" id="Layer_1" xmlns="http://www.w3.org/2000/svg" xmlns:xlink="http://www.w3.org/1999/xlink" x="0px" y="0px"
	 width="200px" height="200px" viewBox="0 0 200 200" enable-background="new 0 0 200 200" xml:space="preserve">
<g id="XMLID_1832_">
	<g id="XMLID_1837_">
		<polygon id="XMLID_1840_" fill="#F7941E" points="41.767,40.685 65.545,39.232 78.687,19.356 100.003,30.02 121.314,19.356 
			134.454,39.232 158.233,40.685 159.688,64.464 179.563,77.605 168.899,98.919 179.563,120.232 159.688,133.376 158.233,157.152 
			134.454,158.604 121.314,178.482 100,167.816 78.687,178.482 65.545,158.604 41.767,157.152 40.313,133.376 20.438,120.232 
			31.1,98.919 20.438,77.605 40.313,64.464 		"/>
		
			<linearGradient id="XMLID_2_" gradientUnits="userSpaceOnUse" x1="727.2393" y1="-1613.7021" x2="886.9083" y2="-1613.7021" gradientTransform="matrix(0.7071 0.7071 -0.7071 0.7071 -1613 668.0166)">
			<stop  offset="0.017" style="stop-color:#FFC635"/>
			<stop  offset="0.2379" style="stop-color:#FBB040"/>
			<stop  offset="0.7876" style="stop-color:#F7941E"/>
			<stop  offset="0.9796" style="stop-color:#F47B20"/>
		</linearGradient>
		<polygon id="XMLID_1839_" fill="url(#XMLID_2_)" points="13.958,98.919 30.451,80.278 25.477,55.887 49.1,48.018 56.969,24.394 
			81.36,29.369 100.003,12.875 118.641,29.369 143.033,24.394 150.901,48.018 174.525,55.887 169.55,80.278 186.043,98.919 
			169.55,117.561 174.525,141.95 150.901,149.82 143.032,173.444 118.641,168.468 100.003,184.961 81.36,168.468 56.966,173.444 
			49.1,149.82 25.477,141.95 30.451,117.561 		"/>
		<radialGradient id="XMLID_3_" cx="89.1602" cy="88.6279" r="74.5765" gradientUnits="userSpaceOnUse">
			<stop  offset="0.0333" style="stop-color:#FFDE88"/>
			<stop  offset="0.3449" style="stop-color:#FFC635"/>
			<stop  offset="0.5538" style="stop-color:#FBB040"/>
			<stop  offset="0.7876" style="stop-color:#F7941E"/>
			<stop  offset="0.9796" style="stop-color:#F47B20"/>
		</radialGradient>
		<path id="XMLID_1838_" fill="url(#XMLID_3_)" d="M165.176,98.919c0,35.996-29.18,65.174-65.173,65.174
			c-35.998,0-65.178-29.178-65.178-65.174c0-35.994,29.18-65.176,65.178-65.176C135.996,33.743,165.176,62.925,165.176,98.919z"/>
	</g>
</g>
</svg>
