<?xml version="1.0" encoding="utf-8"?>
<!-- Generator: Adobe Illustrator 16.0.0, SVG Export Plug-In . SVG Version: 6.00 Build 0)  -->
<!DOCTYPE svg PUBLIC "-//W3C//DTD SVG 1.1//EN" "http://www.w3.org/Graphics/SVG/1.1/DTD/svg11.dtd">
<svg version="1.1" id="Layer_1" xmlns="http://www.w3.org/2000/svg" xmlns:xlink="http://www.w3.org/1999/xlink" x="0px" y="0px"
	 width="200px" height="200px" viewBox="0 0 200 200" enable-background="new 0 0 200 200" xml:space="preserve">
<g id="XMLID_1813_">
	<polygon id="XMLID_1831_" fill="#F7941E" points="32.322,41.619 54.389,40.271 66.584,21.826 86.363,31.722 106.143,21.826 
		118.338,40.271 140.403,41.619 141.753,63.686 160.198,75.882 150.303,95.66 160.198,115.439 141.753,127.637 140.403,149.701 
		118.337,151.051 106.143,169.496 86.362,159.598 66.584,169.496 54.389,151.051 32.322,149.701 30.972,127.637 12.529,115.439 
		22.423,95.66 12.529,75.882 30.972,63.686 	"/>
	
		<linearGradient id="XMLID_2_" gradientUnits="userSpaceOnUse" x1="721.1689" y1="-1606.3638" x2="869.3431" y2="-1606.3638" gradientTransform="matrix(0.7071 0.7071 -0.7071 0.7071 -1613 668.0166)">
		<stop  offset="0.017" style="stop-color:#FFC635"/>
		<stop  offset="0.2379" style="stop-color:#FBB040"/>
		<stop  offset="0.7876" style="stop-color:#F7941E"/>
		<stop  offset="0.9796" style="stop-color:#F47B20"/>
	</linearGradient>
	<polygon id="XMLID_1830_" fill="url(#XMLID_2_)" points="6.515,95.66 21.821,78.361 17.204,55.726 39.127,48.424 46.429,26.501 
		69.064,31.118 86.363,15.812 103.663,31.118 126.298,26.501 133.6,48.424 155.522,55.726 150.906,78.361 166.213,95.66 
		150.906,112.961 155.522,135.594 133.6,142.898 126.298,164.82 103.663,160.203 86.363,175.508 69.064,160.203 46.429,164.82 
		39.127,142.898 17.204,135.594 21.821,112.961 	"/>
	<radialGradient id="XMLID_3_" cx="74.623" cy="84.4302" r="60.4833" gradientUnits="userSpaceOnUse">
		<stop  offset="0.017" style="stop-color:#FFC635"/>
		<stop  offset="0.2379" style="stop-color:#FBB040"/>
		<stop  offset="0.7876" style="stop-color:#F7941E"/>
		<stop  offset="0.9796" style="stop-color:#F47B20"/>
	</radialGradient>
	<circle id="XMLID_1829_" fill="url(#XMLID_3_)" cx="86.363" cy="95.66" r="60.483"/>
	<g>
		<linearGradient id="XMLID_4_" gradientUnits="userSpaceOnUse" x1="53.1025" y1="122.4512" x2="144.709" y2="122.4512">
			<stop  offset="0" style="stop-color:#FFFFFF"/>
			<stop  offset="1" style="stop-color:#D1D3D4"/>
		</linearGradient>
		<path id="XMLID_1823_" fill="url(#XMLID_4_)" d="M53.103,146.18c9.542,6.297,20.973,9.963,33.261,9.963
			c27.874,0,51.338-18.857,58.346-44.508c-2.085-0.902-4.382-1.402-6.8-1.402c-0.252,0-0.497,0.027-0.746,0.039
			c-2.896-12.332-13.956-21.512-27.17-21.512c-15.418,0-27.916,12.498-27.916,27.914c0,2.93,0.453,5.75,1.29,8.4
			c-6.219,2.584-10.593,8.711-10.593,15.867c0,1.377,0.181,2.713,0.488,4H58.719C56.712,144.941,54.81,145.385,53.103,146.18z"/>
		<linearGradient id="XMLID_5_" gradientUnits="userSpaceOnUse" x1="51.98" y1="134.0635" x2="154.5247" y2="134.0635">
			<stop  offset="0" style="stop-color:#D1D3D4"/>
			<stop  offset="1" style="stop-color:#FFFFFF"/>
		</linearGradient>
		<path id="XMLID_1822_" fill="url(#XMLID_5_)" d="M182.709,148.73c0.297-1.264,0.469-2.574,0.469-3.928
			c0-9.49-7.689-17.182-17.179-17.182c-1.588,0-3.115,0.232-4.575,0.637c-1.429-8.047-8.441-14.164-16.897-14.164
			c-0.253,0-0.498,0.029-0.748,0.039c-2.896-12.33-13.956-21.514-27.168-21.514c-15.419,0-27.918,12.499-27.918,27.917
			c0,2.928,0.455,5.748,1.29,8.4c-6.217,2.584-10.592,8.711-10.592,15.867c0,1.377,0.18,2.713,0.489,4H65.334
			c-7.375,0-13.354,5.979-13.354,13.354l0,0c0,7.375,5.979,13.352,13.354,13.352h17.562h49.621h47.44
			c7.472,0,13.528-6.055,13.528-13.529l0,0C193.485,155.453,188.86,150.004,182.709,148.73z"/>
		<path id="XMLID_1821_" fill="#E6E7E8" d="M182.709,148.73c0.297-1.264,0.469-2.574,0.469-3.928c0-9.49-7.689-17.182-17.179-17.182
			c-1.588,0-3.115,0.232-4.575,0.637c-1.416-7.979-8.324-14.057-16.683-14.16c-0.496,26.914-16.17,50.115-38.822,61.41h26.598h47.44
			c7.472,0,13.528-6.055,13.528-13.529l0,0C193.485,155.453,188.86,150.004,182.709,148.73z"/>
		<path id="XMLID_1820_" fill="#F1F2F2" d="M180.087,139.719c0.926,3.637-2.924,6.621-6.123,4.217c-0.909-0.68-1.54-1.77-2.053-2.82
			c-0.707-1.453-1.293-3.002-1.314-4.441c-0.061-4.199,3.471-3.748,6.449-1.379C178.442,136.404,179.655,138.023,180.087,139.719z"
			/>
		<path id="XMLID_1819_" fill="#F1F2F2" d="M61.529,151.42c3.588-1.104,6.759,2.59,4.519,5.904
			c-0.636,0.941-1.691,1.627-2.718,2.193c-1.414,0.777-2.933,1.441-4.37,1.533c-4.19,0.268-3.917-3.277-1.698-6.373
			C58.302,153.229,59.858,151.936,61.529,151.42z"/>
		<path id="XMLID_1818_" fill="#FFFFFF" d="M107.947,96.754c5.174-1.168,9.352,4.463,5.894,8.936
			c-0.98,1.271-2.533,2.123-4.036,2.813c-2.07,0.953-4.278,1.723-6.321,1.691c-5.959-0.096-5.267-5.123-1.861-9.283
			C103.219,98.963,105.531,97.297,107.947,96.754z"/>
	</g>
</g>
</svg>
