<?xml version="1.0" encoding="utf-8"?>
<!-- Generator: Adobe Illustrator 16.0.0, SVG Export Plug-In . SVG Version: 6.00 Build 0)  -->
<!DOCTYPE svg PUBLIC "-//W3C//DTD SVG 1.1//EN" "http://www.w3.org/Graphics/SVG/1.1/DTD/svg11.dtd">
<svg version="1.1" id="Layer_1" xmlns="http://www.w3.org/2000/svg" xmlns:xlink="http://www.w3.org/1999/xlink" x="0px" y="0px"
	 width="200px" height="200px" viewBox="0 0 200 200" enable-background="new 0 0 200 200" xml:space="preserve">
<g id="XMLID_1164_">
	<g id="XMLID_7_">
		
			<radialGradient id="XMLID_28_" cx="17.6523" cy="332.8457" r="103.8621" gradientTransform="matrix(1 -7.000000e-004 7.000000e-004 1 38.8296 -256.0698)" gradientUnits="userSpaceOnUse">
			<stop  offset="0.1141" style="stop-color:#FFE5C2"/>
			<stop  offset="0.6835" style="stop-color:#FEC77C"/>
			<stop  offset="0.9525" style="stop-color:#C9AC68"/>
		</radialGradient>
		<circle id="XMLID_26_" fill="url(#XMLID_28_)" cx="84.778" cy="99.626" r="75.419"/>
		
			<radialGradient id="XMLID_29_" cx="49.374" cy="343.624" r="12.3333" gradientTransform="matrix(0.9542 -0.2991 0.2991 0.9542 -64.9658 -221.5532)" gradientUnits="userSpaceOnUse">
			<stop  offset="0" style="stop-color:#FFE5C2"/>
			<stop  offset="0.5476" style="stop-color:#FEC77C"/>
			<stop  offset="0.9525" style="stop-color:#C9AC68"/>
		</radialGradient>
		<path id="XMLID_25_" opacity="0.37" fill="url(#XMLID_29_)" d="M96.693,87.875c2.039,6.5-1.578,13.422-8.08,15.459
			c-6.5,2.037-13.421-1.582-15.458-8.081c-2.037-6.5,1.579-13.419,8.08-15.456C87.735,77.757,94.657,81.375,96.693,87.875z"/>
		
			<radialGradient id="XMLID_30_" cx="129.7285" cy="391.5762" r="15.4889" gradientTransform="matrix(0.8941 -0.2803 0.2842 0.9067 -103.6484 -202.583)" gradientUnits="userSpaceOnUse">
			<stop  offset="0" style="stop-color:#FFE5C2"/>
			<stop  offset="0.5476" style="stop-color:#FEC77C"/>
			<stop  offset="0.9525" style="stop-color:#C9AC68"/>
		</radialGradient>
		<path id="XMLID_24_" opacity="0.37" fill="url(#XMLID_30_)" d="M142.032,117.615c2.431,7.756-1.799,15.988-9.446,18.385
			c-7.647,2.398-15.82-1.945-18.251-9.705c-2.431-7.756,1.798-15.984,9.447-18.383C131.431,105.516,139.601,109.859,142.032,117.615
			z"/>
		
			<radialGradient id="XMLID_31_" cx="81.0127" cy="425.8174" r="3.656" gradientTransform="matrix(0.8941 -0.2803 0.2842 0.9067 -103.6484 -202.583)" gradientUnits="userSpaceOnUse">
			<stop  offset="0" style="stop-color:#FFE5C2"/>
			<stop  offset="0.5476" style="stop-color:#FEC77C"/>
			<stop  offset="0.9525" style="stop-color:#C9AC68"/>
		</radialGradient>
		<path id="XMLID_23_" opacity="0.37" fill="url(#XMLID_31_)" d="M93.069,159.771c0.574,1.832-0.425,3.773-2.228,4.342
			c-1.806,0.566-3.734-0.459-4.308-2.289c-0.574-1.832,0.425-3.773,2.229-4.342C90.568,156.92,92.495,157.941,93.069,159.771z"/>
		
			<radialGradient id="XMLID_32_" cx="-7.3042" cy="344.0146" r="7.7449" gradientTransform="matrix(0.9542 -0.2991 0.2991 0.9542 -64.9658 -221.5532)" gradientUnits="userSpaceOnUse">
			<stop  offset="0" style="stop-color:#FFE5C2"/>
			<stop  offset="0.5476" style="stop-color:#FEC77C"/>
			<stop  offset="0.9525" style="stop-color:#C9AC68"/>
		</radialGradient>
		<circle id="XMLID_22_" opacity="0.37" fill="url(#XMLID_32_)" cx="30.959" cy="108.89" r="7.744"/>
		
			<radialGradient id="XMLID_33_" cx="63.0776" cy="327.6768" r="4.8171" gradientTransform="matrix(0.9542 -0.2991 0.2991 0.9542 -64.9658 -221.5532)" gradientUnits="userSpaceOnUse">
			<stop  offset="0" style="stop-color:#FFE5C2"/>
			<stop  offset="0.5476" style="stop-color:#FEC77C"/>
			<stop  offset="0.9525" style="stop-color:#C9AC68"/>
		</radialGradient>
		<path id="XMLID_21_" opacity="0.37" fill="url(#XMLID_33_)" d="M97.827,70.806c0.797,2.541-0.615,5.243-3.155,6.041
			c-2.54,0.794-5.241-0.62-6.038-3.157c-0.796-2.537,0.618-5.243,3.155-6.037C94.329,66.854,97.033,68.268,97.827,70.806z"/>
		
			<radialGradient id="XMLID_34_" cx="37.5938" cy="303.3291" r="7.7449" gradientTransform="matrix(0.9542 -0.2991 0.2991 0.9542 -64.9658 -221.5532)" gradientUnits="userSpaceOnUse">
			<stop  offset="0" style="stop-color:#FFE5C2"/>
			<stop  offset="0.5476" style="stop-color:#FEC77C"/>
			<stop  offset="0.9525" style="stop-color:#C9AC68"/>
		</radialGradient>
		<circle id="XMLID_20_" opacity="0.37" fill="url(#XMLID_34_)" cx="61.632" cy="56.639" r="7.745"/>
		
			<radialGradient id="XMLID_35_" cx="3.5229" cy="369.5137" r="4.301" gradientTransform="matrix(0.9542 -0.2991 0.2991 0.9542 -64.9658 -221.5532)" gradientUnits="userSpaceOnUse">
			<stop  offset="0" style="stop-color:#FFE5C2"/>
			<stop  offset="0.5476" style="stop-color:#FEC77C"/>
			<stop  offset="0.9525" style="stop-color:#C9AC68"/>
		</radialGradient>
		<circle id="XMLID_19_" opacity="0.37" fill="url(#XMLID_35_)" cx="48.917" cy="129.981" r="4.301"/>
		
			<radialGradient id="XMLID_36_" cx="-1.5078" cy="385.5635" r="5.7959" gradientTransform="matrix(0.9542 -0.2991 0.2991 0.9542 -64.9658 -221.5532)" gradientUnits="userSpaceOnUse">
			<stop  offset="0" style="stop-color:#FFE5C2"/>
			<stop  offset="0.5476" style="stop-color:#FEC77C"/>
			<stop  offset="0.9525" style="stop-color:#C9AC68"/>
		</radialGradient>
		<path id="XMLID_18_" opacity="0.37" fill="url(#XMLID_36_)" d="M54.448,145.068c0.958,3.057-0.742,6.307-3.797,7.266
			c-3.054,0.957-6.305-0.74-7.263-3.797c-0.959-3.055,0.742-6.307,3.796-7.266C50.238,140.316,53.491,142.018,54.448,145.068z"/>
		
			<radialGradient id="XMLID_37_" cx="-1.5088" cy="330.9307" r="2.8979" gradientTransform="matrix(0.9542 -0.2991 0.2991 0.9542 -64.9658 -221.5532)" gradientUnits="userSpaceOnUse">
			<stop  offset="0" style="stop-color:#FFE5C2"/>
			<stop  offset="0.5476" style="stop-color:#FEC77C"/>
			<stop  offset="0.9525" style="stop-color:#C9AC68"/>
		</radialGradient>
		<circle id="XMLID_17_" opacity="0.37" fill="url(#XMLID_37_)" cx="32.576" cy="94.67" r="2.898"/>
		
			<radialGradient id="XMLID_38_" cx="25.5327" cy="315.9072" r="2.8977" gradientTransform="matrix(0.9542 -0.2991 0.2991 0.9542 -64.9658 -221.5532)" gradientUnits="userSpaceOnUse">
			<stop  offset="0" style="stop-color:#FFE5C2"/>
			<stop  offset="0.5476" style="stop-color:#FEC77C"/>
			<stop  offset="0.9525" style="stop-color:#C9AC68"/>
		</radialGradient>
		<circle id="XMLID_16_" opacity="0.37" fill="url(#XMLID_38_)" cx="53.886" cy="72.25" r="2.898"/>
		
			<radialGradient id="XMLID_39_" cx="106.2207" cy="362.751" r="2.8975" gradientTransform="matrix(0.9542 -0.2991 0.2991 0.9542 -64.9658 -221.5532)" gradientUnits="userSpaceOnUse">
			<stop  offset="0" style="stop-color:#FFE5C2"/>
			<stop  offset="0.5476" style="stop-color:#FEC77C"/>
			<stop  offset="0.9525" style="stop-color:#C9AC68"/>
		</radialGradient>
		<circle id="XMLID_15_" opacity="0.37" fill="url(#XMLID_39_)" cx="144.889" cy="92.814" r="2.898"/>
		
			<radialGradient id="XMLID_40_" cx="91.9688" cy="311.5273" r="5.3247" gradientTransform="matrix(0.9542 -0.2991 0.2991 0.9542 -64.9658 -221.5532)" gradientUnits="userSpaceOnUse">
			<stop  offset="0" style="stop-color:#FFE5C2"/>
			<stop  offset="0.5476" style="stop-color:#FEC77C"/>
			<stop  offset="0.9525" style="stop-color:#C9AC68"/>
		</radialGradient>
		<path id="XMLID_14_" opacity="0.37" fill="url(#XMLID_40_)" d="M121.05,46.603c0.882,2.807-0.681,5.796-3.485,6.675
			c-2.808,0.882-5.797-0.683-6.677-3.486c-0.878-2.807,0.685-5.796,3.489-6.674C117.183,42.235,120.172,43.8,121.05,46.603z"/>
		
			<radialGradient id="XMLID_41_" cx="46.8232" cy="403.0781" r="5.3262" gradientTransform="matrix(0.9542 -0.2991 0.2991 0.9542 -64.9658 -221.5532)" gradientUnits="userSpaceOnUse">
			<stop  offset="0" style="stop-color:#FFE5C2"/>
			<stop  offset="0.5476" style="stop-color:#FEC77C"/>
			<stop  offset="0.9525" style="stop-color:#C9AC68"/>
		</radialGradient>
		<circle id="XMLID_13_" opacity="0.37" fill="url(#XMLID_41_)" cx="100.274" cy="149.059" r="5.326"/>
		
			<radialGradient id="XMLID_42_" cx="63.7295" cy="293.8291" r="2.8391" gradientTransform="matrix(0.9542 -0.2991 0.2991 0.9542 -64.9658 -221.5532)" gradientUnits="userSpaceOnUse">
			<stop  offset="0" style="stop-color:#FFE5C2"/>
			<stop  offset="0.5476" style="stop-color:#FEC77C"/>
			<stop  offset="0.9525" style="stop-color:#C9AC68"/>
		</radialGradient>
		<circle id="XMLID_12_" opacity="0.37" fill="url(#XMLID_42_)" cx="83.729" cy="39.757" r="2.839"/>
		
			<radialGradient id="XMLID_43_" cx="-6.6812" cy="360.3799" r="103.7317" gradientTransform="matrix(0.9542 -0.2991 0.2991 0.9542 -64.9658 -221.5532)" gradientUnits="userSpaceOnUse">
			<stop  offset="0.1141" style="stop-color:#FFE5C2"/>
			<stop  offset="0.6835" style="stop-color:#FEC77C"/>
			<stop  offset="0.9525" style="stop-color:#C9AC68"/>
		</radialGradient>
		<path id="XMLID_9_" opacity="0.25" fill="url(#XMLID_43_)" d="M139.28,52.945c1.05,2.401,1.979,4.868,2.773,7.406
			c2.855,9.107,3.858,18.498,3.049,27.73c1.934,0.088,3.699,1.362,4.312,3.314c0.782,2.496-0.612,5.163-3.106,5.943
			c-0.896,0.28-1.811,0.276-2.654,0.049c-0.97,4.323-2.353,8.575-4.134,12.711c1.918,1.865,3.416,4.225,4.273,6.963
			c2.731,8.715-2.047,18-10.654,20.699c-4.464,1.398-9.093,0.752-12.897-1.408c-4.179,3.574-8.776,6.658-13.715,9.199
			c0.24,0.422,0.438,0.877,0.59,1.361c1.184,3.771-0.924,7.805-4.696,8.986c-3.773,1.184-7.805-0.924-8.988-4.695
			c-0.044-0.145-0.083-0.285-0.117-0.428c-12.612,3.611-25.704,3.699-38.121,0.375c-0.935,1.35-2.305,2.414-3.99,2.943
			c-4.021,1.26-8.318-0.988-9.578-5.006c-0.337-1.078-0.421-2.176-0.289-3.23c-0.317-0.16-0.635-0.318-0.952-0.482
			c-8.232-4.305-15.409-10.039-21.276-16.887c6.517,14.906,17.82,27.061,32.443,34.705c16.98,8.877,36.398,10.605,54.68,4.875
			c18.282-5.732,33.238-18.238,42.114-35.217c8.874-16.982,10.604-36.4,4.875-54.684C150.27,68.751,145.514,60.222,139.28,52.945z
			 M91.393,165.873c-2.773,0.867-5.743-0.699-6.62-3.5c-0.877-2.797,0.665-5.779,3.439-6.65c2.772-0.867,5.742,0.699,6.618,3.5
			C95.708,162.02,94.165,165.004,91.393,165.873z"/>
		<path id="XMLID_8_" opacity="0.56" fill="#F1F2F2" d="M28.125,56.078c5.323-4.354,11.774-0.609,9.429,6.374
			c-0.667,1.984-2.1,3.847-3.528,5.499c-1.974,2.275-4.154,4.435-6.417,5.607c-6.601,3.427-7.484-2.534-5.094-9.142
			C23.636,61.317,25.644,58.107,28.125,56.078z"/>
	</g>
	<g>
		<linearGradient id="XMLID_44_" gradientUnits="userSpaceOnUse" x1="52.0088" y1="116.1396" x2="142.2598" y2="116.1396">
			<stop  offset="0" style="stop-color:#FFFFFF"/>
			<stop  offset="1" style="stop-color:#D1D3D4"/>
		</linearGradient>
		<path id="XMLID_6_" fill="url(#XMLID_44_)" d="M52.009,139.518c9.401,6.203,20.663,9.814,32.769,9.814
			c27.461,0,50.579-18.578,57.482-43.848c-2.054-0.889-4.316-1.383-6.698-1.383c-0.249,0-0.49,0.027-0.735,0.039
			c-2.853-12.149-13.75-21.193-26.769-21.193c-15.189,0-27.502,12.313-27.502,27.5c0,2.887,0.446,5.666,1.271,8.277
			c-6.127,2.545-10.437,8.582-10.437,15.631c0,1.357,0.178,2.674,0.481,3.941H57.542C55.565,138.297,53.691,138.734,52.009,139.518z
			"/>
		<linearGradient id="XMLID_45_" gradientUnits="userSpaceOnUse" x1="50.9028" y1="127.5791" x2="151.931" y2="127.5791">
			<stop  offset="0" style="stop-color:#D1D3D4"/>
			<stop  offset="1" style="stop-color:#FFFFFF"/>
		</linearGradient>
		<path id="XMLID_5_" fill="url(#XMLID_45_)" d="M179.698,142.031c0.292-1.246,0.462-2.537,0.462-3.871
			c0-9.35-7.576-16.926-16.925-16.926c-1.564,0-3.069,0.227-4.508,0.625c-1.407-7.926-8.315-13.953-16.647-13.953
			c-0.249,0-0.49,0.027-0.737,0.037c-2.853-12.147-13.749-21.195-26.766-21.195c-15.19,0-27.505,12.313-27.505,27.504
			c0,2.883,0.448,5.662,1.271,8.277c-6.125,2.545-10.435,8.582-10.435,15.631c0,1.357,0.177,2.674,0.481,3.941H64.06
			c-7.266,0-13.157,5.891-13.157,13.156l0,0c0,7.266,5.891,13.152,13.157,13.152h17.302h48.886h46.739
			c7.36,0,13.328-5.963,13.328-13.328l0,0C190.315,148.652,185.758,143.283,179.698,142.031z"/>
		<path id="XMLID_4_" fill="#E6E7E8" d="M179.698,142.031c0.292-1.246,0.462-2.537,0.462-3.871c0-9.35-7.576-16.926-16.925-16.926
			c-1.564,0-3.069,0.227-4.508,0.625c-1.395-7.859-8.2-13.85-16.436-13.949c-0.488,26.516-15.931,49.373-38.248,60.5h26.204h46.739
			c7.36,0,13.328-5.963,13.328-13.328l0,0C190.315,148.652,185.758,143.283,179.698,142.031z"/>
		<path id="XMLID_3_" fill="#F1F2F2" d="M177.115,133.15c0.911,3.584-2.881,6.525-6.032,4.156c-0.896-0.67-1.518-1.744-2.023-2.779
			c-0.696-1.432-1.273-2.959-1.295-4.375c-0.06-4.137,3.42-3.693,6.354-1.359C175.494,129.887,176.689,131.482,177.115,133.15z"/>
		<path id="XMLID_2_" fill="#F1F2F2" d="M60.311,144.68c3.535-1.088,6.659,2.553,4.452,5.818c-0.627,0.928-1.666,1.602-2.678,2.158
			c-1.393,0.768-2.889,1.422-4.305,1.512c-4.128,0.264-3.858-3.23-1.673-6.277C57.131,146.461,58.664,145.188,60.311,144.68z"/>
		<path id="XMLID_1_" fill="#FFFFFF" d="M106.042,90.822c5.098-1.151,9.214,4.396,5.807,8.802c-0.966,1.253-2.495,2.092-3.977,2.772
			c-2.04,0.938-4.215,1.697-6.228,1.666c-5.872-0.094-5.189-5.047-1.834-9.146C101.384,92.999,103.662,91.358,106.042,90.822z"/>
	</g>
</g>
</svg>
