<?xml version="1.0" encoding="utf-8"?>
<!-- Generator: Adobe Illustrator 16.0.0, SVG Export Plug-In . SVG Version: 6.00 Build 0)  -->
<!DOCTYPE svg PUBLIC "-//W3C//DTD SVG 1.1//EN" "http://www.w3.org/Graphics/SVG/1.1/DTD/svg11.dtd">
<svg version="1.1" id="Layer_1" xmlns="http://www.w3.org/2000/svg" xmlns:xlink="http://www.w3.org/1999/xlink" x="0px" y="0px"
	 width="200px" height="200px" viewBox="0 0 200 200" enable-background="new 0 0 200 200" xml:space="preserve">
<polygon id="XMLID_48_" fill="#F7941E" points="78.5,33.099 96.025,32.028 105.711,17.379 121.418,25.239 137.128,17.379 
	146.813,32.028 164.337,33.099 165.409,50.624 180.059,60.31 172.199,76.018 180.059,91.726 165.409,101.413 164.337,118.937 
	146.813,120.008 137.128,134.657 121.418,126.796 105.711,134.657 96.025,120.008 78.5,118.937 77.428,101.413 62.78,91.726 
	70.638,76.018 62.78,60.31 77.428,50.624 "/>
<linearGradient id="XMLID_8_" gradientUnits="userSpaceOnUse" x1="1102.4229" y1="1781.9004" x2="1220.1023" y2="1781.9004" gradientTransform="matrix(0.7071 0.7071 0.7071 -0.7071 -1960.6271 513.9366)">
	<stop  offset="0.017" style="stop-color:#FFC635"/>
	<stop  offset="0.2379" style="stop-color:#FBB040"/>
	<stop  offset="0.7876" style="stop-color:#F7941E"/>
	<stop  offset="0.9796" style="stop-color:#F47B20"/>
</linearGradient>
<polygon id="XMLID_47_" fill="url(#XMLID_8_)" points="58.004,76.018 70.16,62.278 66.494,44.302 83.904,38.503 89.704,21.092 
	107.68,24.759 121.418,12.603 135.158,24.759 153.135,21.092 158.934,38.503 176.344,44.302 172.679,62.278 184.835,76.018 
	172.679,89.758 176.344,107.732 158.934,113.534 153.135,130.944 135.158,127.277 121.418,139.432 107.68,127.277 89.704,130.944 
	83.904,113.534 66.494,107.732 70.16,89.758 "/>
<radialGradient id="XMLID_9_" cx="318.0957" cy="-162.0981" r="48.0349" gradientTransform="matrix(1 0 0 -1 -206 -95)" gradientUnits="userSpaceOnUse">
	<stop  offset="0.017" style="stop-color:#FFC635"/>
	<stop  offset="0.2379" style="stop-color:#FBB040"/>
	<stop  offset="0.7876" style="stop-color:#F7941E"/>
	<stop  offset="0.9796" style="stop-color:#F47B20"/>
</radialGradient>
<circle id="XMLID_46_" fill="url(#XMLID_9_)" cx="121.418" cy="76.017" r="48.035"/>
<g id="XMLID_1866_">
	<g id="XMLID_1832_" display="none">
		<g id="XMLID_1837_" display="inline">
			<polygon id="XMLID_1840_" fill="#F6921E" points="44.957,61.316 67.545,59.937 80.027,41.056 100.276,51.185 120.521,41.056 
				133.004,59.937 155.593,61.316 156.974,83.905 175.854,96.389 165.724,116.635 175.854,136.883 156.974,149.367 155.593,171.952 
				133.004,173.335 120.521,192.215 100.274,182.084 80.027,192.215 67.545,173.335 44.957,171.952 43.575,149.367 24.696,136.883 
				34.823,116.635 24.696,96.389 43.575,83.905 			"/>
			
				<linearGradient id="XMLID_12_" gradientUnits="userSpaceOnUse" x1="744.2549" y1="-1601.8691" x2="895.9293" y2="-1601.8691" gradientTransform="matrix(0.7071 0.7071 -0.7071 0.7071 -1613.4999 668.2235)">
				<stop  offset="0.017" style="stop-color:#FFC635"/>
				<stop  offset="0.2379" style="stop-color:#FAAF40"/>
				<stop  offset="0.7876" style="stop-color:#F6921E"/>
				<stop  offset="0.9796" style="stop-color:#F37B20"/>
			</linearGradient>
			<polygon id="XMLID_1839_" fill="url(#XMLID_12_)" points="18.539,116.635 34.207,98.927 29.481,75.757 51.922,68.282 
				59.397,45.841 82.567,50.567 100.276,34.899 117.981,50.567 141.154,45.841 148.626,68.282 171.068,75.757 166.341,98.927 
				182.009,116.635 166.341,134.345 171.068,157.512 148.626,164.989 141.152,187.43 117.981,182.702 100.276,198.368 
				82.567,182.702 59.395,187.43 51.922,164.989 29.481,157.512 34.207,134.345 			"/>
			<radialGradient id="XMLID_13_" cx="89.9766" cy="106.8574" r="70.8437" gradientUnits="userSpaceOnUse">
				<stop  offset="0.0333" style="stop-color:#FFDD87"/>
				<stop  offset="0.3449" style="stop-color:#FFC635"/>
				<stop  offset="0.5538" style="stop-color:#FAAF40"/>
				<stop  offset="0.7876" style="stop-color:#F6921E"/>
				<stop  offset="0.9796" style="stop-color:#F37B20"/>
			</radialGradient>
			<circle id="XMLID_1838_" fill="url(#XMLID_13_)" cx="100.274" cy="116.635" r="61.913"/>
		</g>
	</g>
	<g id="XMLID_1813_" display="none">
		<polygon id="XMLID_1831_" display="inline" fill="#F6921E" points="39.08,65.961 59.771,64.697 71.207,47.402 89.752,56.681 
			108.299,47.402 119.734,64.697 140.425,65.961 141.69,86.652 158.986,98.088 149.707,116.635 158.986,135.182 141.69,146.618 
			140.425,167.308 119.734,168.573 108.299,185.869 89.751,176.588 71.207,185.869 59.771,168.573 39.08,167.308 37.813,146.618 
			20.52,135.182 29.797,116.635 20.52,98.088 37.813,86.652 		"/>
		
			<linearGradient id="XMLID_14_" gradientUnits="userSpaceOnUse" x1="743.3252" y1="-1594.4297" x2="882.2649" y2="-1594.4297" gradientTransform="matrix(0.7071 0.7071 -0.7071 0.7071 -1613.4999 668.2235)">
			<stop  offset="0.017" style="stop-color:#FFC635"/>
			<stop  offset="0.2379" style="stop-color:#FAAF40"/>
			<stop  offset="0.7876" style="stop-color:#F6921E"/>
			<stop  offset="0.9796" style="stop-color:#F37B20"/>
		</linearGradient>
		<polygon id="XMLID_1830_" display="inline" fill="url(#XMLID_14_)" points="14.88,116.635 29.232,100.414 24.903,79.189 
			45.46,72.342 52.307,51.785 73.532,56.114 89.752,41.762 105.975,56.114 127.199,51.785 134.045,72.342 154.602,79.189 
			150.272,100.414 164.625,116.635 150.272,132.857 154.602,154.079 134.045,160.929 127.199,181.484 105.975,177.155 
			89.752,191.506 73.532,177.155 52.307,181.484 45.46,160.929 24.903,154.079 29.232,132.857 		"/>
		<radialGradient id="XMLID_15_" cx="78.7437" cy="106.1045" r="56.7137" gradientUnits="userSpaceOnUse">
			<stop  offset="0.017" style="stop-color:#FFC635"/>
			<stop  offset="0.2379" style="stop-color:#FAAF40"/>
			<stop  offset="0.7876" style="stop-color:#F6921E"/>
			<stop  offset="0.9796" style="stop-color:#F37B20"/>
		</radialGradient>
		<circle id="XMLID_1829_" display="inline" fill="url(#XMLID_15_)" cx="89.751" cy="116.635" r="56.713"/>
		<g display="inline">
			<linearGradient id="XMLID_16_" gradientUnits="userSpaceOnUse" x1="58.5645" y1="141.7559" x2="144.4619" y2="141.7559">
				<stop  offset="0" style="stop-color:#FFFFFF"/>
				<stop  offset="1" style="stop-color:#D0D2D3"/>
			</linearGradient>
			<path id="XMLID_1823_" fill="url(#XMLID_16_)" d="M58.564,164.006c8.948,5.904,19.666,9.342,31.188,9.342
				c26.137,0,48.138-17.682,54.709-41.734c-1.954-0.846-4.108-1.314-6.376-1.314c-0.235,0-0.467,0.025-0.699,0.036
				c-2.716-11.563-13.087-20.171-25.477-20.171c-14.458,0-26.177,11.72-26.177,26.175c0,2.747,0.425,5.392,1.209,7.877
				c-5.832,2.423-9.933,8.168-9.933,14.878c0,1.291,0.17,2.544,0.458,3.751H63.832C61.949,162.845,60.166,163.261,58.564,164.006z"
				/>
			<linearGradient id="XMLID_17_" gradientUnits="userSpaceOnUse" x1="57.5122" y1="152.6445" x2="153.6665" y2="152.6445">
				<stop  offset="0" style="stop-color:#D0D2D3"/>
				<stop  offset="1" style="stop-color:#FFFFFF"/>
			</linearGradient>
			<path id="XMLID_1822_" fill="url(#XMLID_17_)" d="M180.094,166.397c0.278-1.185,0.439-2.414,0.439-3.683
				c0-8.899-7.211-16.111-16.107-16.111c-1.489,0-2.921,0.218-4.291,0.598c-1.339-7.546-7.915-13.281-15.844-13.281
				c-0.238,0-0.467,0.027-0.701,0.036c-2.716-11.562-13.087-20.173-25.475-20.173c-14.459,0-26.179,11.719-26.179,26.176
				c0,2.746,0.426,5.391,1.209,7.877c-5.83,2.423-9.932,8.168-9.932,14.879c0,1.291,0.168,2.544,0.458,3.75H70.034
				c-6.915,0-12.521,5.606-12.521,12.521l0,0c0,6.916,5.606,12.52,12.521,12.52h16.468h46.529h44.482
				c7.007,0,12.687-5.677,12.687-12.686l0,0C190.199,172.701,185.862,167.592,180.094,166.397z"/>
			<path id="XMLID_1821_" fill="#E6E7E8" d="M180.094,166.397c0.278-1.185,0.439-2.414,0.439-3.683
				c0-8.899-7.211-16.111-16.107-16.111c-1.489,0-2.921,0.218-4.291,0.598c-1.328-7.481-7.806-13.181-15.643-13.278
				c-0.465,25.237-15.162,46.992-36.402,57.583h24.94h44.482c7.007,0,12.687-5.677,12.687-12.686l0,0
				C190.199,172.701,185.862,167.592,180.094,166.397z"/>
			<path id="XMLID_1820_" fill="#F1F1F2" d="M177.636,157.947c0.868,3.41-2.742,6.209-5.741,3.954
				c-0.854-0.638-1.445-1.659-1.925-2.645c-0.663-1.362-1.213-2.814-1.233-4.164c-0.057-3.938,3.255-3.515,6.048-1.293
				C176.094,154.84,177.23,156.357,177.636,157.947z"/>
			<path id="XMLID_1819_" fill="#F1F1F2" d="M66.466,168.919c3.365-1.034,6.337,2.429,4.237,5.537
				c-0.597,0.883-1.585,1.525-2.548,2.057c-1.326,0.729-2.75,1.352-4.097,1.438c-3.929,0.251-3.673-3.073-1.593-5.976
				C63.44,170.615,64.899,169.403,66.466,168.919z"/>
			<path id="XMLID_1818_" fill="#FFFFFF" d="M109.991,117.66c4.851-1.095,8.769,4.185,5.526,8.379
				c-0.919,1.192-2.375,1.99-3.785,2.637c-1.941,0.895-4.011,1.615-5.927,1.586c-5.588-0.089-4.938-4.804-1.745-8.704
				C105.557,119.731,107.726,118.169,109.991,117.66z"/>
		</g>
	</g>
	<g id="XMLID_1747_" display="none">
		<radialGradient id="XMLID_18_" cx="46.001" cy="87.5" r="76.3951" gradientUnits="userSpaceOnUse">
			<stop  offset="0" style="stop-color:#E6E7E8"/>
			<stop  offset="1" style="stop-color:#929497"/>
		</radialGradient>
		<path id="XMLID_1782_" display="inline" fill="url(#XMLID_18_)" d="M33.404,82.41c0.06,0,0.117,0.007,0.176,0.009
			c-0.111-0.97-0.176-1.954-0.176-2.954c0-14.095,11.426-25.52,25.52-25.52c12.22,0,22.428,8.588,24.928,20.058
			c3.1-1.883,6.725-2.987,10.617-2.987c11.327,0,20.507,9.183,20.507,20.508c0,0.407-0.038,0.803-0.06,1.204
			c0.981-0.186,1.988-0.293,3.023-0.293c8.934,0,16.179,7.243,16.179,16.178c0,8.934-7.245,16.177-16.179,16.177
			c-2.274,0-4.438-0.473-6.399-1.318c-3.677,3.492-8.637,5.649-14.108,5.649c-0.672,0-1.336-0.036-1.992-0.101
			c-3.762,4.379-9.328,7.162-15.553,7.162c-5.064,0-9.691-1.844-13.269-4.888c-3.496,2.768-7.904,4.434-12.707,4.434
			c-8.441,0-15.684-5.104-18.831-12.391c-0.553,0.047-1.111,0.086-1.677,0.086c-11.325,0-20.506-9.181-20.506-20.506
			C12.898,91.591,22.08,82.41,33.404,82.41z"/>
		<path id="XMLID_1781_" display="inline" fill="#E6E7E8" d="M82.561,69.841c-3.798-9.322-12.947-15.895-23.637-15.895
			c-14.093,0-25.52,11.425-25.52,25.52c0,1,0.065,1.984,0.176,2.954c-0.059-0.002-0.116-0.009-0.176-0.009
			c-11.325,0-20.506,9.181-20.506,20.508c0,11.325,9.181,20.506,20.506,20.506c0.034,0,0.065-0.004,0.099-0.004
			C59.607,118.365,79.781,96.688,82.561,69.841z"/>
		<path id="XMLID_1780_" display="inline" fill="#D0D2D3" d="M22.3,89.15c3.199-0.987,6.029,2.311,4.029,5.267
			c-0.567,0.84-1.508,1.45-2.422,1.954c-1.263,0.695-2.618,1.287-3.9,1.369c-3.736,0.241-3.492-2.924-1.515-5.684
			C19.419,90.764,20.809,89.61,22.3,89.15z"/>
		<path id="XMLID_1779_" display="inline" fill="#D0D2D3" d="M48.513,59.613c4.617-1.04,8.344,3.983,5.259,7.974
			c-0.876,1.131-2.261,1.895-3.602,2.508c-1.846,0.848-3.815,1.537-5.638,1.509c-5.316-0.084-4.7-4.569-1.661-8.279
			C44.295,61.585,46.361,60.099,48.513,59.613z"/>
		<linearGradient id="XMLID_19_" gradientUnits="userSpaceOnUse" x1="54.6138" y1="104.9307" x2="112.2282" y2="104.9307">
			<stop  offset="0" style="stop-color:#FFFFFF"/>
			<stop  offset="1" style="stop-color:#D0D2D3"/>
		</linearGradient>
		<path id="XMLID_1778_" display="inline" fill="url(#XMLID_19_)" d="M134.118,108.613c0-8.935-7.245-16.178-16.179-16.178
			c-1.035,0-2.042,0.107-3.023,0.293c0.021-0.401,0.06-0.797,0.06-1.204c0-7.652-4.193-14.321-10.407-17.845
			c-9.983,3.243-17.204,12.617-17.204,23.684c0,2.612,0.404,5.128,1.149,7.494c-5.546,2.306-9.449,7.772-9.449,14.15
			c0,1.234,0.16,2.424,0.434,3.569H66.526c-6.579,0-11.913,5.333-11.913,11.914l0,0c0,0.412,0.022,0.82,0.062,1.22
			c4.506-0.165,8.634-1.795,11.942-4.416c3.578,3.044,8.205,4.888,13.269,4.888c6.225,0,11.791-2.783,15.553-7.162
			c0.656,0.064,1.32,0.101,1.992,0.101c5.472,0,10.432-2.157,14.108-5.649c1.962,0.846,4.125,1.318,6.399,1.318
			C126.873,124.79,134.118,117.547,134.118,108.613z"/>
		<linearGradient id="XMLID_20_" gradientUnits="userSpaceOnUse" x1="61.416" y1="112.876" x2="152.8922" y2="112.876">
			<stop  offset="0" style="stop-color:#D0D2D3"/>
			<stop  offset="1" style="stop-color:#FFFFFF"/>
		</linearGradient>
		<path id="XMLID_1777_" display="inline" fill="url(#XMLID_20_)" d="M178.035,125.962c0.264-1.128,0.417-2.3,0.417-3.507
			c0-8.465-6.86-15.325-15.323-15.325c-1.416,0-2.782,0.207-4.082,0.565c-1.274-7.18-7.529-12.636-15.074-12.636
			c-0.226,0-0.443,0.025-0.667,0.035c-2.582-10.999-12.449-19.19-24.234-19.19c-13.754,0-24.904,11.15-24.904,24.905
			c0,2.61,0.404,5.127,1.149,7.491c-5.546,2.306-9.449,7.772-9.449,14.155c0,1.229,0.162,2.421,0.436,3.567H73.329
			c-6.578,0-11.913,5.333-11.913,11.913l0,0c0,6.578,5.335,11.912,11.913,11.912h15.666h44.266h42.32
			c6.664,0,12.066-5.403,12.066-12.067l0,0C187.647,131.954,183.523,127.094,178.035,125.962z"/>
		<path id="XMLID_1776_" display="inline" fill="#E6E7E8" d="M178.035,125.962c0.264-1.128,0.417-2.3,0.417-3.507
			c0-8.465-6.86-15.325-15.323-15.325c-1.416,0-2.782,0.207-4.082,0.565c-1.262-7.119-7.423-12.539-14.882-12.631
			c-0.441,24.01-14.425,44.708-34.634,54.784h23.729h42.32c6.664,0,12.066-5.403,12.066-12.067l0,0
			C187.647,131.954,183.523,127.094,178.035,125.962z"/>
		<path id="XMLID_1775_" display="inline" fill="#F1F1F2" d="M175.696,117.922c0.824,3.242-2.608,5.904-5.462,3.762
			c-0.811-0.607-1.375-1.578-1.831-2.518c-0.632-1.297-1.155-2.68-1.174-3.964c-0.051-3.745,3.095-3.342,5.754-1.229
			C174.229,114.963,175.312,116.407,175.696,117.922z"/>
		<path id="XMLID_1774_" display="inline" fill="#F1F1F2" d="M69.937,128.357c3.199-0.985,6.027,2.312,4.029,5.268
			c-0.567,0.84-1.509,1.452-2.423,1.955c-1.263,0.694-2.618,1.286-3.899,1.368c-3.738,0.242-3.494-2.925-1.515-5.685
			C67.056,129.971,68.444,128.817,69.937,128.357z"/>
		<path id="XMLID_1773_" display="inline" fill="#FFFFFF" d="M111.341,79.591c4.617-1.039,8.344,3.984,5.262,7.974
			c-0.878,1.131-2.262,1.895-3.601,2.51c-1.85,0.846-3.818,1.536-5.641,1.507c-5.315-0.083-4.699-4.568-1.661-8.279
			C107.125,81.564,109.188,80.077,111.341,79.591z"/>
		<g id="XMLID_1760_" display="inline">
			<g id="XMLID_1767_">
				
					<radialGradient id="XMLID_21_" cx="57.7217" cy="160.4688" r="5.243" gradientTransform="matrix(1 0 0 1.376 0 -60.3298)" gradientUnits="userSpaceOnUse">
					<stop  offset="0.0428" style="stop-color:#A7DFF8"/>
					<stop  offset="0.6495" style="stop-color:#75D0F6"/>
					<stop  offset="1" style="stop-color:#26A7DF"/>
				</radialGradient>
				<path id="XMLID_1769_" fill="url(#XMLID_21_)" d="M58.955,153.829c-0.191-0.33-0.668-0.33-0.858,0
					c-1.594,2.772-6.738,12.592,0.429,12.592S60.549,156.602,58.955,153.829z"/>
				<path id="XMLID_1768_" fill="#F1F1F2" d="M55.479,163.826c0.016-0.864,1.055-1.295,1.623-0.565
					c0.16,0.208,0.234,0.49,0.285,0.752c0.068,0.368,0.105,0.749,0.022,1.071c-0.244,0.938-1.002,0.625-1.521-0.084
					C55.644,164.667,55.472,164.232,55.479,163.826z"/>
			</g>
			<g id="XMLID_1764_">
				
					<radialGradient id="XMLID_22_" cx="105.792" cy="160.4688" r="5.2423" gradientTransform="matrix(1 0 0 1.376 0 -60.3298)" gradientUnits="userSpaceOnUse">
					<stop  offset="0.0428" style="stop-color:#A7DFF8"/>
					<stop  offset="0.6495" style="stop-color:#75D0F6"/>
					<stop  offset="1" style="stop-color:#26A7DF"/>
				</radialGradient>
				<path id="XMLID_1766_" fill="url(#XMLID_22_)" d="M107.022,153.829c-0.188-0.33-0.667-0.33-0.857,0
					c-1.593,2.772-6.737,12.592,0.431,12.592C113.762,166.421,108.619,156.602,107.022,153.829z"/>
				<path id="XMLID_1765_" fill="#F1F1F2" d="M103.548,163.826c0.017-0.864,1.055-1.295,1.621-0.565
					c0.161,0.208,0.236,0.49,0.285,0.752c0.07,0.368,0.106,0.749,0.022,1.071c-0.242,0.938-1.002,0.625-1.521-0.084
					C103.713,164.667,103.541,164.232,103.548,163.826z"/>
			</g>
			<g id="XMLID_1761_">
				
					<radialGradient id="XMLID_23_" cx="77.4771" cy="170.0068" r="5.2438" gradientTransform="matrix(1 0 0 1.376 0 -63.9158)" gradientUnits="userSpaceOnUse">
					<stop  offset="0.0428" style="stop-color:#A7DFF8"/>
					<stop  offset="0.6495" style="stop-color:#75D0F6"/>
					<stop  offset="1" style="stop-color:#26A7DF"/>
				</radialGradient>
				<path id="XMLID_1763_" fill="url(#XMLID_23_)" d="M78.71,163.366c-0.19-0.331-0.667-0.331-0.857,0
					c-1.596,2.773-6.738,12.595,0.428,12.595C85.447,175.961,80.306,166.14,78.71,163.366z"/>
				<path id="XMLID_1762_" fill="#F1F1F2" d="M75.235,173.366c0.016-0.868,1.056-1.301,1.622-0.568
					c0.16,0.207,0.236,0.489,0.285,0.755c0.068,0.364,0.106,0.747,0.022,1.067c-0.242,0.941-1.001,0.625-1.521-0.086
					C75.4,174.203,75.227,173.769,75.235,173.366z"/>
			</g>
		</g>
	</g>
	<g id="XMLID_1711_">
		<g id="XMLID_1730_">
			<g id="XMLID_1739_">
				
					<radialGradient id="XMLID_24_" cx="4036.4502" cy="-1581.894" r="28.3298" gradientTransform="matrix(-0.7071 0.7071 0.7071 0.7071 4149.0947 -1591.6534)" gradientUnits="userSpaceOnUse">
					<stop  offset="0.0428" style="stop-color:#A7DFF8"/>
					<stop  offset="0.6495" style="stop-color:#75D0F6"/>
					<stop  offset="1" style="stop-color:#26A7DF"/>
				</radialGradient>
				<path id="XMLID_1746_" fill="url(#XMLID_24_)" d="M189.73,157.799l0.396-0.394c0.562-0.563,0.562-1.471,0-2.034l-26.974-26.974
					c-0.562-0.561-1.472-0.561-2.034,0l-0.394,0.396c-0.563,0.563-0.563,1.473,0,2.033l26.973,26.973
					C188.258,158.361,189.168,158.361,189.73,157.799z"/>
				
					<radialGradient id="XMLID_25_" cx="4061.3877" cy="-1582.7173" r="28.3284" gradientTransform="matrix(-0.7071 0.7071 0.7071 0.7071 4149.0947 -1591.6534)" gradientUnits="userSpaceOnUse">
					<stop  offset="0.0428" style="stop-color:#A7DFF8"/>
					<stop  offset="0.6495" style="stop-color:#75D0F6"/>
					<stop  offset="1" style="stop-color:#26A7DF"/>
				</radialGradient>
				<path id="XMLID_1745_" fill="url(#XMLID_25_)" d="M171.517,174.85l0.394-0.394c0.563-0.561,0.563-1.473,0-2.033l-26.973-26.975
					c-0.561-0.563-1.471-0.563-2.032,0l-0.396,0.396c-0.562,0.563-0.562,1.473,0,2.033l26.974,26.973
					C170.044,175.412,170.956,175.412,171.517,174.85z"/>
				
					<radialGradient id="XMLID_26_" cx="4048.9189" cy="-1574.6099" r="28.33" gradientTransform="matrix(-0.7071 0.7071 0.7071 0.7071 4149.0947 -1591.6534)" gradientUnits="userSpaceOnUse">
					<stop  offset="0.0428" style="stop-color:#A7DFF8"/>
					<stop  offset="0.6495" style="stop-color:#75D0F6"/>
					<stop  offset="1" style="stop-color:#26A7DF"/>
				</radialGradient>
				<path id="XMLID_1744_" fill="url(#XMLID_26_)" d="M186.065,171.768l0.394-0.396c0.563-0.563,0.563-1.473,0-2.033l-26.973-26.973
					c-0.561-0.563-1.471-0.563-2.035,0l-0.394,0.394c-0.562,0.561-0.562,1.471,0,2.033l26.974,26.975
					C184.593,172.327,185.503,172.327,186.065,171.768z"/>
				
					<radialGradient id="XMLID_49_" cx="4042.6846" cy="-1593.6504" r="28.3291" gradientTransform="matrix(-0.7071 0.7071 0.7071 0.7071 4149.0947 -1591.6534)" gradientUnits="userSpaceOnUse">
					<stop  offset="0.0428" style="stop-color:#A7DFF8"/>
					<stop  offset="0.6495" style="stop-color:#75D0F6"/>
					<stop  offset="1" style="stop-color:#26A7DF"/>
				</radialGradient>
				<path id="XMLID_1743_" fill="url(#XMLID_49_)" d="M177.011,153.895l0.394-0.394c0.561-0.561,0.561-1.471,0-2.033l-26.973-26.975
					c-0.562-0.563-1.473-0.563-2.034,0l-0.394,0.396c-0.563,0.561-0.563,1.473,0,2.033l26.973,26.973
					C175.539,154.457,176.449,154.457,177.011,153.895z"/>
				
					<radialGradient id="XMLID_50_" cx="4067.6211" cy="-1587.7241" r="28.33" gradientTransform="matrix(-0.7071 0.7071 0.7071 0.7071 4149.0947 -1591.6534)" gradientUnits="userSpaceOnUse">
					<stop  offset="0.0428" style="stop-color:#A7DFF8"/>
					<stop  offset="0.6495" style="stop-color:#75D0F6"/>
					<stop  offset="1" style="stop-color:#26A7DF"/>
				</radialGradient>
				<path id="XMLID_1742_" fill="url(#XMLID_50_)" d="M163.568,175.718l0.394-0.394c0.563-0.563,0.563-1.471,0-2.035l-26.973-26.973
					c-0.563-0.561-1.473-0.561-2.034,0l-0.395,0.396c-0.562,0.563-0.562,1.473,0,2.033l26.974,26.973
					C162.096,176.28,163.006,176.28,163.568,175.718z"/>
				
					<radialGradient id="XMLID_51_" cx="4073.8545" cy="-1599.4795" r="28.3291" gradientTransform="matrix(-0.7071 0.7071 0.7071 0.7071 4149.0947 -1591.6534)" gradientUnits="userSpaceOnUse">
					<stop  offset="0.0428" style="stop-color:#A7DFF8"/>
					<stop  offset="0.6495" style="stop-color:#75D0F6"/>
					<stop  offset="1" style="stop-color:#26A7DF"/>
				</radialGradient>
				<path id="XMLID_1741_" fill="url(#XMLID_51_)" d="M150.848,171.813l0.394-0.395c0.561-0.561,0.561-1.472,0-2.032l-26.973-26.975
					c-0.563-0.563-1.471-0.563-2.033,0l-0.394,0.396c-0.563,0.561-0.563,1.472,0,2.032l26.973,26.974
					C149.375,172.375,150.285,172.375,150.848,171.813z"/>
				
					<radialGradient id="XMLID_52_" cx="4055.1533" cy="-1587.2061" r="28.3291" gradientTransform="matrix(-0.7071 0.7071 0.7071 0.7071 4149.0947 -1591.6534)" gradientUnits="userSpaceOnUse">
					<stop  offset="0.0428" style="stop-color:#A7DFF8"/>
					<stop  offset="0.6495" style="stop-color:#75D0F6"/>
					<stop  offset="1" style="stop-color:#26A7DF"/>
				</radialGradient>
				<path id="XMLID_1740_" fill="url(#XMLID_52_)" d="M172.751,167.268l0.394-0.394c0.563-0.561,0.563-1.473,0-2.033l-26.973-26.975
					c-0.561-0.561-1.473-0.561-2.032,0l-0.396,0.396c-0.562,0.563-0.562,1.473,0,2.033l26.976,26.973
					C171.278,167.832,172.19,167.832,172.751,167.268z"/>
			</g>
			<g id="XMLID_1731_">
				
					<radialGradient id="XMLID_53_" cx="4080.5635" cy="-1626.0083" r="28.3284" gradientTransform="matrix(-0.7071 0.7071 0.7071 0.7071 4149.0947 -1591.6534)" gradientUnits="userSpaceOnUse">
					<stop  offset="0.0428" style="stop-color:#A7DFF8"/>
					<stop  offset="0.6495" style="stop-color:#75D0F6"/>
					<stop  offset="1" style="stop-color:#26A7DF"/>
				</radialGradient>
				<path id="XMLID_1738_" fill="url(#XMLID_53_)" d="M127.344,157.799l0.396-0.394c0.561-0.563,0.561-1.471,0-2.034l-26.974-26.974
					c-0.562-0.561-1.472-0.561-2.033,0l-0.395,0.396c-0.563,0.563-0.563,1.473,0,2.033l26.974,26.973
					C125.873,158.361,126.783,158.361,127.344,157.799z"/>
				
					<radialGradient id="XMLID_54_" cx="4105.501" cy="-1626.8315" r="28.3298" gradientTransform="matrix(-0.7071 0.7071 0.7071 0.7071 4149.0947 -1591.6534)" gradientUnits="userSpaceOnUse">
					<stop  offset="0.0428" style="stop-color:#A7DFF8"/>
					<stop  offset="0.6495" style="stop-color:#75D0F6"/>
					<stop  offset="1" style="stop-color:#26A7DF"/>
				</radialGradient>
				<path id="XMLID_1737_" fill="url(#XMLID_54_)" d="M109.13,174.85l0.394-0.394c0.563-0.561,0.563-1.473,0-2.033l-26.973-26.975
					c-0.561-0.563-1.471-0.563-2.034,0l-0.394,0.396c-0.562,0.563-0.562,1.473,0,2.033l26.973,26.973
					C107.657,175.412,108.568,175.412,109.13,174.85z"/>
				
					<radialGradient id="XMLID_55_" cx="4093.0332" cy="-1618.7241" r="28.33" gradientTransform="matrix(-0.7071 0.7071 0.7071 0.7071 4149.0947 -1591.6534)" gradientUnits="userSpaceOnUse">
					<stop  offset="0.0428" style="stop-color:#A7DFF8"/>
					<stop  offset="0.6495" style="stop-color:#75D0F6"/>
					<stop  offset="1" style="stop-color:#26A7DF"/>
				</radialGradient>
				<path id="XMLID_1736_" fill="url(#XMLID_55_)" d="M123.679,171.768l0.396-0.396c0.561-0.563,0.561-1.473,0-2.033l-26.975-26.973
					c-0.561-0.563-1.471-0.563-2.032,0l-0.396,0.394c-0.562,0.561-0.562,1.471,0,2.033l26.973,26.975
					C122.206,172.327,123.116,172.327,123.679,171.768z"/>
				
					<radialGradient id="XMLID_56_" cx="4086.7988" cy="-1637.7632" r="28.33" gradientTransform="matrix(-0.7071 0.7071 0.7071 0.7071 4149.0947 -1591.6534)" gradientUnits="userSpaceOnUse">
					<stop  offset="0.0428" style="stop-color:#A7DFF8"/>
					<stop  offset="0.6495" style="stop-color:#75D0F6"/>
					<stop  offset="1" style="stop-color:#26A7DF"/>
				</radialGradient>
				<path id="XMLID_1735_" fill="url(#XMLID_56_)" d="M114.624,153.895l0.396-0.394c0.561-0.561,0.561-1.471,0-2.033l-26.974-26.975
					c-0.563-0.563-1.473-0.563-2.034,0l-0.396,0.396c-0.561,0.561-0.561,1.473,0,2.033l26.974,26.973
					C113.152,154.457,114.063,154.457,114.624,153.895z"/>
				
					<radialGradient id="XMLID_57_" cx="4111.7344" cy="-1631.8374" r="28.33" gradientTransform="matrix(-0.7071 0.7071 0.7071 0.7071 4149.0947 -1591.6534)" gradientUnits="userSpaceOnUse">
					<stop  offset="0.0428" style="stop-color:#A7DFF8"/>
					<stop  offset="0.6495" style="stop-color:#75D0F6"/>
					<stop  offset="1" style="stop-color:#26A7DF"/>
				</radialGradient>
				<path id="XMLID_1734_" fill="url(#XMLID_57_)" d="M101.181,175.718l0.396-0.394c0.561-0.563,0.561-1.471,0-2.035l-26.974-26.973
					c-0.563-0.561-1.473-0.561-2.034,0l-0.394,0.396c-0.562,0.563-0.562,1.473,0,2.033l26.973,26.973
					C99.71,176.28,100.619,176.28,101.181,175.718z"/>
				
					<radialGradient id="XMLID_58_" cx="4117.9697" cy="-1643.5933" r="28.3298" gradientTransform="matrix(-0.7071 0.7071 0.7071 0.7071 4149.0947 -1591.6534)" gradientUnits="userSpaceOnUse">
					<stop  offset="0.0428" style="stop-color:#A7DFF8"/>
					<stop  offset="0.6495" style="stop-color:#75D0F6"/>
					<stop  offset="1" style="stop-color:#26A7DF"/>
				</radialGradient>
				<path id="XMLID_1733_" fill="url(#XMLID_58_)" d="M88.462,171.813l0.394-0.395c0.562-0.561,0.562-1.472,0-2.032l-26.973-26.975
					c-0.561-0.563-1.471-0.563-2.034,0l-0.396,0.396c-0.561,0.561-0.561,1.472,0,2.032l26.973,26.974
					C86.989,172.375,87.9,172.375,88.462,171.813z"/>
				
					<radialGradient id="XMLID_59_" cx="4099.2666" cy="-1631.3198" r="28.33" gradientTransform="matrix(-0.7071 0.7071 0.7071 0.7071 4149.0947 -1591.6534)" gradientUnits="userSpaceOnUse">
					<stop  offset="0.0428" style="stop-color:#A7DFF8"/>
					<stop  offset="0.6495" style="stop-color:#75D0F6"/>
					<stop  offset="1" style="stop-color:#26A7DF"/>
				</radialGradient>
				<path id="XMLID_1732_" fill="url(#XMLID_59_)" d="M110.364,167.268l0.396-0.394c0.563-0.561,0.563-1.473,0-2.033l-26.974-26.975
					c-0.561-0.561-1.473-0.561-2.034,0l-0.394,0.396c-0.562,0.563-0.562,1.473,0,2.033l26.973,26.973
					C108.892,167.832,109.803,167.832,110.364,167.268z"/>
			</g>
		</g>
		<radialGradient id="XMLID_60_" cx="41.6855" cy="89.2471" r="73.1229" gradientUnits="userSpaceOnUse">
			<stop  offset="0" style="stop-color:#E6E7E8"/>
			<stop  offset="1" style="stop-color:#929497"/>
		</radialGradient>
		<path id="XMLID_1729_" fill="url(#XMLID_60_)" d="M29.628,84.374c0.058,0,0.112,0.009,0.168,0.009
			c-0.105-0.928-0.168-1.87-0.168-2.827c0-13.492,10.937-24.427,24.428-24.427c11.695,0,21.466,8.222,23.861,19.198
			c2.967-1.802,6.437-2.857,10.162-2.857c10.841,0,19.629,8.788,19.629,19.628c0,0.39-0.037,0.769-0.059,1.153
			c0.938-0.178,1.902-0.281,2.896-0.281c8.551,0,15.482,6.932,15.482,15.486c0,8.551-6.932,15.486-15.482,15.486
			c-2.18,0-4.247-0.456-6.128-1.266c-3.52,3.342-8.267,5.408-13.504,5.408c-0.643,0-1.278-0.037-1.906-0.098
			c-3.6,4.192-8.927,6.857-14.887,6.857c-4.847,0-9.276-1.766-12.699-4.676c-3.346,2.648-7.565,4.241-12.165,4.241
			c-8.078,0-15.012-4.884-18.022-11.86c-0.531,0.044-1.063,0.083-1.606,0.083c-10.84,0-19.628-8.789-19.628-19.629
			C10,93.163,18.789,84.374,29.628,84.374z"/>
		<path id="XMLID_1728_" fill="#E6E7E8" d="M76.68,72.343c-3.637-8.923-12.393-15.214-22.624-15.214
			c-13.491,0-24.428,10.935-24.428,24.427c0,0.957,0.063,1.898,0.168,2.827c-0.056,0-0.11-0.009-0.168-0.009
			c-10.84,0-19.628,8.789-19.628,19.63c0,10.84,8.788,19.629,19.628,19.629c0.034,0,0.064-0.004,0.094-0.004
			C54.71,118.79,74.02,98.041,76.68,72.343z"/>
		<path id="XMLID_1727_" fill="#D0D2D3" d="M19.9,90.826c3.061-0.944,5.77,2.211,3.856,5.043c-0.543,0.802-1.444,1.386-2.319,1.869
			c-1.208,0.666-2.506,1.233-3.731,1.311c-3.578,0.23-3.345-2.798-1.45-5.441C17.141,92.37,18.47,91.268,19.9,90.826z"/>
		<path id="XMLID_1726_" fill="#D0D2D3" d="M45.724,60.692c4.42-0.997,7.987,3.812,5.034,7.63c-0.837,1.085-2.164,1.814-3.448,2.403
			c-1.767,0.812-3.652,1.471-5.396,1.444c-5.088-0.082-4.499-4.374-1.589-7.927C41.687,62.581,43.664,61.157,45.724,60.692z"/>
		<linearGradient id="XMLID_61_" gradientUnits="userSpaceOnUse" x1="49.9312" y1="105.9307" x2="105.0765" y2="105.9307">
			<stop  offset="0" style="stop-color:#FFFFFF"/>
			<stop  offset="1" style="stop-color:#D0D2D3"/>
		</linearGradient>
		<path id="XMLID_1725_" fill="url(#XMLID_61_)" d="M126.028,109.456c0-8.554-6.932-15.486-15.482-15.486
			c-0.993,0-1.958,0.103-2.896,0.281c0.021-0.384,0.059-0.763,0.059-1.153c0-7.324-4.017-13.708-9.962-17.081
			c-9.559,3.104-16.468,12.078-16.468,22.67c0,2.5,0.385,4.908,1.101,7.173c-5.31,2.207-9.046,7.439-9.046,13.547
			c0,1.178,0.155,2.317,0.417,3.416H61.334c-6.299,0-11.403,5.104-11.403,11.402l0,0c0,0.394,0.018,0.783,0.058,1.168
			c4.313-0.159,8.266-1.72,11.433-4.225c3.423,2.91,7.852,4.676,12.699,4.676c5.959,0,11.287-2.665,14.887-6.857
			c0.628,0.061,1.264,0.098,1.906,0.098c5.237,0,9.984-2.066,13.504-5.408c1.881,0.81,3.948,1.266,6.128,1.266
			C119.097,124.942,126.028,118.007,126.028,109.456z"/>
		<linearGradient id="XMLID_62_" gradientUnits="userSpaceOnUse" x1="56.4409" y1="113.5361" x2="144.0004" y2="113.5361">
			<stop  offset="0" style="stop-color:#D0D2D3"/>
			<stop  offset="1" style="stop-color:#FFFFFF"/>
		</linearGradient>
		<path id="XMLID_1724_" fill="url(#XMLID_62_)" d="M168.068,126.061c0.251-1.08,0.399-2.201,0.399-3.358
			c0-8.101-6.567-14.668-14.67-14.668c-1.354,0-2.659,0.2-3.906,0.544c-1.218-6.873-7.206-12.095-14.428-12.095
			c-0.214,0-0.425,0.023-0.638,0.032c-2.472-10.528-11.917-18.368-23.198-18.368c-13.165,0-23.837,10.671-23.837,23.837
			c0,2.498,0.386,4.908,1.099,7.17c-5.309,2.209-9.042,7.439-9.042,13.547c0,1.18,0.153,2.32,0.415,3.416H67.843
			c-6.297,0-11.402,5.105-11.402,11.403l0,0c0,6.297,5.105,11.402,11.402,11.402h14.996h42.369h40.509
			c6.379,0,11.551-5.172,11.551-11.552l0,0C177.268,131.797,173.319,127.146,168.068,126.061z"/>
		<path id="XMLID_1723_" fill="#E6E7E8" d="M168.066,126.061c0.253-1.08,0.401-2.201,0.401-3.358c0-8.101-6.567-14.668-14.67-14.668
			c-1.354,0-2.659,0.2-3.906,0.544c-1.207-6.813-7.105-12.002-14.244-12.09c-0.424,22.982-13.806,42.792-33.15,52.436h22.711h40.509
			c6.379,0,11.551-5.172,11.551-11.552l0,0C177.268,131.797,173.319,127.146,168.066,126.061z"/>
		<path id="XMLID_1722_" fill="#F1F1F2" d="M165.828,118.365c0.79,3.106-2.498,5.652-5.229,3.601
			c-0.774-0.582-1.313-1.511-1.752-2.41c-0.604-1.239-1.104-2.563-1.123-3.791c-0.052-3.586,2.963-3.201,5.509-1.178
			C164.424,115.536,165.459,116.915,165.828,118.365z"/>
		<path id="XMLID_1721_" fill="#F1F1F2" d="M64.596,128.355c3.063-0.943,5.771,2.211,3.857,5.044
			c-0.543,0.802-1.444,1.387-2.321,1.868c-1.207,0.665-2.504,1.232-3.731,1.312c-3.576,0.229-3.343-2.801-1.45-5.441
			C61.839,129.899,63.167,128.795,64.596,128.355z"/>
		<path id="XMLID_1720_" fill="#FFFFFF" d="M104.229,81.677c4.419-0.997,7.984,3.811,5.032,7.631
			c-0.837,1.083-2.163,1.814-3.446,2.402c-1.768,0.81-3.652,1.471-5.396,1.442c-5.088-0.08-4.499-4.373-1.589-7.924
			C100.192,83.564,102.169,82.141,104.229,81.677z"/>
	</g>
	<g id="XMLID_1665_" display="none">
		
			<linearGradient id="XMLID_63_" gradientUnits="userSpaceOnUse" x1="-2967.4941" y1="170.4902" x2="-2949.0752" y2="170.4902" gradientTransform="matrix(-1 0 0 1 -2801.6543 0)">
			<stop  offset="0.017" style="stop-color:#FFC635"/>
			<stop  offset="1" style="stop-color:#FAAF40"/>
		</linearGradient>
		<polygon id="XMLID_1710_" display="inline" fill="url(#XMLID_63_)" points="165.44,153.332 159.453,164.381 165.84,164.381 
			153.879,187.647 156.873,170.925 147.421,170.925 153.408,153.332 		"/>
		
			<linearGradient id="XMLID_64_" gradientUnits="userSpaceOnUse" x1="-2863.0527" y1="153.9971" x2="-2844.6353" y2="153.9971" gradientTransform="matrix(-1 0 0 1 -2801.6543 0)">
			<stop  offset="0.017" style="stop-color:#FFC635"/>
			<stop  offset="1" style="stop-color:#FAAF40"/>
		</linearGradient>
		<polygon id="XMLID_1709_" display="inline" fill="url(#XMLID_64_)" points="60.999,136.841 55.011,147.89 61.398,147.89 
			49.438,171.153 52.431,154.432 42.981,154.432 48.968,136.841 		"/>
		
			<linearGradient id="XMLID_65_" gradientUnits="userSpaceOnUse" x1="-2918.9492" y1="161.6563" x2="-2900.5293" y2="161.6563" gradientTransform="matrix(-1 0 0 1 -2801.6543 0)">
			<stop  offset="0.017" style="stop-color:#FFC635"/>
			<stop  offset="1" style="stop-color:#FAAF40"/>
		</linearGradient>
		<polygon id="XMLID_1708_" display="inline" fill="url(#XMLID_65_)" points="116.894,144.501 110.906,155.55 117.295,155.55 
			105.334,178.813 108.326,162.092 98.875,162.092 104.863,144.501 		"/>
		<path id="XMLID_1707_" display="inline" fill="#929497" d="M183.438,84.718c0-7.083-5.743-12.824-12.825-12.824
			c-2.414,0-4.661,0.676-6.59,1.833c0.019-0.302,0.046-0.602,0.046-0.907c0-8.99-7.287-16.277-16.277-16.277
			c-3.254,0-6.278,0.966-8.822,2.611c-4.057-8.027-12.374-13.534-21.981-13.534c-13.599,0-24.623,11.025-24.623,24.623
			c0,1.062,0.075,2.102,0.205,3.123c-4.289,1.124-7.886,3.938-10.026,7.704c-8.926,0.074-16.141,7.327-16.141,16.271
			c0,8.988,7.288,16.277,16.279,16.277c0.924,0,1.824-0.095,2.705-0.243c2.551,7.909,9.966,13.635,18.724,13.635
			c4.109,0,7.921-1.262,11.076-3.416c3.276,6.312,9.858,10.63,17.461,10.63c6.999,0,13.131-3.667,16.62-9.174
			c2.58,1.244,5.461,1.96,8.518,1.96c10.865,0,19.677-8.808,19.677-19.675c0-3.816-1.104-7.367-2.983-10.386
			C179.672,95.311,183.438,90.456,183.438,84.718z"/>
		<linearGradient id="XMLID_66_" gradientUnits="userSpaceOnUse" x1="66.4028" y1="103.0586" x2="183.4375" y2="103.0586">
			<stop  offset="0.5257" style="stop-color:#929497"/>
			<stop  offset="1" style="stop-color:#808184"/>
		</linearGradient>
		<path id="XMLID_1701_" display="inline" fill="url(#XMLID_66_)" d="M183.438,84.718c0-7.083-5.743-12.824-12.825-12.824
			c-2.337,0-4.519,0.639-6.404,1.731c-7.857,18.617-26.281,31.686-47.756,31.686c-17.451,0-32.885-8.627-42.272-21.849
			c-4.665,2.861-7.777,8.006-7.777,13.879c0,8.988,7.288,16.277,16.279,16.277c0.924,0,1.824-0.095,2.705-0.243
			c2.551,7.909,9.966,13.635,18.724,13.635c4.109,0,7.921-1.262,11.076-3.416c3.276,6.312,9.858,10.63,17.461,10.63
			c6.999,0,13.131-3.667,16.62-9.174c2.58,1.244,5.461,1.96,8.518,1.96c10.865,0,19.677-8.808,19.677-19.675
			c0-3.816-1.104-7.367-2.983-10.386C179.672,95.311,183.438,90.456,183.438,84.718z"/>
		<linearGradient id="XMLID_67_" gradientUnits="userSpaceOnUse" x1="66.4028" y1="103.6533" x2="146.0121" y2="103.6533">
			<stop  offset="0" style="stop-color:#FFFFFF"/>
			<stop  offset="1" style="stop-color:#D0D2D3"/>
		</linearGradient>
		<path id="XMLID_1700_" display="inline" opacity="0.53" fill="url(#XMLID_67_)" d="M164.395,108.252
			c-1.377,0-2.705,0.204-3.973,0.552c-1.241-6.99-7.333-12.305-14.681-12.305c-0.218,0-0.434,0.025-0.649,0.034
			c-2.515-10.713-12.124-18.688-23.602-18.688c-3.245,0-6.337,0.639-9.162,1.796c-3.656-4.028-8.931-6.559-14.797-6.559
			c-3.79,0-7.32,1.077-10.339,2.91c-0.006-0.024-0.013-0.049-0.019-0.074c-1.887,1.361-3.472,3.114-4.629,5.151
			c-8.926,0.074-16.141,7.327-16.141,16.271c0,8.988,7.288,16.277,16.279,16.277c0.924,0,1.824-0.095,2.705-0.243
			c2.551,7.909,9.966,13.635,18.724,13.635c4.109,0,7.921-1.262,11.076-3.416c3.276,6.312,9.858,10.63,17.461,10.63
			c6.999,0,13.131-3.667,16.62-9.174c2.58,1.244,5.461,1.96,8.518,1.96c8.481,0,15.708-5.364,18.474-12.888
			C173.531,110.555,169.235,108.252,164.395,108.252z"/>
		<radialGradient id="XMLID_68_" cx="47.7842" cy="93.2798" r="74.3982" gradientUnits="userSpaceOnUse">
			<stop  offset="0" style="stop-color:#E6E7E8"/>
			<stop  offset="1" style="stop-color:#929497"/>
		</radialGradient>
		<path id="XMLID_1699_" display="inline" fill="url(#XMLID_68_)" d="M35.519,88.324c0.058,0,0.114,0.008,0.171,0.008
			c-0.11-0.944-0.171-1.904-0.171-2.876c0-13.725,11.127-24.854,24.852-24.854c11.9,0,21.841,8.367,24.277,19.536
			c3.02-1.833,6.55-2.91,10.34-2.91c11.031,0,19.972,8.941,19.972,19.971c0,0.396-0.037,0.781-0.061,1.173
			c0.956-0.182,1.936-0.285,2.944-0.285c8.701,0,15.754,7.053,15.754,15.754s-7.053,15.754-15.754,15.754
			c-2.214,0-4.32-0.46-6.232-1.286c-3.58,3.403-8.411,5.502-13.74,5.502c-0.656,0-1.3-0.037-1.939-0.099
			c-3.663,4.267-9.083,6.978-15.147,6.978c-4.931,0-9.437-1.795-12.919-4.758c-3.404,2.693-7.697,4.314-12.376,4.314
			c-8.22,0-15.274-4.969-18.337-12.063c-0.54,0.042-1.082,0.082-1.634,0.082c-11.029,0-19.972-8.94-19.972-19.971
			S24.489,88.324,35.519,88.324z"/>
		<path id="XMLID_1698_" display="inline" fill="#E6E7E8" d="M83.389,76.083c-3.7-9.08-12.61-15.481-23.019-15.481
			c-13.725,0-24.852,11.129-24.852,24.854c0,0.972,0.061,1.932,0.171,2.876c-0.057,0-0.113-0.008-0.171-0.008
			c-11.029,0-19.97,8.941-19.97,19.971s8.941,19.971,19.97,19.971c0.032,0,0.064-0.003,0.095-0.003
			C61.035,123.34,80.683,102.228,83.389,76.083z"/>
		<linearGradient id="XMLID_69_" gradientUnits="userSpaceOnUse" x1="56.1743" y1="110.2559" x2="112.2807" y2="110.2559">
			<stop  offset="0" style="stop-color:#FFFFFF"/>
			<stop  offset="1" style="stop-color:#D0D2D3"/>
		</linearGradient>
		<path id="XMLID_1697_" display="inline" opacity="0.44" fill="url(#XMLID_69_)" d="M133.598,113.842
			c0-8.701-7.053-15.754-15.754-15.754c-1.009,0-1.988,0.103-2.944,0.285c0.023-0.393,0.061-0.778,0.061-1.173
			c0-7.453-4.086-13.947-10.138-17.379c-9.724,3.157-16.754,12.29-16.754,23.064c0,2.544,0.395,4.996,1.119,7.3
			c-5.401,2.243-9.201,7.565-9.201,13.783c0,1.195,0.157,2.356,0.422,3.474H67.774c-6.407,0-11.6,5.194-11.6,11.603l0,0
			c0,0.399,0.019,0.797,0.059,1.188c4.388-0.165,8.408-1.747,11.632-4.3c3.483,2.963,7.989,4.758,12.919,4.758
			c6.064,0,11.484-2.711,15.147-6.978c0.639,0.062,1.284,0.099,1.939,0.099c5.329,0,10.16-2.099,13.74-5.502
			c1.912,0.826,4.019,1.286,6.232,1.286C126.545,129.596,133.598,122.543,133.598,113.842z"/>
		<linearGradient id="XMLID_70_" gradientUnits="userSpaceOnUse" x1="62.7974" y1="117.9922" x2="151.8833" y2="117.9922">
			<stop  offset="0" style="stop-color:#D0D2D3"/>
			<stop  offset="1" style="stop-color:#FFFFFF"/>
		</linearGradient>
		<path id="XMLID_1696_" display="inline" fill="url(#XMLID_70_)" d="M176.37,130.736c0.256-1.101,0.408-2.238,0.408-3.415
			c0-8.241-6.683-14.925-14.926-14.925c-1.381,0-2.707,0.202-3.976,0.552c-1.24-6.99-7.333-12.305-14.679-12.305
			c-0.22,0-0.433,0.021-0.65,0.031c-2.515-10.71-12.126-18.688-23.604-18.688c-13.393,0-24.251,10.858-24.251,24.252
			c0,2.542,0.394,4.995,1.119,7.299c-5.4,2.245-9.201,7.567-9.201,13.783c0,1.197,0.156,2.358,0.424,3.476H74.399
			c-6.407,0-11.602,5.194-11.602,11.599v0.003c0,6.408,5.195,11.599,11.602,11.599h15.257h43.108h41.214
			c6.49,0,11.752-5.264,11.752-11.754l0,0C185.73,136.573,181.714,131.839,176.37,130.736z"/>
		<path id="XMLID_1695_" display="inline" fill="#E6E7E8" d="M176.37,130.736c0.256-1.101,0.408-2.238,0.408-3.415
			c0-8.241-6.683-14.925-14.926-14.925c-1.381,0-2.707,0.202-3.976,0.552c-1.228-6.932-7.229-12.212-14.492-12.301
			c-0.433,23.381-14.049,43.537-33.728,53.35h23.107h41.214c6.49,0,11.752-5.264,11.752-11.754l0,0
			C185.73,136.573,181.714,131.839,176.37,130.736z"/>
		<path id="XMLID_1694_" display="inline" fill="#F1F1F2" d="M174.09,122.905c0.804,3.161-2.538,5.753-5.318,3.663
			c-0.789-0.594-1.335-1.537-1.784-2.45c-0.613-1.262-1.124-2.608-1.141-3.857c-0.051-3.648,3.015-3.258,5.603-1.199
			C172.663,120.026,173.717,121.433,174.09,122.905z"/>
		<path id="XMLID_1693_" display="inline" fill="#F1F1F2" d="M71.095,133.071c3.116-0.959,5.871,2.249,3.924,5.128
			c-0.553,0.82-1.469,1.414-2.361,1.906c-1.229,0.676-2.547,1.253-3.795,1.332c-3.641,0.232-3.401-2.848-1.476-5.534
			C68.29,134.641,69.642,133.519,71.095,133.071z"/>
		<path id="XMLID_1692_" display="inline" fill="#D0D2D3" d="M24.704,94.888c3.115-0.96,5.871,2.25,3.924,5.129
			c-0.551,0.818-1.469,1.414-2.359,1.904c-1.23,0.676-2.549,1.253-3.797,1.334c-3.641,0.232-3.402-2.849-1.475-5.537
			C21.898,96.458,23.25,95.335,24.704,94.888z"/>
		<path id="XMLID_1691_" display="inline" fill="#A6A8AB" d="M103.926,52.226c3.114-0.963,5.869,2.25,3.924,5.129
			c-0.553,0.818-1.469,1.411-2.36,1.901c-1.229,0.679-2.549,1.253-3.797,1.333c-3.64,0.235-3.401-2.846-1.475-5.534
			C101.119,53.797,102.471,52.673,103.926,52.226z"/>
		<path id="XMLID_1690_" display="inline" fill="#FFFFFF" d="M111.419,85.58c4.496-1.016,8.125,3.876,5.121,7.762
			c-0.854,1.102-2.201,1.845-3.507,2.444c-1.797,0.824-3.716,1.497-5.491,1.469c-5.179-0.083-4.576-4.45-1.617-8.064
			C107.312,87.5,109.322,86.052,111.419,85.58z"/>
		<path id="XMLID_1689_" display="inline" fill="#D0D2D3" d="M50.232,66.123c4.497-1.015,8.125,3.877,5.122,7.763
			c-0.852,1.102-2.201,1.846-3.506,2.444c-1.799,0.824-3.719,1.497-5.492,1.469c-5.177-0.083-4.575-4.45-1.617-8.064
			C46.124,68.043,48.134,66.596,50.232,66.123z"/>
		<path id="XMLID_1688_" display="inline" fill="#A6A8AB" d="M154.595,61.025c3.645,2.821,2.185,8.734-2.724,8.895
			c-1.392,0.043-2.825-0.522-4.117-1.148c-1.781-0.861-3.521-1.914-4.629-3.299c-3.234-4.043,0.515-6.361,5.187-6.382
			C150.498,59.081,152.894,59.71,154.595,61.025z"/>
		<g id="XMLID_1678_" display="inline">
			<g id="XMLID_1685_">
				
					<radialGradient id="XMLID_71_" cx="90.3818" cy="191.1123" r="5.1068" gradientTransform="matrix(1 0 0 1.376 -11.6606 -99.7461)" gradientUnits="userSpaceOnUse">
					<stop  offset="0.0428" style="stop-color:#A7DFF8"/>
					<stop  offset="0.6495" style="stop-color:#75D0F6"/>
					<stop  offset="1" style="stop-color:#26A7DF"/>
				</radialGradient>
				<path id="XMLID_1687_" fill="url(#XMLID_71_)" d="M79.922,156.746c-0.187-0.32-0.649-0.32-0.834,0
					c-1.554,2.703-6.562,12.269,0.417,12.269C86.484,169.015,81.476,159.449,79.922,156.746z"/>
				<path id="XMLID_1686_" fill="#F1F1F2" d="M76.538,166.483c0.015-0.842,1.026-1.262,1.579-0.549
					c0.156,0.201,0.228,0.476,0.277,0.734c0.067,0.354,0.104,0.729,0.022,1.04c-0.236,0.914-0.976,0.607-1.481-0.083
					C76.696,167.301,76.53,166.879,76.538,166.483z"/>
			</g>
			<g id="XMLID_1682_">
				
					<radialGradient id="XMLID_72_" cx="103.5293" cy="84.3613" r="5.107" gradientTransform="matrix(1 0 0 1.376 20.4355 52.2874)" gradientUnits="userSpaceOnUse">
					<stop  offset="0.0428" style="stop-color:#A7DFF8"/>
					<stop  offset="0.6495" style="stop-color:#75D0F6"/>
					<stop  offset="1" style="stop-color:#26A7DF"/>
				</radialGradient>
				<path id="XMLID_1684_" fill="url(#XMLID_72_)" d="M125.166,161.897c-0.186-0.322-0.648-0.322-0.833,0
					c-1.556,2.703-6.564,12.267,0.415,12.267S126.721,164.601,125.166,161.897z"/>
				<path id="XMLID_1683_" fill="#F1F1F2" d="M121.781,171.636c0.015-0.845,1.029-1.263,1.581-0.55
					c0.155,0.199,0.229,0.475,0.276,0.734c0.067,0.355,0.103,0.729,0.02,1.04c-0.234,0.916-0.974,0.606-1.478-0.084
					C121.942,172.452,121.776,172.029,121.781,171.636z"/>
			</g>
			<g id="XMLID_1679_">
				
					<radialGradient id="XMLID_73_" cx="128.4668" cy="162.8682" r="5.1068" gradientTransform="matrix(1 0 0 1.376 -32.2793 -42.2505)" gradientUnits="userSpaceOnUse">
					<stop  offset="0.0428" style="stop-color:#A7DFF8"/>
					<stop  offset="0.6495" style="stop-color:#75D0F6"/>
					<stop  offset="1" style="stop-color:#26A7DF"/>
				</radialGradient>
				<path id="XMLID_1681_" fill="url(#XMLID_73_)" d="M97.389,175.381c-0.185-0.32-0.649-0.32-0.836,0
					c-1.553,2.701-6.562,12.267,0.418,12.267S98.941,178.082,97.389,175.381z"/>
				<path id="XMLID_1680_" fill="#F1F1F2" d="M94.003,185.118c0.015-0.841,1.028-1.262,1.58-0.553
					c0.156,0.205,0.228,0.476,0.278,0.736c0.066,0.356,0.102,0.729,0.022,1.042c-0.236,0.915-0.976,0.609-1.482-0.083
					C94.164,185.937,93.997,185.514,94.003,185.118z"/>
			</g>
		</g>
	</g>
	<g id="XMLID_1470_" display="none">
		<g id="XMLID_1557_" display="inline">
			<radialGradient id="XMLID_74_" cx="46.3652" cy="92.8711" r="77.4208" gradientUnits="userSpaceOnUse">
				<stop  offset="0" style="stop-color:#E6E7E8"/>
				<stop  offset="1" style="stop-color:#929497"/>
			</radialGradient>
			<path id="XMLID_1577_" fill="url(#XMLID_74_)" d="M33.6,87.713c0.061,0,0.119,0.009,0.178,0.009
				C33.666,86.74,33.6,85.741,33.6,84.73c0-14.286,11.579-25.864,25.861-25.864c12.385,0,22.729,8.707,25.264,20.33
				c3.141-1.911,6.815-3.028,10.759-3.028c11.478,0,20.784,9.304,20.784,20.782c0,0.411-0.039,0.813-0.063,1.221
				c0.994-0.189,2.017-0.298,3.063-0.298c9.055,0,16.396,7.342,16.396,16.396c0,9.053-7.342,16.395-16.396,16.395
				c-2.304,0-4.496-0.481-6.483-1.339c-3.727,3.538-8.754,5.726-14.298,5.726c-0.681,0-1.354-0.039-2.019-0.103
				c-3.813,4.438-9.454,7.261-15.762,7.261c-5.132,0-9.821-1.867-13.447-4.952c-3.542,2.805-8.01,4.491-12.877,4.491
				c-8.555,0-15.895-5.172-19.084-12.555c-0.56,0.044-1.125,0.086-1.698,0.086c-11.477,0-20.782-9.307-20.782-20.782
				C12.818,97.018,22.123,87.713,33.6,87.713z"/>
			<path id="XMLID_1576_" fill="#E6E7E8" d="M83.416,74.976c-3.849-9.448-13.121-16.109-23.955-16.109
				C45.179,58.866,33.6,70.444,33.6,84.73c0,1.011,0.065,2.01,0.178,2.993c-0.059,0-0.117-0.009-0.178-0.009
				c-11.477,0-20.782,9.304-20.782,20.783c0,11.476,9.305,20.782,20.782,20.782c0.033,0,0.065-0.003,0.099-0.003
				C60.154,124.152,80.599,102.182,83.416,74.976z"/>
			<path id="XMLID_1575_" fill="#D0D2D3" d="M22.346,94.545c3.242-0.999,6.11,2.341,4.083,5.337
				c-0.575,0.852-1.529,1.468-2.455,1.978c-1.28,0.707-2.653,1.308-3.952,1.389c-3.787,0.243-3.539-2.962-1.535-5.759
				C19.427,96.179,20.835,95.01,22.346,94.545z"/>
			<path id="XMLID_1574_" fill="#D0D2D3" d="M48.911,64.609c4.68-1.054,8.457,4.037,5.33,8.081c-0.888,1.146-2.292,1.92-3.65,2.543
				c-1.871,0.857-3.867,1.557-5.713,1.528c-5.388-0.086-4.763-4.631-1.683-8.392C44.637,66.609,46.73,65.103,48.911,64.609z"/>
			<linearGradient id="XMLID_75_" gradientUnits="userSpaceOnUse" x1="55.0938" y1="110.5371" x2="113.4813" y2="110.5371">
				<stop  offset="0" style="stop-color:#FFFFFF"/>
				<stop  offset="1" style="stop-color:#D0D2D3"/>
			</linearGradient>
			<path id="XMLID_1573_" fill="url(#XMLID_75_)" d="M135.665,114.269c0-9.055-7.342-16.396-16.396-16.396
				c-1.047,0-2.069,0.109-3.063,0.298c0.023-0.408,0.063-0.81,0.063-1.221c0-7.756-4.251-14.513-10.548-18.084
				c-10.117,3.286-17.435,12.786-17.435,24.001c0,2.646,0.41,5.195,1.165,7.595c-5.62,2.335-9.576,7.875-9.576,14.344
				c0,1.247,0.162,2.454,0.44,3.617H67.167c-6.668,0-12.073,5.404-12.073,12.072l0,0c0,0.418,0.022,0.828,0.063,1.236
				c4.567-0.17,8.75-1.82,12.104-4.475c3.625,3.085,8.315,4.952,13.447,4.952c6.308,0,11.949-2.822,15.762-7.261
				c0.665,0.063,1.337,0.103,2.019,0.103c5.544,0,10.572-2.188,14.298-5.726c1.987,0.857,4.18,1.339,6.483,1.339
				C128.323,130.663,135.665,123.321,135.665,114.269z"/>
			<linearGradient id="XMLID_76_" gradientUnits="userSpaceOnUse" x1="61.9878" y1="118.5869" x2="154.6928" y2="118.5869">
				<stop  offset="0" style="stop-color:#D0D2D3"/>
				<stop  offset="1" style="stop-color:#FFFFFF"/>
			</linearGradient>
			<path id="XMLID_1572_" fill="url(#XMLID_76_)" d="M180.172,131.849c0.27-1.144,0.425-2.328,0.425-3.556
				c0-8.576-6.953-15.528-15.53-15.528c-1.434,0-2.818,0.209-4.137,0.575c-1.291-7.277-7.632-12.806-15.276-12.806
				c-0.229,0-0.45,0.022-0.676,0.032c-2.618-11.145-12.618-19.447-24.563-19.447c-13.937,0-25.236,11.299-25.236,25.237
				c0,2.646,0.41,5.198,1.164,7.594c-5.62,2.339-9.575,7.878-9.575,14.343c0,1.249,0.164,2.456,0.441,3.615H74.06
				c-6.666,0-12.072,5.406-12.072,12.073l0,0c0,6.668,5.407,12.072,12.072,12.072h15.877h44.857h42.89
				c6.755,0,12.23-5.476,12.23-12.23l0,0C189.915,137.921,185.735,132.998,180.172,131.849z"/>
			<path id="XMLID_1571_" fill="#E6E7E8" d="M180.172,131.849c0.27-1.144,0.425-2.328,0.425-3.556
				c0-8.576-6.953-15.528-15.53-15.528c-1.434,0-2.818,0.209-4.137,0.575c-1.28-7.214-7.523-12.709-15.082-12.802
				c-0.448,24.331-14.618,45.306-35.099,55.516h24.046h42.89c6.755,0,12.23-5.476,12.23-12.23l0,0
				C189.915,137.921,185.735,132.998,180.172,131.849z"/>
			<path id="XMLID_1570_" fill="#F1F1F2" d="M177.802,123.7c0.836,3.289-2.643,5.987-5.534,3.813
				c-0.822-0.617-1.394-1.602-1.855-2.552c-0.641-1.313-1.17-2.714-1.19-4.015c-0.053-3.796,3.138-3.388,5.832-1.245
				C176.315,120.704,177.412,122.167,177.802,123.7z"/>
			<path id="XMLID_1569_" fill="#F1F1F2" d="M70.622,134.28c3.243-1,6.109,2.341,4.083,5.337c-0.574,0.852-1.529,1.469-2.455,1.978
				c-1.28,0.707-2.653,1.308-3.953,1.389c-3.788,0.243-3.541-2.962-1.535-5.758C67.703,135.914,69.109,134.745,70.622,134.28z"/>
			<path id="XMLID_1568_" fill="#FFFFFF" d="M112.582,84.858c4.68-1.057,8.458,4.034,5.331,8.078
				c-0.888,1.146-2.291,1.92-3.647,2.544c-1.874,0.857-3.87,1.558-5.716,1.528c-5.387-0.087-4.762-4.631-1.684-8.392
				C108.31,86.855,110.403,85.349,112.582,84.858z"/>
		</g>
		<g id="XMLID_1471_" display="inline">
			<radialGradient id="XMLID_77_" cx="69.5811" cy="170.7568" r="6.3884" gradientUnits="userSpaceOnUse">
				<stop  offset="0.0428" style="stop-color:#A7DFF8"/>
				<stop  offset="0.6495" style="stop-color:#75D0F6"/>
				<stop  offset="1" style="stop-color:#26A7DF"/>
			</radialGradient>
			<path id="XMLID_1500_" fill="url(#XMLID_77_)" d="M75.759,173.031l-0.692-1.083c-0.04-0.063-0.12-0.086-0.188-0.057l-0.926,0.406
				l-0.954-0.367l1.132-0.502c0.075-0.031,0.11-0.121,0.077-0.2c-0.033-0.073-0.122-0.107-0.199-0.076l-1.408,0.624l-0.384-0.148
				l0.22-0.567c0.029-0.079-0.01-0.165-0.087-0.196c-0.077-0.029-0.166,0.009-0.196,0.086l-0.22,0.568l-0.387-0.15l-0.26-1.757
				l0.321-0.254l0.377,0.478c0.034,0.042,0.088,0.063,0.14,0.055c0.025-0.003,0.051-0.013,0.072-0.03
				c0.066-0.052,0.077-0.148,0.024-0.213l-0.377-0.477l0.344-0.272l1.492,0.174c0.013,0,0.027,0,0.041,0
				c0.066-0.013,0.12-0.064,0.126-0.136c0.01-0.08-0.048-0.157-0.132-0.166l-1.191-0.138l0.781-0.617l1.005,0.115
				c0,0,0.028,0,0.039,0c0.06-0.009,0.109-0.051,0.125-0.107l0.34-1.24c0.013-0.05,0.001-0.097-0.027-0.136
				c-0.03-0.034-0.075-0.059-0.124-0.059l-1.285,0.05c-0.074,0.002-0.135,0.061-0.145,0.134l-0.116,1.005l-0.803,0.636l0.143-1.229
				c0.01-0.085-0.05-0.158-0.131-0.167c-0.085-0.011-0.159,0.048-0.169,0.132l-0.177,1.527l-0.324,0.258l-0.377-0.479
				c-0.051-0.064-0.146-0.073-0.212-0.021c-0.066,0.051-0.076,0.145-0.024,0.212l0.377,0.475l-0.313,0.251l-1.67-0.661l-0.061-0.412
				l0.602-0.09c0.082-0.013,0.14-0.09,0.127-0.17c-0.013-0.083-0.088-0.142-0.17-0.129l-0.604,0.088l-0.063-0.434l0.895-1.205
				c0.05-0.068,0.037-0.161-0.03-0.213c-0.066-0.047-0.163-0.034-0.211,0.033l-0.716,0.963l-0.146-0.984l0.604-0.813
				c0.045-0.061,0.039-0.145-0.013-0.196l-0.902-0.915c-0.033-0.035-0.082-0.048-0.13-0.043c-0.048,0.008-0.088,0.037-0.111,0.077
				l-0.601,1.138c-0.035,0.063-0.016,0.148,0.043,0.194l0.811,0.599l0.149,1.017l-0.992-0.74c-0.067-0.052-0.162-0.035-0.212,0.033
				c-0.048,0.063-0.035,0.159,0.032,0.209l1.235,0.917l0.06,0.408l-0.601,0.09c-0.083,0.013-0.14,0.088-0.128,0.171
				c0.013,0.084,0.09,0.141,0.171,0.128l0.602-0.09l0.062,0.412l-1.429,1.134l-0.373-0.145l0.219-0.57
				c0.032-0.076-0.008-0.163-0.085-0.195c-0.077-0.027-0.165,0.011-0.196,0.088l-0.218,0.567l-0.386-0.148l-0.623-1.408
				c-0.034-0.077-0.122-0.109-0.197-0.077c-0.078,0.035-0.111,0.121-0.078,0.198l0.501,1.134l-0.955-0.368l-0.41-0.929
				c-0.029-0.067-0.106-0.103-0.177-0.084l-1.241,0.335c-0.046,0.013-0.083,0.048-0.101,0.092c-0.018,0.042-0.013,0.093,0.013,0.135
				l0.694,1.083c0.032,0.051,0.091,0.076,0.147,0.067c0.013-0.004,0.026-0.007,0.041-0.009l0.925-0.412l0.93,0.36l-1.098,0.483
				c-0.076,0.037-0.109,0.123-0.078,0.2c0.03,0.063,0.095,0.099,0.161,0.09c0.013-0.004,0.025-0.006,0.038-0.014l1.375-0.605
				l0.408,0.157l-0.219,0.567c-0.03,0.081,0.008,0.167,0.085,0.196c0.026,0.009,0.052,0.013,0.077,0.009
				c0.053-0.009,0.098-0.04,0.119-0.095l0.22-0.569l0.403,0.157l0.257,1.743l-0.332,0.262l-0.379-0.476
				c-0.052-0.064-0.146-0.077-0.212-0.025c-0.066,0.051-0.076,0.148-0.024,0.212l0.377,0.479l-0.323,0.254l-1.53-0.178
				c-0.082-0.009-0.157,0.052-0.167,0.132c-0.008,0.085,0.051,0.158,0.133,0.167l1.23,0.145l-0.803,0.636l-1.005-0.119
				c-0.074-0.006-0.143,0.038-0.162,0.113l-0.342,1.236c-0.011,0.048-0.001,0.098,0.029,0.136c0.029,0.038,0.076,0.057,0.124,0.057
				l1.284-0.048h0.011c0.074-0.013,0.125-0.063,0.133-0.135l0.117-1.006l0.781-0.615l-0.138,1.19
				c-0.01,0.084,0.05,0.157,0.132,0.167c0.015,0.003,0.029,0,0.04,0c0.065-0.01,0.121-0.064,0.128-0.131l0.173-1.494l0.344-0.272
				l0.377,0.478c0.035,0.046,0.09,0.064,0.141,0.055c0.024-0.003,0.05-0.013,0.071-0.029c0.066-0.051,0.077-0.146,0.026-0.21
				l-0.379-0.48l0.339-0.266l1.656,0.656l0.061,0.41l-0.604,0.09c-0.082,0.013-0.138,0.086-0.125,0.17
				c0.011,0.084,0.088,0.142,0.17,0.128l0.602-0.089l0.06,0.408l-0.918,1.236c-0.048,0.067-0.036,0.161,0.032,0.212
				c0.034,0.022,0.074,0.031,0.112,0.025c0.037-0.003,0.074-0.025,0.098-0.059l0.739-0.992l0.149,1.013l-0.604,0.812
				c-0.045,0.059-0.039,0.143,0.015,0.196l0.902,0.915c0.034,0.033,0.082,0.048,0.13,0.042c0.047-0.007,0.088-0.034,0.111-0.08
				l0.601-1.134c0.033-0.067,0.016-0.148-0.044-0.192l-0.813-0.604l-0.144-0.985l0.963,0.717c0.032,0.025,0.072,0.034,0.11,0.029
				c0.039-0.008,0.074-0.026,0.1-0.063c0.049-0.064,0.035-0.159-0.031-0.209l-1.206-0.896l-0.064-0.436l0.602-0.088
				c0.082-0.014,0.14-0.09,0.127-0.175c-0.012-0.078-0.088-0.137-0.172-0.124l-0.601,0.086l-0.061-0.41l1.405-1.111l0.387,0.151
				l-0.22,0.564c-0.03,0.08,0.008,0.167,0.085,0.196c0.025,0.009,0.051,0.013,0.077,0.009c0.051-0.009,0.1-0.04,0.119-0.096
				l0.22-0.565l0.409,0.157l0.607,1.376c0.029,0.06,0.095,0.095,0.159,0.086c0.015-0.004,0.027-0.006,0.04-0.01
				c0.076-0.034,0.111-0.126,0.077-0.199l-0.485-1.099l0.93,0.36l0.408,0.925c0.027,0.061,0.095,0.099,0.161,0.086h0.012
				l1.246-0.337c0.047-0.013,0.085-0.046,0.103-0.09C75.79,173.121,75.785,173.069,75.759,173.031z M73.52,166.936l0.949-0.034
				l-0.252,0.914l-0.789-0.094L73.52,166.936z M68.678,164.592l0.666,0.674l-0.473,0.64l-0.638-0.477L68.678,164.592z
				 M64.279,169.318l-0.511-0.8l0.917-0.247l0.32,0.727L64.279,169.318z M65.645,174.605l-0.951,0.035l0.254-0.919l0.788,0.093
				L65.645,174.605z M70.495,176.925l-0.668-0.678l0.474-0.638l0.637,0.473L70.495,176.925z M71.223,171.241l-1.341-0.516
				l1.132-0.899L71.223,171.241z M70.834,169.586l-1.137,0.899l-0.21-1.435L70.834,169.586z M69.19,169.097l0.212,1.441
				l-1.367-0.529L69.19,169.097z M67.953,170.302l1.327,0.513l-1.121,0.887L67.953,170.302z M68.353,171.934l1.123-0.888
				l0.209,1.417L68.353,171.934z M69.983,172.417l-0.208-1.412l1.338,0.521L69.983,172.417z M74.477,173.266l-0.32-0.726l0.726-0.32
				l0.513,0.799L74.477,173.266z"/>
			<radialGradient id="XMLID_78_" cx="130.7842" cy="172.0332" r="8.8279" gradientUnits="userSpaceOnUse">
				<stop  offset="0.0428" style="stop-color:#A7DFF8"/>
				<stop  offset="0.6495" style="stop-color:#75D0F6"/>
				<stop  offset="1" style="stop-color:#26A7DF"/>
			</radialGradient>
			<path id="XMLID_1486_" fill="url(#XMLID_78_)" d="M139.32,175.174l-0.955-1.496c-0.058-0.088-0.167-0.119-0.261-0.077
				l-1.278,0.563l-1.32-0.511l1.566-0.69c0.105-0.048,0.151-0.17,0.105-0.274c-0.047-0.106-0.17-0.155-0.274-0.106l-1.946,0.861
				l-0.531-0.207l0.306-0.786c0.038-0.106-0.013-0.229-0.121-0.27c-0.108-0.042-0.229,0.014-0.271,0.121l-0.303,0.784l-0.536-0.209
				l-0.359-2.429l0.441-0.35l0.523,0.659c0.05,0.061,0.123,0.086,0.194,0.077c0.035-0.007,0.068-0.021,0.099-0.042
				c0.09-0.073,0.106-0.203,0.033-0.295l-0.521-0.659l0.476-0.376l2.063,0.238c0.017,0.002,0.035,0.002,0.055,0
				c0.09-0.013,0.165-0.088,0.176-0.183c0.013-0.114-0.069-0.217-0.183-0.232l-1.648-0.189l1.08-0.854l1.389,0.16
				c0.019,0,0.036,0,0.055,0c0.081-0.014,0.148-0.07,0.171-0.15l0.472-1.716c0.017-0.061,0.002-0.132-0.038-0.184
				c-0.04-0.051-0.104-0.079-0.17-0.079l-1.775,0.066c-0.103,0.004-0.188,0.084-0.199,0.183l-0.163,1.393l-1.108,0.875l0.198-1.697
				c0.013-0.114-0.067-0.22-0.184-0.232c-0.115-0.014-0.218,0.071-0.23,0.183l-0.247,2.113l-0.445,0.354l-0.521-0.657
				c-0.071-0.09-0.201-0.106-0.293-0.037c-0.09,0.075-0.104,0.204-0.035,0.297l0.522,0.657l-0.433,0.345l-2.308-0.916l-0.084-0.567
				l0.831-0.123c0.113-0.017,0.192-0.122,0.178-0.237c-0.019-0.112-0.124-0.192-0.238-0.176l-0.831,0.124l-0.09-0.601l1.238-1.667
				c0.067-0.093,0.051-0.222-0.042-0.291c-0.092-0.067-0.224-0.049-0.292,0.044l-0.988,1.33l-0.203-1.361l0.835-1.124
				c0.063-0.081,0.053-0.196-0.019-0.27l-1.247-1.264c-0.048-0.048-0.113-0.069-0.18-0.061c-0.065,0.01-0.121,0.052-0.153,0.11
				l-0.83,1.569c-0.05,0.09-0.023,0.203,0.061,0.264l1.122,0.835l0.206,1.397l-1.372-1.019c-0.094-0.071-0.224-0.051-0.293,0.043
				c-0.069,0.093-0.05,0.223,0.044,0.291l1.709,1.269l0.08,0.566l-0.831,0.121c-0.114,0.016-0.192,0.122-0.176,0.234
				c0.016,0.115,0.122,0.192,0.236,0.178l0.833-0.123l0.082,0.567l-1.973,1.564l-0.518-0.198l0.306-0.783
				c0.042-0.11-0.013-0.229-0.119-0.27c-0.108-0.042-0.229,0.009-0.27,0.117l-0.306,0.784l-0.529-0.205l-0.86-1.947
				c-0.048-0.104-0.171-0.15-0.275-0.104c-0.104,0.044-0.153,0.169-0.107,0.274l0.694,1.564l-1.321-0.509l-0.565-1.278
				c-0.04-0.098-0.146-0.145-0.245-0.119l-1.713,0.461c-0.063,0.017-0.117,0.064-0.141,0.127c-0.025,0.063-0.017,0.132,0.019,0.188
				l0.957,1.496c0.044,0.068,0.125,0.103,0.205,0.094c0.019-0.004,0.037-0.01,0.056-0.017l1.278-0.564l1.283,0.498l-1.517,0.671
				c-0.105,0.046-0.153,0.166-0.105,0.272c0.038,0.086,0.13,0.136,0.222,0.123c0.017-0.004,0.036-0.008,0.053-0.017l1.897-0.839
				l0.565,0.22l-0.302,0.782c-0.042,0.109,0.011,0.229,0.119,0.271c0.034,0.017,0.069,0.019,0.106,0.014
				c0.071-0.012,0.134-0.059,0.163-0.132l0.304-0.784l0.557,0.214l0.355,2.41l-0.462,0.363l-0.521-0.66
				c-0.07-0.089-0.2-0.105-0.291-0.034c-0.092,0.071-0.106,0.203-0.035,0.293l0.521,0.661l-0.446,0.354l-2.113-0.247
				c-0.114-0.013-0.219,0.069-0.233,0.183c-0.013,0.115,0.072,0.218,0.186,0.23l1.699,0.2l-1.107,0.875l-1.391-0.159
				c-0.103-0.013-0.197,0.052-0.224,0.15l-0.472,1.712c-0.019,0.064-0.004,0.136,0.038,0.188c0.042,0.051,0.104,0.078,0.17,0.076
				l1.775-0.063c0,0,0.015,0,0.023-0.004c0.092-0.013,0.163-0.086,0.174-0.183l0.163-1.389l1.079-0.854l-0.19,1.648
				c-0.014,0.111,0.069,0.214,0.183,0.23c0.019,0,0.037,0,0.055-0.004c0.092-0.013,0.165-0.086,0.176-0.179l0.24-2.063l0.475-0.375
				l0.523,0.657c0.048,0.063,0.123,0.088,0.192,0.077c0.037-0.006,0.071-0.019,0.101-0.041c0.09-0.075,0.104-0.207,0.033-0.296
				l-0.522-0.658l0.468-0.37l2.287,0.907l0.082,0.567l-0.831,0.123c-0.113,0.015-0.192,0.121-0.174,0.236
				c0.015,0.113,0.121,0.193,0.236,0.178l0.833-0.127l0.081,0.566l-1.268,1.708c-0.069,0.09-0.05,0.222,0.042,0.29
				c0.046,0.034,0.103,0.047,0.155,0.042c0.052-0.011,0.103-0.039,0.136-0.084l1.022-1.372l0.205,1.397l-0.834,1.124
				c-0.061,0.081-0.055,0.196,0.019,0.27l1.247,1.266c0.046,0.046,0.112,0.067,0.18,0.059c0.064-0.011,0.123-0.05,0.152-0.11
				l0.831-1.569c0.048-0.092,0.022-0.203-0.061-0.264l-1.122-0.835l-0.2-1.362l1.332,0.988c0.045,0.037,0.101,0.05,0.153,0.039
				c0.053-0.006,0.103-0.035,0.136-0.079c0.069-0.094,0.051-0.226-0.04-0.293l-1.669-1.24l-0.088-0.597l0.832-0.124
				c0.115-0.017,0.193-0.123,0.177-0.236c-0.016-0.116-0.122-0.192-0.236-0.176l-0.833,0.122l-0.084-0.569l1.941-1.538l0.534,0.208
				l-0.302,0.784c-0.042,0.11,0.011,0.229,0.117,0.27c0.037,0.013,0.073,0.017,0.106,0.013c0.073-0.013,0.137-0.057,0.165-0.13
				l0.304-0.784l0.564,0.218l0.84,1.897c0.039,0.088,0.13,0.136,0.222,0.123c0.017-0.004,0.037-0.008,0.054-0.017
				c0.105-0.044,0.153-0.17,0.105-0.276l-0.67-1.515l1.284,0.496l0.565,1.278c0.037,0.088,0.13,0.136,0.22,0.123
				c0,0,0.017-0.004,0.025-0.004l1.717-0.462c0.062-0.02,0.115-0.063,0.139-0.126C139.365,175.298,139.357,175.232,139.32,175.174z
				 M136.226,166.753l1.312-0.052l-0.35,1.266l-1.088-0.126L136.226,166.753z M129.535,163.512l0.922,0.936l-0.654,0.879
				l-0.881-0.655L129.535,163.512z M123.459,170.048l-0.709-1.108l1.27-0.341l0.443,1.006L123.459,170.048z M125.344,177.348
				l-1.313,0.048l0.348-1.264l1.092,0.128L125.344,177.348z M132.045,180.553l-0.922-0.935l0.656-0.879l0.879,0.654L132.045,180.553
				z M133.052,172.703l-1.854-0.716l1.566-1.24L133.052,172.703z M132.516,170.414l-1.57,1.243l-0.291-1.981L132.516,170.414z
				 M130.242,169.736l0.293,1.994l-1.886-0.732L130.242,169.736z M128.536,171.402l1.833,0.711l-1.548,1.228L128.536,171.402z
				 M129.087,173.661l1.551-1.23l0.29,1.959L129.087,173.661z M131.342,174.329l-0.288-1.952l1.847,0.716L131.342,174.329z
				 M137.548,175.501l-0.443-1.005l1.004-0.443l0.707,1.104L137.548,175.501z"/>
			<radialGradient id="XMLID_79_" cx="103.9043" cy="182.2529" r="7.1201" gradientUnits="userSpaceOnUse">
				<stop  offset="0.0428" style="stop-color:#A7DFF8"/>
				<stop  offset="0.6495" style="stop-color:#75D0F6"/>
				<stop  offset="1" style="stop-color:#26A7DF"/>
			</radialGradient>
			<path id="XMLID_1472_" fill="url(#XMLID_79_)" d="M110.791,184.787l-0.772-1.205c-0.046-0.072-0.134-0.1-0.209-0.064
				l-1.033,0.456l-1.062-0.41l1.262-0.561c0.084-0.038,0.122-0.138,0.086-0.222c-0.039-0.086-0.138-0.125-0.224-0.086l-1.567,0.694
				l-0.429-0.165l0.245-0.632c0.031-0.086-0.011-0.187-0.097-0.218c-0.086-0.037-0.186,0.009-0.218,0.095l-0.244,0.634l-0.434-0.167
				l-0.29-1.959l0.359-0.282l0.42,0.529c0.038,0.048,0.099,0.069,0.155,0.064c0.029-0.008,0.057-0.017,0.08-0.035
				c0.073-0.059,0.087-0.165,0.028-0.238l-0.422-0.529l0.385-0.306l1.661,0.192c0.015,0.004,0.031,0.004,0.044,0
				c0.073-0.009,0.136-0.069,0.143-0.148c0.012-0.092-0.057-0.172-0.148-0.185l-1.327-0.154l0.871-0.69l1.121,0.13
				c0.013,0.004,0.027,0,0.042,0c0.064-0.009,0.121-0.057,0.14-0.121l0.379-1.381c0.015-0.051,0.002-0.105-0.031-0.151
				c-0.033-0.04-0.084-0.064-0.138-0.061l-1.432,0.051c-0.081,0.004-0.15,0.068-0.159,0.15l-0.13,1.119l-0.896,0.709l0.159-1.372
				c0.011-0.092-0.056-0.176-0.148-0.185c-0.092-0.01-0.174,0.055-0.186,0.146l-0.197,1.707l-0.361,0.285l-0.419-0.533
				c-0.059-0.074-0.165-0.088-0.236-0.029c-0.075,0.058-0.088,0.163-0.029,0.238l0.421,0.533l-0.35,0.276l-1.86-0.74l-0.068-0.459
				l0.673-0.096c0.091-0.017,0.153-0.101,0.141-0.192c-0.013-0.091-0.099-0.155-0.19-0.143l-0.67,0.101l-0.071-0.485l0.996-1.342
				c0.057-0.073,0.042-0.18-0.033-0.234c-0.077-0.059-0.182-0.043-0.236,0.03l-0.797,1.077l-0.163-1.103l0.675-0.901
				c0.049-0.067,0.042-0.161-0.017-0.22l-1.006-1.02c-0.038-0.038-0.092-0.055-0.145-0.05c-0.053,0.012-0.099,0.042-0.123,0.088
				l-0.67,1.268c-0.039,0.075-0.019,0.165,0.048,0.213l0.906,0.674l0.167,1.128l-1.108-0.822c-0.075-0.055-0.18-0.042-0.234,0.034
				c-0.059,0.075-0.042,0.182,0.033,0.235l1.379,1.025l0.065,0.452l-0.672,0.099c-0.092,0.013-0.155,0.101-0.141,0.19
				c0.013,0.094,0.097,0.158,0.19,0.142l0.67-0.098l0.069,0.456l-1.593,1.264l-0.416-0.161l0.244-0.632
				c0.034-0.088-0.008-0.183-0.096-0.22c-0.086-0.031-0.185,0.011-0.216,0.098l-0.246,0.632l-0.428-0.163l-0.695-1.571
				c-0.037-0.083-0.137-0.121-0.222-0.087c-0.085,0.039-0.122,0.138-0.085,0.222l0.558,1.262l-1.065-0.41l-0.455-1.03
				c-0.034-0.077-0.119-0.116-0.199-0.094l-1.381,0.372c-0.053,0.013-0.095,0.051-0.114,0.101c-0.019,0.051-0.014,0.106,0.015,0.15
				l0.772,1.208c0.037,0.057,0.101,0.086,0.167,0.073c0.014,0,0.029-0.003,0.043-0.009l1.031-0.456l1.036,0.397l-1.223,0.542
				c-0.085,0.038-0.123,0.136-0.085,0.222c0.03,0.071,0.106,0.109,0.178,0.101c0.015-0.004,0.029-0.007,0.043-0.013l1.53-0.678
				l0.458,0.176l-0.246,0.634c-0.033,0.086,0.01,0.184,0.097,0.218c0.026,0.01,0.056,0.013,0.085,0.01
				c0.058-0.01,0.109-0.048,0.132-0.106l0.245-0.632l0.449,0.174l0.285,1.943l-0.369,0.291l-0.422-0.533
				c-0.057-0.071-0.163-0.084-0.237-0.025c-0.072,0.059-0.085,0.163-0.025,0.234l0.42,0.533l-0.358,0.285l-1.706-0.199
				c-0.093-0.01-0.176,0.055-0.186,0.148c-0.011,0.093,0.055,0.178,0.147,0.187l1.37,0.161l-0.894,0.705l-1.121-0.128
				c-0.082-0.01-0.157,0.042-0.18,0.122l-0.381,1.381c-0.014,0.052-0.003,0.106,0.031,0.148c0.034,0.041,0.085,0.064,0.138,0.064
				l1.431-0.055c0,0,0.013,0,0.018,0c0.076-0.013,0.135-0.071,0.143-0.148l0.13-1.121l0.872-0.69l-0.156,1.33
				c-0.009,0.093,0.057,0.177,0.148,0.187c0.016,0.004,0.03,0.004,0.044,0c0.075-0.01,0.134-0.071,0.143-0.148l0.194-1.661
				l0.383-0.304l0.422,0.532c0.038,0.048,0.099,0.068,0.155,0.061c0.029-0.002,0.057-0.015,0.081-0.034
				c0.071-0.059,0.084-0.163,0.027-0.234l-0.422-0.533l0.376-0.299l1.848,0.732l0.066,0.456l-0.671,0.1
				c-0.093,0.013-0.155,0.099-0.143,0.192c0.015,0.089,0.099,0.153,0.19,0.141l0.672-0.099l0.066,0.456l-1.024,1.375
				c-0.055,0.077-0.038,0.18,0.035,0.236c0.038,0.025,0.082,0.036,0.126,0.029c0.043-0.006,0.081-0.029,0.108-0.064l0.824-1.107
				l0.167,1.128l-0.673,0.904c-0.049,0.068-0.044,0.161,0.015,0.219l1.008,1.021c0.036,0.038,0.09,0.055,0.143,0.048
				c0.053-0.01,0.099-0.041,0.125-0.09l0.668-1.266c0.04-0.073,0.019-0.163-0.048-0.211l-0.906-0.676l-0.163-1.097l1.075,0.795
				c0.036,0.029,0.084,0.04,0.125,0.033c0.044-0.006,0.082-0.029,0.111-0.064c0.055-0.077,0.04-0.18-0.035-0.238l-1.342-0.998
				l-0.073-0.481l0.674-0.101c0.09-0.013,0.153-0.1,0.141-0.188c-0.015-0.094-0.101-0.158-0.192-0.146l-0.67,0.1l-0.069-0.458
				l1.565-1.24l0.433,0.167l-0.244,0.632c-0.034,0.088,0.01,0.187,0.096,0.22c0.027,0.009,0.057,0.013,0.086,0.009
				c0.057-0.009,0.107-0.047,0.132-0.105l0.243-0.632l0.458,0.176l0.676,1.53c0.033,0.072,0.106,0.11,0.178,0.098
				c0.015,0,0.029-0.004,0.044-0.01c0.084-0.038,0.123-0.139,0.084-0.225l-0.538-1.22l1.035,0.397l0.455,1.034
				c0.031,0.068,0.104,0.108,0.18,0.096c0,0,0.013,0,0.019-0.002l1.383-0.374c0.053-0.013,0.094-0.051,0.113-0.103
				C110.824,184.89,110.818,184.831,110.791,184.787z M108.293,177.994l1.057-0.039l-0.28,1.021l-0.879-0.103L108.293,177.994z
				 M102.897,175.383l0.744,0.75l-0.527,0.711l-0.711-0.527L102.897,175.383z M97.997,180.653l-0.57-0.894l1.021-0.276l0.358,0.809
				L97.997,180.653z M99.518,186.539l-1.058,0.042l0.281-1.021l0.878,0.103L99.518,186.539z M104.924,189.125l-0.744-0.751
				l0.527-0.714l0.711,0.531L104.924,189.125z M105.734,182.794l-1.494-0.577l1.262-1L105.734,182.794z M105.303,180.948
				l-1.266,1.002l-0.236-1.596L105.303,180.948z M103.468,180.402l0.236,1.606l-1.521-0.588L103.468,180.402z M102.09,181.745
				l1.48,0.574l-1.249,0.985L102.09,181.745z M102.537,183.565l1.251-0.993l0.232,1.581L102.537,183.565z M104.352,184.105
				l-0.23-1.573l1.491,0.575L104.352,184.105z M109.361,185.049l-0.355-0.808l0.808-0.357l0.569,0.89L109.361,185.049z"/>
		</g>
	</g>
	<g id="XMLID_1_" display="none">
		<g id="XMLID_11_" display="inline">
			
				<radialGradient id="XMLID_80_" cx="24.9727" cy="351.2832" r="97.3893" gradientTransform="matrix(1 -7.000000e-004 7.000000e-004 1 38.8299 -256.0699)" gradientUnits="userSpaceOnUse">
				<stop  offset="0.1141" style="stop-color:#FFE5C2"/>
				<stop  offset="0.6835" style="stop-color:#FDC67C"/>
				<stop  offset="0.9525" style="stop-color:#C9AC69"/>
			</radialGradient>
			<path id="XMLID_45_" fill="url(#XMLID_80_)" d="M161.081,116.583c0.028,39.059-31.611,70.742-70.667,70.771
				c-39.058,0.025-70.741-31.612-70.769-70.669c-0.027-39.058,31.611-70.741,70.667-70.771
				C129.369,45.889,161.052,77.525,161.081,116.583z"/>
			
				<radialGradient id="XMLID_81_" cx="49.2837" cy="362.127" r="11.5647" gradientTransform="matrix(0.9542 -0.2991 0.2991 0.9542 -64.8392 -221.7256)" gradientUnits="userSpaceOnUse">
				<stop  offset="0" style="stop-color:#FFE5C2"/>
				<stop  offset="0.5476" style="stop-color:#FDC67C"/>
				<stop  offset="0.9525" style="stop-color:#C9AC69"/>
			</radialGradient>
			<path id="XMLID_44_" opacity="0.37" fill="url(#XMLID_81_)" d="M101.535,105.615c1.912,6.095-1.479,12.585-7.575,14.495
				c-6.095,1.91-12.585-1.483-14.495-7.576c-1.91-6.095,1.48-12.584,7.577-14.493C93.136,96.127,99.626,99.521,101.535,105.615z"/>
			
				<radialGradient id="XMLID_82_" cx="127.6992" cy="408.7803" r="14.5239" gradientTransform="matrix(0.8941 -0.2803 0.2842 0.9067 -103.56 -202.7699)" gradientUnits="userSpaceOnUse">
				<stop  offset="0" style="stop-color:#FFE5C2"/>
				<stop  offset="0.5476" style="stop-color:#FDC67C"/>
				<stop  offset="0.9525" style="stop-color:#C9AC69"/>
			</radialGradient>
			<path id="XMLID_43_" opacity="0.37" fill="url(#XMLID_82_)" d="M144.05,133.502c2.278,7.272-1.688,14.992-8.858,17.239
				c-7.17,2.249-14.835-1.824-17.113-9.101c-2.28-7.272,1.686-14.988,8.858-17.237C134.108,122.156,141.77,126.229,144.05,133.502z"
				/>
			
				<radialGradient id="XMLID_83_" cx="82.019" cy="440.8887" r="3.4285" gradientTransform="matrix(0.8941 -0.2803 0.2842 0.9067 -103.56 -202.7699)" gradientUnits="userSpaceOnUse">
				<stop  offset="0" style="stop-color:#FFE5C2"/>
				<stop  offset="0.5476" style="stop-color:#FDC67C"/>
				<stop  offset="0.9525" style="stop-color:#C9AC69"/>
			</radialGradient>
			<path id="XMLID_42_" opacity="0.37" fill="url(#XMLID_83_)" d="M98.138,173.031c0.538,1.718-0.399,3.538-2.089,4.071
				c-1.693,0.53-3.501-0.431-4.04-2.146c-0.539-1.718,0.399-3.539,2.091-4.071C95.792,170.357,97.599,171.314,98.138,173.031z"/>
			
				<radialGradient id="XMLID_84_" cx="-3.8613" cy="362.4932" r="7.2622" gradientTransform="matrix(0.9542 -0.2991 0.2991 0.9542 -64.8392 -221.7256)" gradientUnits="userSpaceOnUse">
				<stop  offset="0" style="stop-color:#FFE5C2"/>
				<stop  offset="0.5476" style="stop-color:#FDC67C"/>
				<stop  offset="0.9525" style="stop-color:#C9AC69"/>
			</radialGradient>
			<circle id="XMLID_41_" opacity="0.37" fill="url(#XMLID_84_)" cx="39.898" cy="125.32" r="7.262"/>
			
				<radialGradient id="XMLID_85_" cx="62.1348" cy="347.1738" r="4.5173" gradientTransform="matrix(0.9542 -0.2991 0.2991 0.9542 -64.8392 -221.7256)" gradientUnits="userSpaceOnUse">
				<stop  offset="0" style="stop-color:#FFE5C2"/>
				<stop  offset="0.5476" style="stop-color:#FDC67C"/>
				<stop  offset="0.9525" style="stop-color:#C9AC69"/>
			</radialGradient>
			<circle id="XMLID_40_" opacity="0.37" fill="url(#XMLID_85_)" cx="98.29" cy="90.962" r="4.517"/>
			
				<radialGradient id="XMLID_86_" cx="38.2388" cy="324.3438" r="7.262" gradientTransform="matrix(0.9542 -0.2991 0.2991 0.9542 -64.8392 -221.7256)" gradientUnits="userSpaceOnUse">
				<stop  offset="0" style="stop-color:#FFE5C2"/>
				<stop  offset="0.5476" style="stop-color:#FDC67C"/>
				<stop  offset="0.9525" style="stop-color:#C9AC69"/>
			</radialGradient>
			<circle id="XMLID_39_" opacity="0.37" fill="url(#XMLID_86_)" cx="68.66" cy="76.326" r="7.262"/>
			
				<radialGradient id="XMLID_87_" cx="6.291" cy="386.4033" r="4.033" gradientTransform="matrix(0.9542 -0.2991 0.2991 0.9542 -64.8392 -221.7256)" gradientUnits="userSpaceOnUse">
				<stop  offset="0" style="stop-color:#FFE5C2"/>
				<stop  offset="0.5476" style="stop-color:#FDC67C"/>
				<stop  offset="0.9525" style="stop-color:#C9AC69"/>
			</radialGradient>
			<circle id="XMLID_38_" opacity="0.37" fill="url(#XMLID_87_)" cx="56.737" cy="145.098" r="4.033"/>
			
				<radialGradient id="XMLID_88_" cx="1.5742" cy="401.4531" r="5.4351" gradientTransform="matrix(0.9542 -0.2991 0.2991 0.9542 -64.8392 -221.7256)" gradientUnits="userSpaceOnUse">
				<stop  offset="0" style="stop-color:#FFE5C2"/>
				<stop  offset="0.5476" style="stop-color:#FDC67C"/>
				<stop  offset="0.9525" style="stop-color:#C9AC69"/>
			</radialGradient>
			<path id="XMLID_37_" opacity="0.37" fill="url(#XMLID_88_)" d="M61.923,159.244c0.898,2.866-0.695,5.913-3.561,6.813
				c-2.863,0.897-5.912-0.693-6.81-3.56c-0.899-2.864,0.696-5.914,3.559-6.813C57.976,154.788,61.026,156.384,61.923,159.244z"/>
			
				<radialGradient id="XMLID_89_" cx="1.5732" cy="350.2266" r="2.717" gradientTransform="matrix(0.9542 -0.2991 0.2991 0.9542 -64.8392 -221.7256)" gradientUnits="userSpaceOnUse">
				<stop  offset="0" style="stop-color:#FFE5C2"/>
				<stop  offset="0.5476" style="stop-color:#FDC67C"/>
				<stop  offset="0.9525" style="stop-color:#C9AC69"/>
			</radialGradient>
			<path id="XMLID_36_" opacity="0.37" fill="url(#XMLID_89_)" d="M44.008,111.176c0.448,1.43-0.348,2.955-1.78,3.406
				c-1.433,0.446-2.957-0.349-3.407-1.782c-0.448-1.431,0.35-2.958,1.781-3.402C42.034,108.946,43.558,109.745,44.008,111.176z"/>
			
				<radialGradient id="XMLID_90_" cx="26.9297" cy="336.1377" r="2.7178" gradientTransform="matrix(0.9542 -0.2991 0.2991 0.9542 -64.8392 -221.7256)" gradientUnits="userSpaceOnUse">
				<stop  offset="0" style="stop-color:#FFE5C2"/>
				<stop  offset="0.5476" style="stop-color:#FDC67C"/>
				<stop  offset="0.9525" style="stop-color:#C9AC69"/>
			</radialGradient>
			<circle id="XMLID_35_" opacity="0.37" fill="url(#XMLID_90_)" cx="61.396" cy="90.964" r="2.718"/>
			
				<radialGradient id="XMLID_91_" cx="102.5889" cy="380.0625" r="2.7168" gradientTransform="matrix(0.9542 -0.2991 0.2991 0.9542 -64.8392 -221.7256)" gradientUnits="userSpaceOnUse">
				<stop  offset="0" style="stop-color:#FFE5C2"/>
				<stop  offset="0.5476" style="stop-color:#FDC67C"/>
				<stop  offset="0.9525" style="stop-color:#C9AC69"/>
			</radialGradient>
			<path id="XMLID_34_" opacity="0.37" fill="url(#XMLID_91_)" d="M149.32,109.432c0.448,1.435-0.348,2.958-1.78,3.406
				c-1.432,0.451-2.958-0.348-3.404-1.778c-0.451-1.434,0.346-2.955,1.778-3.406C147.346,107.205,148.87,108.002,149.32,109.432z"/>
			
				<radialGradient id="XMLID_92_" cx="89.2256" cy="332.0313" r="4.9932" gradientTransform="matrix(0.9542 -0.2991 0.2991 0.9542 -64.8392 -221.7256)" gradientUnits="userSpaceOnUse">
				<stop  offset="0" style="stop-color:#FFE5C2"/>
				<stop  offset="0.5476" style="stop-color:#FDC67C"/>
				<stop  offset="0.9525" style="stop-color:#C9AC69"/>
			</radialGradient>
			<circle id="XMLID_33_" opacity="0.37" fill="url(#XMLID_92_)" cx="119.61" cy="68.41" r="4.994"/>
			
				<radialGradient id="XMLID_93_" cx="46.8936" cy="417.876" r="4.9937" gradientTransform="matrix(0.9542 -0.2991 0.2991 0.9542 -64.8392 -221.7256)" gradientUnits="userSpaceOnUse">
				<stop  offset="0" style="stop-color:#FFE5C2"/>
				<stop  offset="0.5476" style="stop-color:#FDC67C"/>
				<stop  offset="0.9525" style="stop-color:#C9AC69"/>
			</radialGradient>
			<circle id="XMLID_32_" opacity="0.37" fill="url(#XMLID_93_)" cx="104.894" cy="162.986" r="4.994"/>
			
				<radialGradient id="XMLID_94_" cx="62.7451" cy="315.4355" r="2.6624" gradientTransform="matrix(0.9542 -0.2991 0.2991 0.9542 -64.8392 -221.7256)" gradientUnits="userSpaceOnUse">
				<stop  offset="0" style="stop-color:#FFE5C2"/>
				<stop  offset="0.5476" style="stop-color:#FDC67C"/>
				<stop  offset="0.9525" style="stop-color:#C9AC69"/>
			</radialGradient>
			<circle id="XMLID_31_" opacity="0.37" fill="url(#XMLID_94_)" cx="89.38" cy="60.496" r="2.662"/>
			
				<radialGradient id="XMLID_95_" cx="-3.2764" cy="377.8389" r="97.2674" gradientTransform="matrix(0.9542 -0.2991 0.2991 0.9542 -64.8392 -221.7256)" gradientUnits="userSpaceOnUse">
				<stop  offset="0.1141" style="stop-color:#FFE5C2"/>
				<stop  offset="0.6835" style="stop-color:#FDC67C"/>
				<stop  offset="0.9525" style="stop-color:#C9AC69"/>
			</radialGradient>
			<path id="XMLID_28_" opacity="0.25" fill="url(#XMLID_95_)" d="M141.469,72.862c0.983,2.251,1.855,4.565,2.601,6.944
				c2.678,8.54,3.617,17.345,2.859,26.003c1.813,0.082,3.469,1.276,4.042,3.107c0.734,2.341-0.573,4.841-2.912,5.573
				c-0.841,0.262-1.698,0.258-2.489,0.046c-0.91,4.053-2.207,8.04-3.877,11.919c1.799,1.749,3.203,3.961,4.007,6.528
				c2.563,8.172-1.919,16.879-9.99,19.409c-4.185,1.312-8.524,0.705-12.093-1.32c-3.919,3.352-8.23,6.243-12.859,8.626
				c0.225,0.396,0.41,0.822,0.553,1.276c1.109,3.536-0.866,7.318-4.404,8.427c-3.538,1.109-7.318-0.866-8.428-4.403
				c-0.042-0.135-0.078-0.267-0.11-0.4c-11.827,3.386-24.103,3.469-35.745,0.352c-0.876,1.266-2.161,2.264-3.741,2.76
				c-3.771,1.181-7.799-0.927-8.981-4.694c-0.316-1.011-0.395-2.04-0.271-3.029c-0.297-0.149-0.596-0.298-0.893-0.452
				c-7.719-4.036-14.448-9.413-19.95-15.834c6.111,13.978,16.709,25.374,30.421,32.542c15.922,8.324,34.13,9.944,51.271,4.571
				c17.145-5.375,31.167-17.102,39.491-33.022c8.319-15.924,9.942-34.132,4.571-51.275
				C151.772,87.683,147.313,79.685,141.469,72.862z M96.565,178.752c-2.601,0.813-5.385-0.655-6.208-3.281
				c-0.822-2.623,0.624-5.42,3.225-6.236c2.599-0.813,5.384,0.655,6.206,3.282C100.612,175.139,99.165,177.938,96.565,178.752z"/>
			<path id="XMLID_27_" opacity="0.56" fill="#F1F1F2" d="M37.241,75.799c4.992-4.083,11.04-0.571,8.841,5.977
				c-0.625,1.861-1.969,3.607-3.308,5.156c-1.851,2.133-3.896,4.158-6.018,5.257c-6.189,3.213-7.018-2.376-4.777-8.572
				C33.032,80.712,34.914,77.703,37.241,75.799z"/>
		</g>
		<g display="inline">
			<linearGradient id="XMLID_96_" gradientUnits="userSpaceOnUse" x1="59.6362" y1="132.1182" x2="144.2617" y2="132.1182">
				<stop  offset="0" style="stop-color:#FFFFFF"/>
				<stop  offset="1" style="stop-color:#D0D2D3"/>
			</linearGradient>
			<path id="XMLID_10_" fill="url(#XMLID_96_)" d="M59.636,154.039c8.815,5.816,19.375,9.203,30.727,9.203
				c25.75,0,47.427-17.421,53.899-41.115c-1.925-0.833-4.047-1.297-6.279-1.297c-0.234,0-0.46,0.026-0.69,0.037
				c-2.674-11.392-12.894-19.873-25.1-19.873c-14.244,0-25.789,11.546-25.789,25.786c0,2.707,0.418,5.313,1.191,7.762
				c-5.745,2.387-9.787,8.047-9.787,14.657c0,1.272,0.167,2.507,0.451,3.695H64.825C62.971,152.895,61.213,153.305,59.636,154.039z"
				/>
			<linearGradient id="XMLID_97_" gradientUnits="userSpaceOnUse" x1="58.5991" y1="142.8447" x2="153.331" y2="142.8447">
				<stop  offset="0" style="stop-color:#D0D2D3"/>
				<stop  offset="1" style="stop-color:#FFFFFF"/>
			</linearGradient>
			<path id="XMLID_6_" fill="url(#XMLID_97_)" d="M179.368,156.396c0.272-1.169,0.432-2.379,0.432-3.63
				c0-8.767-7.104-15.871-15.868-15.871c-1.468,0-2.88,0.213-4.228,0.586c-1.32-7.432-7.798-13.083-15.61-13.083
				c-0.232,0-0.46,0.025-0.69,0.034c-2.676-11.39-12.894-19.874-25.098-19.874c-14.245,0-25.792,11.545-25.792,25.79
				c0,2.703,0.42,5.309,1.191,7.761c-5.743,2.387-9.785,8.048-9.785,14.657c0,1.272,0.166,2.507,0.452,3.695H70.936
				c-6.813,0-12.336,5.523-12.336,12.337l0,0c0,6.813,5.523,12.332,12.336,12.332H87.16h45.839h43.827
				c6.9,0,12.497-5.591,12.497-12.497l0,0C189.323,162.604,185.049,157.57,179.368,156.396z"/>
			<path id="XMLID_5_" fill="#E6E7E8" d="M179.368,156.396c0.272-1.169,0.432-2.379,0.432-3.63c0-8.767-7.104-15.871-15.868-15.871
				c-1.468,0-2.88,0.213-4.228,0.586c-1.308-7.369-7.689-12.986-15.411-13.08c-0.458,24.863-14.938,46.296-35.864,56.729h24.57
				h43.827c6.9,0,12.497-5.591,12.497-12.497l0,0C189.323,162.604,185.049,157.57,179.368,156.396z"/>
			<path id="XMLID_4_" fill="#F1F1F2" d="M176.945,148.069c0.855,3.36-2.701,6.118-5.655,3.896
				c-0.841-0.628-1.423-1.635-1.897-2.605c-0.654-1.343-1.194-2.774-1.215-4.103c-0.057-3.879,3.207-3.463,5.958-1.274
				C175.425,145.009,176.546,146.505,176.945,148.069z"/>
			<path id="XMLID_3_" fill="#F1F1F2" d="M67.421,158.88c3.315-1.021,6.244,2.394,4.175,5.455c-0.588,0.87-1.563,1.502-2.511,2.024
				c-1.306,0.72-2.709,1.333-4.037,1.417c-3.871,0.247-3.618-3.029-1.569-5.886C64.439,160.55,65.876,159.355,67.421,158.88z"/>
			<path id="XMLID_2_" fill="#FFFFFF" d="M110.302,108.379c4.78-1.079,8.64,4.122,5.445,8.254c-0.906,1.174-2.341,1.962-3.729,2.599
				c-1.914,0.879-3.952,1.592-5.841,1.563c-5.505-0.088-4.866-4.732-1.72-8.575C105.935,110.421,108.069,108.881,110.302,108.379z"
				/>
		</g>
	</g>
	<g id="XMLID_1166_" display="none">
		
			<radialGradient id="XMLID_98_" cx="33.2559" cy="349.9639" r="103.4147" gradientTransform="matrix(1 -7.000000e-004 7.000000e-004 1 38.8299 -256.0699)" gradientUnits="userSpaceOnUse">
			<stop  offset="0.1141" style="stop-color:#FFE5C2"/>
			<stop  offset="0.6835" style="stop-color:#FDC67C"/>
			<stop  offset="0.9525" style="stop-color:#C9AC69"/>
		</radialGradient>
		<circle id="XMLID_1189_" display="inline" fill="url(#XMLID_98_)" cx="100.273" cy="116.634" r="75.095"/>
		
			<radialGradient id="XMLID_99_" cx="58.8892" cy="364.6484" r="12.281" gradientTransform="matrix(0.9542 -0.2991 0.2991 0.9542 -64.8392 -221.7256)" gradientUnits="userSpaceOnUse">
			<stop  offset="0" style="stop-color:#FFE5C2"/>
			<stop  offset="0.5476" style="stop-color:#FDC67C"/>
			<stop  offset="0.9525" style="stop-color:#C9AC69"/>
		</radialGradient>
		<path id="XMLID_1188_" display="inline" opacity="0.37" fill="url(#XMLID_99_)" d="M112.138,104.934
			c2.028,6.471-1.571,13.364-8.046,15.394c-6.471,2.027-13.363-1.575-15.391-8.048c-2.028-6.47,1.572-13.361,8.045-15.389
			C103.217,94.858,110.108,98.462,112.138,104.934z"/>
		
			<radialGradient id="XMLID_100_" cx="139.7803" cy="413.5703" r="15.4226" gradientTransform="matrix(0.8941 -0.2803 0.2842 0.9067 -103.56 -202.7699)" gradientUnits="userSpaceOnUse">
			<stop  offset="0" style="stop-color:#FFE5C2"/>
			<stop  offset="0.5476" style="stop-color:#FDC67C"/>
			<stop  offset="0.9525" style="stop-color:#C9AC69"/>
		</radialGradient>
		<path id="XMLID_1187_" display="inline" opacity="0.37" fill="url(#XMLID_100_)" d="M157.281,134.546
			c2.421,7.721-1.791,15.919-9.406,18.307c-7.614,2.387-15.752-1.938-18.173-9.664c-2.419-7.724,1.791-15.917,9.406-18.304
			C146.726,122.497,154.858,126.823,157.281,134.546z"/>
		
			<radialGradient id="XMLID_101_" cx="91.2744" cy="447.6641" r="3.6392" gradientTransform="matrix(0.8941 -0.2803 0.2842 0.9067 -103.56 -202.7699)" gradientUnits="userSpaceOnUse">
			<stop  offset="0" style="stop-color:#FFE5C2"/>
			<stop  offset="0.5476" style="stop-color:#FDC67C"/>
			<stop  offset="0.9525" style="stop-color:#C9AC69"/>
		</radialGradient>
		<path id="XMLID_1186_" display="inline" opacity="0.37" fill="url(#XMLID_101_)" d="M108.527,176.521
			c0.573,1.822-0.423,3.756-2.218,4.322c-1.798,0.564-3.718-0.458-4.289-2.28s0.423-3.756,2.22-4.32
			C106.039,173.681,107.956,174.699,108.527,176.521z"/>
		
			<radialGradient id="XMLID_102_" cx="2.4546" cy="365.0381" r="7.7114" gradientTransform="matrix(0.9542 -0.2991 0.2991 0.9542 -64.8392 -221.7256)" gradientUnits="userSpaceOnUse">
			<stop  offset="0" style="stop-color:#FFE5C2"/>
			<stop  offset="0.5476" style="stop-color:#FDC67C"/>
			<stop  offset="0.9525" style="stop-color:#C9AC69"/>
		</radialGradient>
		<path id="XMLID_1185_" display="inline" opacity="0.37" fill="url(#XMLID_102_)" d="M54.043,123.55
			c1.274,4.064-0.986,8.392-5.051,9.668c-4.063,1.271-8.39-0.99-9.664-5.055c-1.274-4.062,0.988-8.392,5.051-9.662
			C48.442,117.225,52.769,119.486,54.043,123.55z"/>
		
			<radialGradient id="XMLID_103_" cx="72.5347" cy="348.7695" r="4.7964" gradientTransform="matrix(0.9542 -0.2991 0.2991 0.9542 -64.8392 -221.7256)" gradientUnits="userSpaceOnUse">
			<stop  offset="0" style="stop-color:#FFE5C2"/>
			<stop  offset="0.5476" style="stop-color:#FDC67C"/>
			<stop  offset="0.9525" style="stop-color:#C9AC69"/>
		</radialGradient>
		<circle id="XMLID_1184_" display="inline" opacity="0.37" fill="url(#XMLID_103_)" cx="108.69" cy="89.373" r="4.796"/>
		
			<radialGradient id="XMLID_104_" cx="47.1597" cy="324.5264" r="7.7117" gradientTransform="matrix(0.9542 -0.2991 0.2991 0.9542 -64.8392 -221.7256)" gradientUnits="userSpaceOnUse">
			<stop  offset="0" style="stop-color:#FFE5C2"/>
			<stop  offset="0.5476" style="stop-color:#FDC67C"/>
			<stop  offset="0.9525" style="stop-color:#C9AC69"/>
		</radialGradient>
		<path id="XMLID_1183_" display="inline" opacity="0.37" fill="url(#XMLID_104_)" d="M84.585,71.527
			c1.273,4.063-0.988,8.388-5.052,9.664c-4.063,1.272-8.392-0.99-9.666-5.053c-1.272-4.063,0.988-8.388,5.053-9.664
			C78.985,65.198,83.31,67.463,84.585,71.527z"/>
		
			<radialGradient id="XMLID_105_" cx="13.2354" cy="390.4258" r="4.2832" gradientTransform="matrix(0.9542 -0.2991 0.2991 0.9542 -64.8392 -221.7256)" gradientUnits="userSpaceOnUse">
			<stop  offset="0" style="stop-color:#FFE5C2"/>
			<stop  offset="0.5476" style="stop-color:#FDC67C"/>
			<stop  offset="0.9525" style="stop-color:#C9AC69"/>
		</radialGradient>
		<circle id="XMLID_1182_" display="inline" opacity="0.37" fill="url(#XMLID_105_)" cx="64.566" cy="146.859" r="4.283"/>
		
			<radialGradient id="XMLID_106_" cx="8.2266" cy="406.4072" r="5.7715" gradientTransform="matrix(0.9542 -0.2991 0.2991 0.9542 -64.8392 -221.7256)" gradientUnits="userSpaceOnUse">
			<stop  offset="0" style="stop-color:#FFE5C2"/>
			<stop  offset="0.5476" style="stop-color:#FDC67C"/>
			<stop  offset="0.9525" style="stop-color:#C9AC69"/>
		</radialGradient>
		<path id="XMLID_1181_" display="inline" opacity="0.37" fill="url(#XMLID_106_)" d="M70.074,161.881
			c0.953,3.042-0.739,6.28-3.781,7.234c-3.041,0.952-6.278-0.738-7.231-3.78c-0.955-3.042,0.739-6.279,3.779-7.235
			C65.881,157.149,69.121,158.843,70.074,161.881z"/>
		
			<radialGradient id="XMLID_107_" cx="8.2256" cy="352.0078" r="2.885" gradientTransform="matrix(0.9542 -0.2991 0.2991 0.9542 -64.8392 -221.7256)" gradientUnits="userSpaceOnUse">
			<stop  offset="0" style="stop-color:#FFE5C2"/>
			<stop  offset="0.5476" style="stop-color:#FDC67C"/>
			<stop  offset="0.9525" style="stop-color:#C9AC69"/>
		</radialGradient>
		<circle id="XMLID_1180_" display="inline" opacity="0.37" fill="url(#XMLID_107_)" cx="48.295" cy="111.699" r="2.886"/>
		
			<radialGradient id="XMLID_108_" cx="35.1499" cy="337.0498" r="2.886" gradientTransform="matrix(0.9542 -0.2991 0.2991 0.9542 -64.8392 -221.7256)" gradientUnits="userSpaceOnUse">
			<stop  offset="0" style="stop-color:#FFE5C2"/>
			<stop  offset="0.5476" style="stop-color:#FDC67C"/>
			<stop  offset="0.9525" style="stop-color:#C9AC69"/>
		</radialGradient>
		<circle id="XMLID_1179_" display="inline" opacity="0.37" fill="url(#XMLID_108_)" cx="69.513" cy="89.375" r="2.886"/>
		
			<radialGradient id="XMLID_109_" cx="115.4902" cy="383.6934" r="2.8853" gradientTransform="matrix(0.9542 -0.2991 0.2991 0.9542 -64.8392 -221.7256)" gradientUnits="userSpaceOnUse">
			<stop  offset="0" style="stop-color:#FFE5C2"/>
			<stop  offset="0.5476" style="stop-color:#FDC67C"/>
			<stop  offset="0.9525" style="stop-color:#C9AC69"/>
		</radialGradient>
		<path id="XMLID_1178_" display="inline" opacity="0.37" fill="url(#XMLID_109_)" d="M162.878,108.986
			c0.477,1.522-0.37,3.14-1.89,3.617c-1.522,0.479-3.141-0.37-3.617-1.888c-0.477-1.524,0.37-3.141,1.89-3.617
			C160.781,106.621,162.4,107.467,162.878,108.986z"/>
		
			<radialGradient id="XMLID_110_" cx="101.3008" cy="332.6885" r="5.3022" gradientTransform="matrix(0.9542 -0.2991 0.2991 0.9542 -64.8392 -221.7256)" gradientUnits="userSpaceOnUse">
			<stop  offset="0" style="stop-color:#FFE5C2"/>
			<stop  offset="0.5476" style="stop-color:#FDC67C"/>
			<stop  offset="0.9525" style="stop-color:#C9AC69"/>
		</radialGradient>
		<path id="XMLID_1177_" display="inline" opacity="0.37" fill="url(#XMLID_110_)" d="M136.389,63.838
			c0.879,2.795-0.678,5.771-3.471,6.646c-2.795,0.878-5.771-0.68-6.647-3.471c-0.876-2.795,0.681-5.771,3.474-6.646
			C132.537,59.489,135.516,61.047,136.389,63.838z"/>
		
			<radialGradient id="XMLID_111_" cx="56.3506" cy="423.8457" r="5.303" gradientTransform="matrix(0.9542 -0.2991 0.2991 0.9542 -64.8392 -221.7256)" gradientUnits="userSpaceOnUse">
			<stop  offset="0" style="stop-color:#FFE5C2"/>
			<stop  offset="0.5476" style="stop-color:#FDC67C"/>
			<stop  offset="0.9525" style="stop-color:#C9AC69"/>
		</radialGradient>
		<circle id="XMLID_1176_" display="inline" opacity="0.37" fill="url(#XMLID_111_)" cx="115.703" cy="165.854" r="5.303"/>
		
			<radialGradient id="XMLID_112_" cx="73.1826" cy="315.0674" r="2.8269" gradientTransform="matrix(0.9542 -0.2991 0.2991 0.9542 -64.8392 -221.7256)" gradientUnits="userSpaceOnUse">
			<stop  offset="0" style="stop-color:#FFE5C2"/>
			<stop  offset="0.5476" style="stop-color:#FDC67C"/>
			<stop  offset="0.9525" style="stop-color:#C9AC69"/>
		</radialGradient>
		<circle id="XMLID_1175_" display="inline" opacity="0.37" fill="url(#XMLID_112_)" cx="99.229" cy="57.022" r="2.827"/>
		
			<radialGradient id="XMLID_113_" cx="3.0757" cy="381.333" r="103.2865" gradientTransform="matrix(0.9542 -0.2991 0.2991 0.9542 -64.8392 -221.7256)" gradientUnits="userSpaceOnUse">
			<stop  offset="0.1141" style="stop-color:#FFE5C2"/>
			<stop  offset="0.6835" style="stop-color:#FDC67C"/>
			<stop  offset="0.9525" style="stop-color:#C9AC69"/>
		</radialGradient>
		<path id="XMLID_1172_" display="inline" opacity="0.25" fill="url(#XMLID_113_)" d="M154.54,70.154
			c1.046,2.39,1.971,4.847,2.762,7.374c2.844,9.068,3.842,18.418,3.036,27.611c1.925,0.088,3.683,1.355,4.293,3.301
			c0.778,2.485-0.61,5.141-3.094,5.917c-0.892,0.278-1.802,0.276-2.643,0.05c-0.965,4.304-2.342,8.538-4.115,12.656
			c1.91,1.857,3.401,4.207,4.255,6.932c2.72,8.678-2.038,17.925-10.607,20.611c-4.445,1.394-9.055,0.749-12.842-1.401
			c-4.161,3.559-8.739,6.628-13.657,9.159c0.238,0.421,0.437,0.873,0.588,1.354c1.178,3.757-0.921,7.771-4.677,8.948
			c-3.757,1.18-7.771-0.919-8.95-4.675c-0.042-0.144-0.081-0.282-0.115-0.425c-12.559,3.595-25.595,3.683-37.958,0.371
			c-0.931,1.347-2.295,2.405-3.973,2.933c-4.004,1.254-8.282-0.983-9.537-4.985c-0.336-1.073-0.42-2.167-0.288-3.216
			c-0.315-0.161-0.632-0.317-0.948-0.481c-8.197-4.286-15.343-9.994-21.185-16.814c6.489,14.842,17.743,26.945,32.303,34.557
			c16.908,8.839,36.241,10.56,54.445,4.855c18.204-5.709,33.096-18.16,41.934-35.066c8.837-16.909,10.56-36.243,4.855-54.449
			C165.482,85.892,160.746,77.399,154.54,70.154z M106.859,182.597c-2.762,0.864-5.72-0.698-6.592-3.485
			c-0.873-2.786,0.661-5.755,3.423-6.622c2.761-0.865,5.718,0.697,6.592,3.484C111.155,178.76,109.619,181.731,106.859,182.597z"/>
		<path id="XMLID_1171_" display="inline" opacity="0.56" fill="#F1F1F2" d="M43.863,73.272c5.301-4.335,11.724-0.606,9.389,6.346
			c-0.664,1.976-2.091,3.83-3.513,5.475c-1.965,2.266-4.136,4.416-6.389,5.583c-6.573,3.412-7.453-2.523-5.073-9.103
			C39.394,78.49,41.393,75.294,43.863,73.272z"/>
	</g>
</g>
</svg>
