<?xml version="1.0" encoding="utf-8"?>
<!-- Generator: Adobe Illustrator 16.0.0, SVG Export Plug-In . SVG Version: 6.00 Build 0)  -->
<!DOCTYPE svg PUBLIC "-//W3C//DTD SVG 1.1//EN" "http://www.w3.org/Graphics/SVG/1.1/DTD/svg11.dtd">
<svg version="1.1" id="Layer_1" xmlns="http://www.w3.org/2000/svg" xmlns:xlink="http://www.w3.org/1999/xlink" x="0px" y="0px"
	 width="200px" height="200px" viewBox="0 0 200 200" enable-background="new 0 0 200 200" xml:space="preserve">
<g id="XMLID_1166_">
	
		<radialGradient id="XMLID_2_" cx="69.9844" cy="308.8613" r="71.7299" gradientTransform="matrix(1 -7.000000e-004 7.000000e-004 1 38.8296 -256.0698)" gradientUnits="userSpaceOnUse">
		<stop  offset="0.1141" style="stop-color:#FFE5C2"/>
		<stop  offset="0.6835" style="stop-color:#FEC77C"/>
		<stop  offset="0.9525" style="stop-color:#C9AC68"/>
	</radialGradient>
	<circle id="XMLID_1189_" fill="url(#XMLID_2_)" cx="128.412" cy="68.532" r="52.086"/>
	
		<radialGradient id="XMLID_3_" cx="99.5215" cy="329.3711" r="8.5181" gradientTransform="matrix(0.9542 -0.2991 0.2991 0.9542 -64.9658 -221.5532)" gradientUnits="userSpaceOnUse">
		<stop  offset="0" style="stop-color:#FFE5C2"/>
		<stop  offset="0.5476" style="stop-color:#FEC77C"/>
		<stop  offset="0.9525" style="stop-color:#C9AC68"/>
	</radialGradient>
	<circle id="XMLID_1188_" opacity="0.37" fill="url(#XMLID_3_)" cx="128.513" cy="62.964" r="8.518"/>
	
		<radialGradient id="XMLID_4_" cx="173.4756" cy="365.1865" r="10.6973" gradientTransform="matrix(0.8941 -0.2803 0.2842 0.9067 -103.6484 -202.583)" gradientUnits="userSpaceOnUse">
		<stop  offset="0" style="stop-color:#FFE5C2"/>
		<stop  offset="0.5476" style="stop-color:#FEC77C"/>
		<stop  offset="0.9525" style="stop-color:#C9AC68"/>
	</radialGradient>
	<path id="XMLID_1187_" opacity="0.37" fill="url(#XMLID_4_)" d="M167.953,80.956c1.679,5.356-1.243,11.042-6.524,12.697
		c-5.281,1.656-10.926-1.344-12.604-6.703c-1.679-5.356,1.241-11.039,6.523-12.695C160.631,72.599,166.272,75.599,167.953,80.956z"
		/>
	
		<radialGradient id="XMLID_5_" cx="139.8301" cy="388.834" r="2.5249" gradientTransform="matrix(0.8941 -0.2803 0.2842 0.9067 -103.6484 -202.583)" gradientUnits="userSpaceOnUse">
		<stop  offset="0" style="stop-color:#FFE5C2"/>
		<stop  offset="0.5476" style="stop-color:#FEC77C"/>
		<stop  offset="0.9525" style="stop-color:#C9AC68"/>
	</radialGradient>
	<path id="XMLID_1186_" opacity="0.37" fill="url(#XMLID_5_)" d="M134.137,110.07c0.397,1.264-0.293,2.605-1.538,2.998
		c-1.247,0.391-2.579-0.316-2.976-1.582c-0.396-1.264,0.294-2.605,1.54-2.996C132.41,108.102,133.741,108.807,134.137,110.07z"/>
	
		<radialGradient id="XMLID_6_" cx="60.3784" cy="329.6406" r="5.3489" gradientTransform="matrix(0.9542 -0.2991 0.2991 0.9542 -64.9658 -221.5532)" gradientUnits="userSpaceOnUse">
		<stop  offset="0" style="stop-color:#FFE5C2"/>
		<stop  offset="0.5476" style="stop-color:#FEC77C"/>
		<stop  offset="0.9525" style="stop-color:#C9AC68"/>
	</radialGradient>
	<circle id="XMLID_1185_" opacity="0.37" fill="url(#XMLID_6_)" cx="91.243" cy="74.929" r="5.348"/>
	
		<radialGradient id="XMLID_7_" cx="108.9863" cy="318.3564" r="3.3267" gradientTransform="matrix(0.9542 -0.2991 0.2991 0.9542 -64.9658 -221.5532)" gradientUnits="userSpaceOnUse">
		<stop  offset="0" style="stop-color:#FFE5C2"/>
		<stop  offset="0.5476" style="stop-color:#FEC77C"/>
		<stop  offset="0.9525" style="stop-color:#C9AC68"/>
	</radialGradient>
	<circle id="XMLID_1184_" opacity="0.37" fill="url(#XMLID_7_)" cx="134.249" cy="49.624" r="3.326"/>
	
		<radialGradient id="XMLID_8_" cx="91.3857" cy="301.542" r="5.3489" gradientTransform="matrix(0.9542 -0.2991 0.2991 0.9542 -64.9658 -221.5532)" gradientUnits="userSpaceOnUse">
		<stop  offset="0" style="stop-color:#FFE5C2"/>
		<stop  offset="0.5476" style="stop-color:#FEC77C"/>
		<stop  offset="0.9525" style="stop-color:#C9AC68"/>
	</radialGradient>
	<circle id="XMLID_1183_" opacity="0.37" fill="url(#XMLID_8_)" cx="112.426" cy="38.844" r="5.349"/>
	
		<radialGradient id="XMLID_9_" cx="67.8564" cy="347.249" r="2.9702" gradientTransform="matrix(0.9542 -0.2991 0.2991 0.9542 -64.9658 -221.5532)" gradientUnits="userSpaceOnUse">
		<stop  offset="0" style="stop-color:#FFE5C2"/>
		<stop  offset="0.5476" style="stop-color:#FEC77C"/>
		<stop  offset="0.9525" style="stop-color:#C9AC68"/>
	</radialGradient>
	<circle id="XMLID_1182_" opacity="0.37" fill="url(#XMLID_9_)" cx="103.646" cy="89.496" r="2.971"/>
	
		<radialGradient id="XMLID_10_" cx="64.3818" cy="358.335" r="4.0029" gradientTransform="matrix(0.9542 -0.2991 0.2991 0.9542 -64.9658 -221.5532)" gradientUnits="userSpaceOnUse">
		<stop  offset="0" style="stop-color:#FFE5C2"/>
		<stop  offset="0.5476" style="stop-color:#FEC77C"/>
		<stop  offset="0.9525" style="stop-color:#C9AC68"/>
	</radialGradient>
	<circle id="XMLID_1181_" opacity="0.37" fill="url(#XMLID_10_)" cx="103.646" cy="101.113" r="4.002"/>
	
		<radialGradient id="XMLID_11_" cx="64.3809" cy="320.6035" r="2.002" gradientTransform="matrix(0.9542 -0.2991 0.2991 0.9542 -64.9658 -221.5532)" gradientUnits="userSpaceOnUse">
		<stop  offset="0" style="stop-color:#FFE5C2"/>
		<stop  offset="0.5476" style="stop-color:#FEC77C"/>
		<stop  offset="0.9525" style="stop-color:#C9AC68"/>
	</radialGradient>
	<circle id="XMLID_1180_" opacity="0.37" fill="url(#XMLID_11_)" cx="92.359" cy="65.11" r="2.002"/>
	
		<radialGradient id="XMLID_12_" cx="83.0566" cy="310.2285" r="2.0017" gradientTransform="matrix(0.9542 -0.2991 0.2991 0.9542 -64.9658 -221.5532)" gradientUnits="userSpaceOnUse">
		<stop  offset="0" style="stop-color:#FFE5C2"/>
		<stop  offset="0.5476" style="stop-color:#FEC77C"/>
		<stop  offset="0.9525" style="stop-color:#C9AC68"/>
	</radialGradient>
	<circle id="XMLID_1179_" opacity="0.37" fill="url(#XMLID_12_)" cx="107.076" cy="49.625" r="2.002"/>
	
		<radialGradient id="XMLID_13_" cx="138.7813" cy="342.5801" r="2.002" gradientTransform="matrix(0.9542 -0.2991 0.2991 0.9542 -64.9658 -221.5532)" gradientUnits="userSpaceOnUse">
		<stop  offset="0" style="stop-color:#FFE5C2"/>
		<stop  offset="0.5476" style="stop-color:#FEC77C"/>
		<stop  offset="0.9525" style="stop-color:#C9AC68"/>
	</radialGradient>
	<circle id="XMLID_1178_" opacity="0.37" fill="url(#XMLID_13_)" cx="169.925" cy="63.827" r="2.002"/>
	
		<radialGradient id="XMLID_14_" cx="128.9395" cy="307.2031" r="3.6777" gradientTransform="matrix(0.9542 -0.2991 0.2991 0.9542 -64.9658 -221.5532)" gradientUnits="userSpaceOnUse">
		<stop  offset="0" style="stop-color:#FFE5C2"/>
		<stop  offset="0.5476" style="stop-color:#FEC77C"/>
		<stop  offset="0.9525" style="stop-color:#C9AC68"/>
	</radialGradient>
	<circle id="XMLID_1177_" opacity="0.37" fill="url(#XMLID_14_)" cx="149.953" cy="33.014" r="3.678"/>
	
		<radialGradient id="XMLID_15_" cx="97.7603" cy="370.4307" r="3.6785" gradientTransform="matrix(0.9542 -0.2991 0.2991 0.9542 -64.9658 -221.5532)" gradientUnits="userSpaceOnUse">
		<stop  offset="0" style="stop-color:#FFE5C2"/>
		<stop  offset="0.5476" style="stop-color:#FEC77C"/>
		<stop  offset="0.9525" style="stop-color:#C9AC68"/>
	</radialGradient>
	<circle id="XMLID_1176_" opacity="0.37" fill="url(#XMLID_15_)" cx="139.113" cy="102.672" r="3.678"/>
	
		<radialGradient id="XMLID_16_" cx="109.4355" cy="294.9814" r="1.9604" gradientTransform="matrix(0.9542 -0.2991 0.2991 0.9542 -64.9658 -221.5532)" gradientUnits="userSpaceOnUse">
		<stop  offset="0" style="stop-color:#FFE5C2"/>
		<stop  offset="0.5476" style="stop-color:#FEC77C"/>
		<stop  offset="0.9525" style="stop-color:#C9AC68"/>
	</radialGradient>
	<circle id="XMLID_1175_" opacity="0.37" fill="url(#XMLID_16_)" cx="127.687" cy="27.185" r="1.961"/>
	
		<radialGradient id="XMLID_17_" cx="60.8091" cy="340.9414" r="71.6401" gradientTransform="matrix(0.9542 -0.2991 0.2991 0.9542 -64.9658 -221.5532)" gradientUnits="userSpaceOnUse">
		<stop  offset="0.1141" style="stop-color:#FFE5C2"/>
		<stop  offset="0.6835" style="stop-color:#FEC77C"/>
		<stop  offset="0.9525" style="stop-color:#C9AC68"/>
	</radialGradient>
	<path id="XMLID_1172_" opacity="0.25" fill="url(#XMLID_17_)" d="M166.052,36.293c0.725,1.658,1.366,3.362,1.915,5.115
		c1.973,6.29,2.665,12.775,2.105,19.151c1.336,0.061,2.556,0.94,2.979,2.289c0.539,1.724-0.423,3.565-2.146,4.104
		c-0.619,0.193-1.251,0.191-1.833,0.034c-0.67,2.985-1.625,5.922-2.855,8.779c1.325,1.288,2.359,2.917,2.952,4.808
		c1.886,6.019-1.415,12.431-7.358,14.295c-3.083,0.967-6.279,0.52-8.907-0.972c-2.886,2.468-6.061,4.598-9.472,6.353
		c0.165,0.292,0.302,0.606,0.407,0.94c0.816,2.605-0.639,5.391-3.244,6.207s-5.39-0.637-6.207-3.244
		c-0.03-0.1-0.057-0.195-0.081-0.295c-8.711,2.496-17.752,2.555-26.326,0.26c-0.646,0.932-1.592,1.668-2.756,2.033
		c-2.777,0.869-5.745-0.684-6.615-3.457c-0.233-0.744-0.292-1.504-0.2-2.231c-0.219-0.111-0.438-0.221-0.657-0.334
		c-5.686-2.974-10.642-6.933-14.694-11.664c4.501,10.295,12.307,18.691,22.406,23.971c11.727,6.129,25.137,7.322,37.764,3.365
		c12.626-3.959,22.955-12.596,29.085-24.322c6.129-11.727,7.324-25.138,3.367-37.766C173.642,47.209,170.356,41.318,166.052,36.293z
		 M132.979,114.283c-1.916,0.6-3.967-0.482-4.572-2.418c-0.604-1.93,0.46-3.99,2.375-4.592c1.914-0.6,3.965,0.482,4.571,2.418
		C135.96,111.621,134.895,113.684,132.979,114.283z"/>
	<path id="XMLID_1171_" opacity="0.56" fill="#F1F2F2" d="M89.285,38.457c3.677-3.007,8.132-0.42,6.512,4.402
		c-0.46,1.37-1.45,2.656-2.437,3.797c-1.363,1.571-2.869,3.063-4.432,3.873c-4.559,2.366-5.169-1.75-3.518-6.313
		C86.186,42.075,87.572,39.858,89.285,38.457z"/>
</g>
<g id="XMLID_1470_">
	<g id="XMLID_1557_">
		<radialGradient id="XMLID_18_" cx="41.3433" cy="71.9082" r="82.5664" gradientUnits="userSpaceOnUse">
			<stop  offset="0" style="stop-color:#E6E7E8"/>
			<stop  offset="1" style="stop-color:#939598"/>
		</radialGradient>
		<path id="XMLID_1577_" fill="url(#XMLID_18_)" d="M27.729,66.407c0.065,0,0.126,0.01,0.19,0.01c-0.12-1.048-0.19-2.113-0.19-3.192
			c0-15.235,12.349-27.583,27.581-27.583c13.208,0,24.24,9.285,26.942,21.681c3.35-2.038,7.268-3.229,11.474-3.229
			c12.241,0,22.164,9.922,22.164,22.164c0,0.438-0.041,0.867-0.065,1.302c1.061-0.202,2.149-0.318,3.268-0.318
			c9.655,0,17.485,7.83,17.485,17.485c0,9.655-7.83,17.485-17.485,17.485c-2.457,0-4.795-0.514-6.915-1.428
			c-3.975,3.774-9.335,6.106-15.249,6.106c-0.727,0-1.444-0.041-2.153-0.109c-4.066,4.733-10.082,7.744-16.809,7.744
			c-5.473,0-10.474-1.993-14.341-5.281c-3.778,2.99-8.542,4.788-13.733,4.788c-9.123,0-16.951-5.515-20.353-13.389
			c-0.598,0.048-1.2,0.093-1.812,0.093c-12.24,0-22.163-9.927-22.163-22.165C5.567,76.33,15.49,66.407,27.729,66.407z"/>
		<path id="XMLID_1576_" fill="#E6E7E8" d="M80.856,52.823c-4.105-10.077-13.993-17.18-25.546-17.18
			c-15.231,0-27.581,12.347-27.581,27.583c0,1.079,0.07,2.144,0.19,3.192c-0.063,0-0.125-0.01-0.19-0.01
			c-12.24,0-22.163,9.923-22.163,22.164c0,12.238,9.923,22.165,22.163,22.165c0.036,0,0.07-0.004,0.106-0.004
			C56.048,105.269,77.853,81.837,80.856,52.823z"/>
		<path id="XMLID_1575_" fill="#D1D3D4" d="M15.728,73.692c3.458-1.065,6.517,2.497,4.355,5.692c-0.613,0.908-1.63,1.565-2.618,2.11
			c-1.365,0.753-2.829,1.394-4.215,1.479c-4.038,0.26-3.774-3.158-1.637-6.141C12.614,75.436,14.116,74.189,15.728,73.692z"/>
		<path id="XMLID_1574_" fill="#D1D3D4" d="M44.059,41.767c4.99-1.124,9.019,4.305,5.684,8.618
			c-0.947,1.223-2.444,2.048-3.893,2.712c-1.995,0.915-4.124,1.661-6.093,1.63c-5.746-0.092-5.08-4.939-1.795-8.95
			C39.5,43.9,41.733,42.294,44.059,41.767z"/>
		<linearGradient id="XMLID_19_" gradientUnits="userSpaceOnUse" x1="50.6519" y1="90.7476" x2="112.92" y2="90.7476">
			<stop  offset="0" style="stop-color:#FFFFFF"/>
			<stop  offset="1" style="stop-color:#D1D3D4"/>
		</linearGradient>
		<path id="XMLID_1573_" fill="url(#XMLID_19_)" d="M136.578,94.726c0-9.656-7.83-17.485-17.485-17.485
			c-1.118,0-2.207,0.116-3.268,0.318c0.024-0.435,0.065-0.863,0.065-1.302c0-8.271-4.533-15.478-11.248-19.287
			c-10.79,3.504-18.594,13.635-18.594,25.596c0,2.823,0.437,5.542,1.242,8.101c-5.994,2.49-10.212,8.398-10.212,15.297
			c0,1.329,0.173,2.616,0.469,3.856H63.527c-7.111,0-12.875,5.765-12.875,12.875l0,0c0,0.445,0.024,0.884,0.067,1.319
			c4.871-0.182,9.332-1.942,12.908-4.771c3.867,3.288,8.868,5.281,14.341,5.281c6.727,0,12.743-3.011,16.809-7.744
			c0.709,0.068,1.426,0.109,2.153,0.109c5.914,0,11.274-2.332,15.249-6.106c2.12,0.914,4.458,1.428,6.915,1.428
			C128.748,112.211,136.578,104.381,136.578,94.726z"/>
		<linearGradient id="XMLID_20_" gradientUnits="userSpaceOnUse" x1="58.0039" y1="99.3325" x2="156.8704" y2="99.3325">
			<stop  offset="0" style="stop-color:#D1D3D4"/>
			<stop  offset="1" style="stop-color:#FFFFFF"/>
		</linearGradient>
		<path id="XMLID_1572_" fill="url(#XMLID_20_)" d="M184.044,113.475c0.286-1.219,0.452-2.482,0.452-3.791
			c0-9.146-7.416-16.561-16.563-16.561c-1.529,0-3.006,0.223-4.411,0.613c-1.377-7.761-8.139-13.656-16.292-13.656
			c-0.243,0-0.479,0.024-0.721,0.034c-2.792-11.885-13.456-20.739-26.194-20.739c-14.864,0-26.915,12.05-26.915,26.915
			c0,2.823,0.437,5.542,1.242,8.097c-5.994,2.494-10.212,8.402-10.212,15.297c0,1.332,0.175,2.62,0.471,3.856H70.879
			c-7.108,0-12.875,5.765-12.875,12.875l0,0c0,7.11,5.767,12.875,12.875,12.875h16.933h47.84h45.739
			c7.203,0,13.043-5.84,13.043-13.043l0,0C194.434,119.952,189.977,114.701,184.044,113.475z"/>
		<path id="XMLID_1571_" fill="#E6E7E8" d="M184.044,113.475c0.286-1.219,0.452-2.482,0.452-3.791
			c0-9.146-7.416-16.561-16.563-16.561c-1.529,0-3.006,0.223-4.411,0.613c-1.365-7.693-8.023-13.553-16.085-13.652
			c-0.478,25.949-15.589,48.318-37.432,59.207h25.646h45.739c7.203,0,13.043-5.84,13.043-13.043l0,0
			C194.434,119.952,189.977,114.701,184.044,113.475z"/>
		<path id="XMLID_1570_" fill="#F1F2F2" d="M181.516,104.785c0.891,3.508-2.818,6.385-5.902,4.066
			c-0.876-0.658-1.485-1.706-1.979-2.72c-0.684-1.401-1.248-2.895-1.269-4.281c-0.057-4.049,3.345-3.614,6.218-1.329
			C179.931,101.59,181.1,103.151,181.516,104.785z"/>
		<path id="XMLID_1569_" fill="#F1F2F2" d="M67.212,116.068c3.458-1.065,6.515,2.496,4.355,5.692
			c-0.613,0.907-1.63,1.565-2.618,2.109c-1.365,0.754-2.829,1.395-4.215,1.479c-4.04,0.261-3.776-3.157-1.637-6.141
			C64.099,117.812,65.599,116.564,67.212,116.068z"/>
		<path id="XMLID_1568_" fill="#FFFFFF" d="M111.962,63.362c4.99-1.127,9.019,4.302,5.686,8.614
			c-0.947,1.223-2.443,2.048-3.891,2.713c-1.999,0.915-4.127,1.661-6.097,1.63c-5.744-0.093-5.078-4.939-1.795-8.95
			C107.404,65.492,109.637,63.886,111.962,63.362z"/>
	</g>
	<g id="XMLID_1471_">
		<radialGradient id="XMLID_21_" cx="66.1025" cy="154.9707" r="6.8126" gradientUnits="userSpaceOnUse">
			<stop  offset="0.0428" style="stop-color:#A8E0F9"/>
			<stop  offset="0.6495" style="stop-color:#74D1F6"/>
			<stop  offset="1" style="stop-color:#27A8E0"/>
		</radialGradient>
		<path id="XMLID_1500_" fill="url(#XMLID_21_)" d="M72.691,157.396l-0.738-1.154c-0.043-0.068-0.128-0.093-0.201-0.062
			l-0.988,0.435l-1.018-0.394l1.208-0.534c0.081-0.034,0.118-0.13,0.082-0.213c-0.036-0.078-0.13-0.116-0.212-0.082l-1.502,0.665
			l-0.409-0.158l0.235-0.605c0.031-0.083-0.01-0.175-0.093-0.209c-0.082-0.031-0.176,0.01-0.209,0.092l-0.234,0.606l-0.413-0.161
			l-0.278-1.873l0.343-0.271l0.402,0.51c0.036,0.045,0.094,0.065,0.149,0.059c0.027-0.004,0.055-0.014,0.077-0.034
			c0.07-0.055,0.082-0.158,0.026-0.227l-0.403-0.507l0.367-0.291l1.591,0.185c0.014,0,0.029,0,0.043,0
			c0.07-0.014,0.128-0.068,0.135-0.144c0.01-0.086-0.051-0.168-0.141-0.178l-1.271-0.147l0.833-0.657l1.072,0.123
			c0,0,0.029,0,0.041,0c0.063-0.011,0.117-0.055,0.134-0.116l0.363-1.322c0.014-0.052,0.002-0.103-0.029-0.145
			c-0.033-0.037-0.081-0.062-0.132-0.062l-1.37,0.052c-0.079,0.003-0.144,0.065-0.154,0.144l-0.123,1.072l-0.856,0.678l0.152-1.312
			c0.01-0.089-0.053-0.168-0.14-0.178c-0.091-0.011-0.17,0.051-0.18,0.141l-0.188,1.63l-0.346,0.274l-0.402-0.511
			c-0.055-0.068-0.156-0.079-0.226-0.024c-0.07,0.056-0.081,0.154-0.026,0.227l0.402,0.507l-0.333,0.268l-1.781-0.706l-0.065-0.438
			l0.642-0.096c0.087-0.014,0.149-0.096,0.135-0.182c-0.014-0.089-0.094-0.15-0.182-0.137l-0.644,0.093l-0.066-0.463l0.954-1.284
			c0.053-0.072,0.04-0.172-0.032-0.227c-0.07-0.051-0.173-0.037-0.225,0.034l-0.764,1.028l-0.156-1.052l0.644-0.867
			c0.048-0.064,0.042-0.153-0.014-0.209l-0.962-0.976c-0.036-0.038-0.087-0.052-0.139-0.045s-0.094,0.038-0.118,0.082l-0.641,1.213
			c-0.038,0.068-0.017,0.157,0.046,0.206l0.865,0.64l0.159,1.083l-1.058-0.788c-0.072-0.055-0.173-0.038-0.226,0.034
			c-0.051,0.068-0.038,0.171,0.034,0.223l1.317,0.979l0.063,0.436l-0.641,0.096c-0.089,0.014-0.149,0.093-0.137,0.182
			c0.014,0.089,0.096,0.15,0.183,0.137l0.642-0.096l0.065,0.438l-1.524,1.209l-0.397-0.154l0.233-0.606
			c0.034-0.082-0.008-0.175-0.091-0.209c-0.082-0.03-0.176,0.011-0.209,0.093l-0.232,0.606l-0.411-0.158l-0.665-1.503
			c-0.036-0.082-0.13-0.117-0.21-0.082c-0.083,0.037-0.118,0.13-0.083,0.212l0.534,1.209l-1.019-0.394l-0.437-0.99
			c-0.031-0.072-0.113-0.109-0.188-0.089l-1.324,0.356c-0.049,0.014-0.089,0.051-0.108,0.099c-0.019,0.045-0.014,0.1,0.014,0.145
			l0.74,1.154c0.034,0.055,0.097,0.082,0.157,0.071c0.014-0.003,0.027-0.007,0.043-0.01l0.986-0.438l0.992,0.384l-1.171,0.517
			c-0.081,0.038-0.117,0.131-0.083,0.213c0.031,0.068,0.101,0.105,0.171,0.096c0.014-0.004,0.027-0.007,0.041-0.014l1.466-0.647
			l0.435,0.168l-0.233,0.606c-0.032,0.085,0.009,0.178,0.091,0.209c0.028,0.01,0.055,0.014,0.083,0.01
			c0.056-0.01,0.104-0.044,0.126-0.103l0.235-0.606l0.43,0.168l0.274,1.859l-0.354,0.278l-0.404-0.508
			c-0.055-0.068-0.156-0.082-0.226-0.027c-0.07,0.056-0.081,0.158-0.026,0.227l0.402,0.51l-0.344,0.271l-1.632-0.188
			c-0.087-0.011-0.168,0.055-0.178,0.14c-0.009,0.09,0.055,0.168,0.142,0.179l1.312,0.154l-0.856,0.678l-1.072-0.127
			c-0.079-0.007-0.152,0.041-0.173,0.12l-0.365,1.318c-0.012,0.052-0.001,0.104,0.031,0.145c0.031,0.041,0.081,0.062,0.132,0.062
			l1.369-0.052h0.012c0.079-0.014,0.134-0.068,0.142-0.144l0.125-1.072l0.833-0.657l-0.147,1.271
			c-0.01,0.089,0.053,0.168,0.141,0.178c0.016,0.004,0.031,0,0.043,0c0.07-0.01,0.128-0.068,0.137-0.14l0.185-1.593l0.367-0.291
			l0.402,0.51c0.038,0.048,0.096,0.068,0.15,0.059c0.026-0.004,0.053-0.014,0.076-0.031c0.07-0.055,0.082-0.157,0.027-0.226
			l-0.404-0.511l0.361-0.284l1.766,0.699l0.065,0.438l-0.644,0.097c-0.087,0.014-0.147,0.092-0.134,0.182
			c0.012,0.089,0.094,0.15,0.182,0.137l0.642-0.096l0.063,0.435l-0.979,1.318c-0.051,0.072-0.038,0.172,0.034,0.227
			c0.036,0.023,0.079,0.034,0.12,0.027c0.04-0.004,0.079-0.027,0.104-0.062l0.788-1.059l0.159,1.079l-0.644,0.866
			c-0.048,0.062-0.041,0.151,0.016,0.209l0.962,0.977c0.036,0.034,0.087,0.051,0.139,0.044c0.05-0.007,0.094-0.037,0.118-0.085
			l0.641-1.209c0.036-0.072,0.017-0.158-0.046-0.206l-0.867-0.644l-0.154-1.052l1.027,0.764c0.034,0.027,0.077,0.038,0.118,0.031
			s0.079-0.027,0.106-0.065c0.053-0.068,0.038-0.171-0.033-0.223l-1.286-0.955l-0.068-0.466l0.642-0.093
			c0.087-0.014,0.149-0.096,0.135-0.186c-0.012-0.085-0.094-0.146-0.183-0.133l-0.641,0.092l-0.065-0.438l1.499-1.185l0.413,0.161
			l-0.235,0.603c-0.032,0.086,0.009,0.178,0.091,0.209c0.027,0.01,0.055,0.014,0.083,0.01c0.055-0.01,0.106-0.044,0.126-0.103
			l0.235-0.603l0.437,0.168l0.647,1.466c0.031,0.065,0.101,0.103,0.169,0.093c0.016-0.004,0.029-0.007,0.043-0.011
			c0.081-0.037,0.118-0.134,0.082-0.212l-0.517-1.172l0.992,0.384l0.435,0.986c0.029,0.065,0.101,0.106,0.171,0.093h0.012
			l1.329-0.359c0.05-0.015,0.091-0.049,0.11-0.097C72.724,157.491,72.718,157.437,72.691,157.396z M70.302,150.895l1.012-0.037
			l-0.269,0.976l-0.841-0.1L70.302,150.895z M65.139,148.395l0.71,0.719l-0.505,0.682l-0.68-0.507L65.139,148.395z M60.448,153.437
			l-0.544-0.854l0.978-0.264l0.341,0.774L60.448,153.437z M61.904,159.074l-1.014,0.037l0.271-0.979l0.841,0.1L61.904,159.074z
			 M67.077,161.547l-0.712-0.723l0.505-0.679l0.68,0.504L67.077,161.547z M67.853,155.487l-1.43-0.551l1.208-0.959L67.853,155.487z
			 M67.438,153.721l-1.212,0.959l-0.224-1.528L67.438,153.721z M65.685,153.2l0.226,1.537l-1.458-0.564L65.685,153.2z
			 M64.366,154.484l1.415,0.548l-1.195,0.945L64.366,154.484z M64.792,156.225l1.197-0.946l0.223,1.511L64.792,156.225z
			 M66.531,156.741l-0.223-1.507l1.427,0.555L66.531,156.741z M71.323,157.646l-0.341-0.774l0.774-0.342l0.546,0.853L71.323,157.646
			z"/>
		<radialGradient id="XMLID_22_" cx="131.373" cy="156.3301" r="9.415" gradientUnits="userSpaceOnUse">
			<stop  offset="0.0428" style="stop-color:#A8E0F9"/>
			<stop  offset="0.6495" style="stop-color:#74D1F6"/>
			<stop  offset="1" style="stop-color:#27A8E0"/>
		</radialGradient>
		<path id="XMLID_1486_" fill="url(#XMLID_22_)" d="M140.478,159.68l-1.021-1.596c-0.06-0.093-0.177-0.127-0.277-0.082l-1.363,0.603
			l-1.407-0.545l1.669-0.736c0.113-0.051,0.163-0.182,0.113-0.294c-0.05-0.113-0.182-0.165-0.293-0.113l-2.075,0.918l-0.567-0.22
			l0.326-0.839c0.042-0.113-0.014-0.243-0.129-0.287c-0.114-0.045-0.243,0.014-0.288,0.13l-0.323,0.836l-0.572-0.223l-0.382-2.59
			l0.471-0.373l0.559,0.702c0.052,0.064,0.13,0.093,0.206,0.082c0.037-0.007,0.073-0.021,0.105-0.045
			c0.097-0.078,0.113-0.216,0.036-0.314l-0.557-0.702l0.507-0.401l2.199,0.254c0.019,0.003,0.038,0.003,0.059,0
			c0.096-0.014,0.176-0.093,0.188-0.195c0.014-0.12-0.074-0.229-0.195-0.247l-1.758-0.201l1.151-0.911l1.481,0.171
			c0.019,0,0.039,0,0.058,0c0.086-0.014,0.158-0.075,0.182-0.161l0.504-1.829c0.019-0.064,0.003-0.141-0.04-0.195
			c-0.044-0.055-0.112-0.085-0.183-0.085l-1.893,0.071c-0.109,0.004-0.2,0.089-0.212,0.195l-0.174,1.483l-1.183,0.935l0.212-1.812
			c0.014-0.12-0.073-0.233-0.195-0.247c-0.123-0.014-0.232,0.076-0.246,0.195l-0.264,2.254l-0.475,0.377l-0.557-0.702
			c-0.077-0.096-0.216-0.113-0.313-0.038c-0.096,0.079-0.111,0.216-0.036,0.315l0.557,0.702l-0.462,0.366l-2.461-0.976l-0.09-0.606
			l0.888-0.13c0.121-0.018,0.205-0.131,0.188-0.254c-0.02-0.12-0.132-0.205-0.254-0.188l-0.887,0.134l-0.095-0.641l1.32-1.777
			c0.072-0.1,0.054-0.236-0.046-0.312c-0.098-0.072-0.238-0.052-0.31,0.048l-1.056,1.418l-0.216-1.452l0.891-1.199
			c0.065-0.086,0.057-0.209-0.021-0.287l-1.329-1.347c-0.051-0.051-0.121-0.075-0.191-0.065c-0.07,0.011-0.13,0.056-0.164,0.117
			l-0.886,1.675c-0.052,0.096-0.024,0.216,0.065,0.28l1.196,0.891l0.22,1.49l-1.464-1.086c-0.1-0.075-0.238-0.055-0.313,0.045
			c-0.073,0.1-0.053,0.239,0.047,0.312l1.822,1.353l0.087,0.604l-0.887,0.13c-0.122,0.017-0.206,0.13-0.188,0.25
			c0.019,0.123,0.132,0.205,0.253,0.188l0.888-0.13l0.089,0.605l-2.104,1.668l-0.552-0.212l0.325-0.836
			c0.045-0.116-0.014-0.243-0.127-0.287c-0.114-0.045-0.243,0.01-0.287,0.126l-0.325,0.836l-0.565-0.219l-0.918-2.076
			c-0.05-0.112-0.182-0.161-0.293-0.112c-0.111,0.048-0.163,0.181-0.114,0.294l0.739,1.668l-1.407-0.544l-0.604-1.363
			c-0.044-0.104-0.157-0.154-0.262-0.127l-1.827,0.493c-0.068,0.017-0.125,0.068-0.15,0.134c-0.026,0.068-0.018,0.141,0.021,0.202
			l1.021,1.596c0.048,0.072,0.134,0.109,0.219,0.1c0.021-0.004,0.04-0.011,0.059-0.018l1.363-0.603l1.37,0.531l-1.617,0.716
			c-0.113,0.048-0.164,0.178-0.114,0.291c0.041,0.092,0.139,0.144,0.236,0.13c0.019-0.004,0.039-0.007,0.057-0.018l2.023-0.894
			l0.604,0.233l-0.323,0.835c-0.045,0.117,0.012,0.243,0.127,0.288c0.037,0.018,0.075,0.021,0.113,0.014
			c0.076-0.011,0.144-0.062,0.174-0.141l0.324-0.836l0.594,0.229l0.379,2.569l-0.491,0.387l-0.557-0.702
			c-0.075-0.096-0.214-0.113-0.312-0.037c-0.098,0.075-0.113,0.216-0.036,0.312l0.557,0.705l-0.477,0.377l-2.254-0.264
			c-0.121-0.014-0.232,0.075-0.248,0.195c-0.014,0.123,0.075,0.232,0.197,0.246l1.812,0.213l-1.182,0.935l-1.481-0.171
			c-0.109-0.014-0.212,0.055-0.239,0.161l-0.504,1.825c-0.019,0.068-0.003,0.145,0.041,0.199c0.045,0.055,0.111,0.085,0.182,0.082
			l1.893-0.068c0,0,0.017,0,0.025-0.004c0.098-0.014,0.175-0.092,0.187-0.195l0.173-1.479l1.151-0.911l-0.204,1.758
			c-0.014,0.119,0.074,0.229,0.195,0.246c0.021,0,0.039,0,0.059-0.003c0.098-0.014,0.176-0.093,0.188-0.192l0.255-2.199l0.507-0.4
			l0.559,0.702c0.05,0.065,0.13,0.093,0.205,0.082c0.038-0.007,0.075-0.021,0.106-0.044c0.096-0.079,0.111-0.22,0.036-0.315
			l-0.557-0.702l0.498-0.394l2.438,0.966l0.089,0.605l-0.887,0.131c-0.121,0.017-0.205,0.13-0.187,0.253
			c0.017,0.12,0.13,0.206,0.252,0.188l0.889-0.134l0.087,0.604l-1.353,1.822c-0.073,0.096-0.053,0.236,0.046,0.308
			c0.048,0.038,0.108,0.052,0.165,0.045c0.055-0.011,0.109-0.041,0.146-0.089l1.089-1.463l0.219,1.49l-0.889,1.198
			c-0.064,0.086-0.058,0.209,0.021,0.288l1.329,1.35c0.05,0.048,0.12,0.071,0.192,0.062c0.068-0.011,0.13-0.052,0.162-0.116
			l0.886-1.675c0.051-0.097,0.023-0.216-0.063-0.281l-1.197-0.891l-0.214-1.452l1.42,1.055c0.05,0.038,0.107,0.052,0.164,0.041
			c0.057-0.007,0.109-0.037,0.146-0.085c0.074-0.1,0.054-0.24-0.044-0.313l-1.778-1.321l-0.094-0.638l0.887-0.133
			c0.122-0.018,0.206-0.131,0.188-0.251c-0.017-0.123-0.13-0.205-0.252-0.188l-0.889,0.13l-0.089-0.606l2.07-1.641l0.57,0.223
			l-0.323,0.836c-0.045,0.116,0.012,0.243,0.126,0.287c0.038,0.014,0.077,0.018,0.113,0.014c0.077-0.014,0.146-0.062,0.175-0.14
			l0.324-0.836l0.603,0.232l0.896,2.024c0.041,0.093,0.139,0.144,0.236,0.13c0.019-0.003,0.039-0.007,0.057-0.017
			c0.113-0.048,0.164-0.182,0.114-0.295l-0.716-1.616l1.37,0.53l0.604,1.363c0.039,0.093,0.139,0.145,0.234,0.131
			c0,0,0.017-0.004,0.027-0.004l1.829-0.493c0.066-0.021,0.123-0.068,0.148-0.134C140.524,159.813,140.516,159.742,140.478,159.68z
			 M137.176,150.699l1.399-0.055l-0.373,1.35l-1.161-0.134L137.176,150.699z M130.041,147.243l0.983,0.997l-0.697,0.938
			l-0.939-0.699L130.041,147.243z M123.562,154.214l-0.756-1.182l1.354-0.363l0.473,1.072L123.562,154.214z M125.57,161.999
			l-1.399,0.051l0.371-1.349l1.163,0.137L125.57,161.999z M132.718,165.417l-0.982-0.996l0.698-0.938l0.938,0.698L132.718,165.417z
			 M133.792,157.046l-1.977-0.764l1.67-1.322L133.792,157.046z M133.219,154.604l-1.674,1.325l-0.31-2.113L133.219,154.604z
			 M130.795,153.881l0.313,2.128l-2.013-0.781L130.795,153.881z M128.975,155.659l1.956,0.757l-1.651,1.309L128.975,155.659z
			 M129.563,158.066l1.654-1.312l0.309,2.09L129.563,158.066z M131.967,158.779l-0.307-2.082l1.969,0.764L131.967,158.779z
			 M138.587,160.029l-0.473-1.072l1.07-0.473l0.754,1.179L138.587,160.029z"/>
		<radialGradient id="XMLID_23_" cx="102.707" cy="167.2305" r="7.594" gradientUnits="userSpaceOnUse">
			<stop  offset="0.0428" style="stop-color:#A8E0F9"/>
			<stop  offset="0.6495" style="stop-color:#74D1F6"/>
			<stop  offset="1" style="stop-color:#27A8E0"/>
		</radialGradient>
		<path id="XMLID_1472_" fill="url(#XMLID_23_)" d="M110.051,169.932l-0.824-1.284c-0.048-0.076-0.142-0.106-0.223-0.069
			l-1.101,0.486l-1.134-0.438l1.346-0.597c0.091-0.041,0.131-0.147,0.093-0.236c-0.041-0.092-0.147-0.134-0.238-0.092l-1.673,0.739
			l-0.457-0.175l0.262-0.675c0.034-0.092-0.011-0.198-0.103-0.232c-0.093-0.038-0.197,0.01-0.233,0.103l-0.26,0.675l-0.463-0.178
			l-0.308-2.09l0.382-0.301l0.448,0.564c0.041,0.052,0.104,0.075,0.166,0.068c0.031-0.007,0.061-0.017,0.086-0.037
			c0.078-0.062,0.091-0.175,0.029-0.254l-0.449-0.564l0.409-0.326l1.772,0.206c0.016,0.003,0.033,0.003,0.047,0
			c0.078-0.011,0.144-0.075,0.152-0.158c0.012-0.099-0.061-0.185-0.158-0.198l-1.416-0.164l0.929-0.736l1.195,0.14
			c0.015,0.004,0.03,0,0.046,0c0.068-0.01,0.129-0.062,0.147-0.13l0.405-1.473c0.015-0.055,0.002-0.113-0.034-0.161
			c-0.034-0.044-0.089-0.068-0.146-0.065l-1.526,0.056c-0.087,0.003-0.161,0.071-0.171,0.16l-0.139,1.192l-0.954,0.757l0.169-1.463
			c0.013-0.099-0.058-0.188-0.157-0.198c-0.098-0.01-0.187,0.059-0.198,0.157l-0.211,1.819l-0.384,0.305l-0.448-0.568
			c-0.062-0.079-0.175-0.093-0.252-0.031c-0.079,0.062-0.093,0.175-0.031,0.254l0.449,0.568l-0.372,0.295l-1.984-0.788l-0.072-0.49
			l0.716-0.103c0.098-0.017,0.165-0.106,0.151-0.205c-0.015-0.097-0.106-0.165-0.204-0.151l-0.714,0.106l-0.077-0.518l1.063-1.432
			c0.06-0.078,0.044-0.191-0.036-0.25c-0.081-0.062-0.192-0.044-0.252,0.034l-0.85,1.147l-0.173-1.175l0.718-0.962
			c0.053-0.072,0.046-0.172-0.018-0.233l-1.071-1.089c-0.042-0.041-0.098-0.059-0.154-0.052c-0.057,0.011-0.106,0.045-0.132,0.093
			l-0.715,1.353c-0.041,0.079-0.019,0.175,0.052,0.227l0.966,0.719l0.178,1.203l-1.182-0.877c-0.08-0.059-0.191-0.045-0.25,0.037
			c-0.062,0.079-0.044,0.192,0.036,0.25l1.47,1.093l0.07,0.483l-0.716,0.105c-0.098,0.014-0.166,0.106-0.151,0.202
			c0.014,0.1,0.104,0.168,0.204,0.151l0.714-0.104l0.074,0.486l-1.699,1.347l-0.443-0.172l0.261-0.674
			c0.037-0.093-0.009-0.195-0.102-0.233c-0.093-0.034-0.197,0.011-0.231,0.103l-0.262,0.675l-0.457-0.175l-0.74-1.675
			c-0.039-0.089-0.146-0.13-0.236-0.092c-0.091,0.041-0.13,0.146-0.091,0.236l0.595,1.346l-1.136-0.438l-0.484-1.1
			c-0.036-0.082-0.127-0.123-0.212-0.1l-1.473,0.397c-0.056,0.014-0.101,0.055-0.122,0.106c-0.021,0.055-0.015,0.113,0.016,0.161
			l0.824,1.288c0.04,0.062,0.108,0.092,0.178,0.078c0.015,0,0.031-0.003,0.046-0.01l1.1-0.486l1.104,0.425l-1.305,0.578
			c-0.091,0.041-0.13,0.145-0.091,0.236c0.032,0.076,0.113,0.117,0.19,0.106c0.016-0.003,0.031-0.007,0.046-0.014l1.632-0.723
			l0.488,0.188l-0.262,0.675c-0.036,0.093,0.01,0.195,0.103,0.232c0.029,0.011,0.06,0.014,0.091,0.011
			c0.062-0.011,0.116-0.052,0.14-0.113l0.262-0.675l0.479,0.186l0.305,2.072l-0.394,0.312l-0.449-0.569
			c-0.062-0.075-0.175-0.089-0.253-0.027c-0.077,0.063-0.091,0.175-0.027,0.25l0.449,0.569l-0.384,0.305l-1.819-0.213
			c-0.099-0.01-0.188,0.059-0.198,0.158c-0.012,0.099,0.058,0.188,0.157,0.198l1.461,0.172l-0.954,0.753l-1.195-0.137
			c-0.087-0.011-0.167,0.044-0.192,0.13l-0.406,1.473c-0.015,0.055-0.003,0.113,0.033,0.158c0.036,0.044,0.091,0.068,0.147,0.068
			l1.526-0.059c0,0,0.014,0,0.019,0c0.081-0.014,0.144-0.075,0.152-0.157l0.139-1.195l0.93-0.736l-0.166,1.418
			c-0.01,0.099,0.06,0.188,0.157,0.198c0.017,0.004,0.033,0.004,0.048,0c0.079-0.01,0.143-0.075,0.151-0.157l0.208-1.771
			l0.409-0.325l0.448,0.568c0.041,0.052,0.106,0.072,0.166,0.065c0.031-0.003,0.061-0.017,0.086-0.037
			c0.077-0.063,0.091-0.175,0.029-0.25l-0.449-0.569l0.401-0.318l1.97,0.781l0.071,0.486l-0.716,0.106
			c-0.1,0.014-0.166,0.105-0.152,0.205c0.016,0.096,0.106,0.164,0.204,0.15l0.716-0.105l0.071,0.486l-1.092,1.466
			c-0.059,0.082-0.041,0.191,0.037,0.253c0.04,0.027,0.088,0.038,0.134,0.031c0.045-0.007,0.087-0.031,0.116-0.068l0.879-1.182
			l0.177,1.202l-0.717,0.966c-0.053,0.071-0.046,0.171,0.016,0.232l1.074,1.09c0.039,0.041,0.096,0.058,0.152,0.051
			c0.057-0.01,0.106-0.044,0.134-0.096l0.712-1.35c0.043-0.078,0.021-0.175-0.051-0.226l-0.966-0.72l-0.174-1.171l1.146,0.849
			c0.039,0.031,0.089,0.042,0.133,0.035c0.047-0.007,0.088-0.031,0.118-0.069c0.059-0.082,0.043-0.191-0.037-0.253l-1.432-1.065
			l-0.077-0.514l0.718-0.106c0.096-0.014,0.164-0.105,0.15-0.202c-0.016-0.099-0.106-0.168-0.205-0.154l-0.715,0.106l-0.073-0.489
			l1.67-1.322l0.46,0.178l-0.26,0.675c-0.036,0.093,0.01,0.199,0.103,0.233c0.029,0.01,0.06,0.014,0.091,0.01
			c0.062-0.01,0.116-0.051,0.141-0.113l0.26-0.674l0.488,0.188l0.721,1.634c0.035,0.076,0.113,0.117,0.19,0.104
			c0.016,0,0.031-0.004,0.046-0.011c0.091-0.041,0.132-0.147,0.091-0.239l-0.575-1.302l1.104,0.425l0.486,1.103
			c0.033,0.072,0.111,0.116,0.19,0.103c0,0,0.014,0,0.021-0.003l1.475-0.397c0.057-0.014,0.1-0.055,0.121-0.109
			C110.087,170.041,110.081,169.979,110.051,169.932z M107.388,162.688l1.127-0.041l-0.3,1.089l-0.937-0.109L107.388,162.688z
			 M101.634,159.902l0.793,0.802l-0.563,0.757l-0.759-0.562L101.634,159.902z M96.407,165.523l-0.608-0.952l1.089-0.295l0.382,0.863
			L96.407,165.523z M98.028,171.802l-1.128,0.044l0.3-1.089l0.937,0.109L98.028,171.802z M103.793,174.559L103,173.758l0.563-0.761
			l0.757,0.565L103.793,174.559z M104.659,167.808l-1.594-0.616l1.346-1.065L104.659,167.808z M104.197,165.839l-1.35,1.068
			l-0.252-1.702L104.197,165.839z M102.241,165.256l0.252,1.713l-1.622-0.627L102.241,165.256z M100.772,166.688l1.578,0.613
			l-1.332,1.052L100.772,166.688z M101.248,168.63l1.334-1.059l0.248,1.686L101.248,168.63z M103.185,169.205l-0.246-1.678
			l1.589,0.613L103.185,169.205z M108.526,170.212l-0.38-0.862l0.861-0.381l0.607,0.949L108.526,170.212z"/>
	</g>
</g>
</svg>
