<?xml version="1.0" encoding="utf-8"?>
<!-- Generator: Adobe Illustrator 16.0.0, SVG Export Plug-In . SVG Version: 6.00 Build 0)  -->
<!DOCTYPE svg PUBLIC "-//W3C//DTD SVG 1.1//EN" "http://www.w3.org/Graphics/SVG/1.1/DTD/svg11.dtd">
<svg version="1.1" id="Layer_1" xmlns="http://www.w3.org/2000/svg" xmlns:xlink="http://www.w3.org/1999/xlink" x="0px" y="0px"
	 width="200px" height="200px" viewBox="0 0 200 200" enable-background="new 0 0 200 200" xml:space="preserve">
<g id="XMLID_1832_">
	<g id="XMLID_1837_">
		<polygon id="XMLID_1840_" fill="#F7941E" points="88.274,31.622 105.8,30.551 115.485,15.902 131.196,23.761 146.904,15.902 
			156.589,30.551 174.115,31.622 175.188,49.148 189.836,58.834 181.977,74.543 189.836,90.253 175.188,99.94 174.115,117.465 
			156.589,118.535 146.904,133.186 131.194,125.324 115.485,133.186 105.8,118.535 88.274,117.465 87.202,99.94 72.554,90.253 
			80.412,74.543 72.554,58.834 87.202,49.148 		"/>
		
			<linearGradient id="XMLID_2_" gradientUnits="userSpaceOnUse" x1="753.5264" y1="-1652.9961" x2="871.2096" y2="-1652.9961" gradientTransform="matrix(0.7071 0.7071 -0.7071 0.7071 -1613 668.0166)">
			<stop  offset="0.017" style="stop-color:#FFC635"/>
			<stop  offset="0.2379" style="stop-color:#FBB040"/>
			<stop  offset="0.7876" style="stop-color:#F7941E"/>
			<stop  offset="0.9796" style="stop-color:#F47B20"/>
		</linearGradient>
		<polygon id="XMLID_1839_" fill="url(#XMLID_2_)" points="67.777,74.543 79.934,60.804 76.267,42.827 93.679,37.027 99.479,19.615 
			117.456,23.282 131.196,11.125 144.934,23.282 162.912,19.615 168.711,37.027 186.123,42.827 182.456,60.804 194.612,74.543 
			182.456,88.283 186.123,106.26 168.711,112.061 162.911,129.473 144.934,125.805 131.196,137.961 117.456,125.805 99.477,129.473 
			93.679,112.061 76.267,106.26 79.934,88.283 		"/>
		<radialGradient id="XMLID_3_" cx="123.2051" cy="66.9585" r="54.9667" gradientUnits="userSpaceOnUse">
			<stop  offset="0.0333" style="stop-color:#FFDE88"/>
			<stop  offset="0.3449" style="stop-color:#FFC635"/>
			<stop  offset="0.5538" style="stop-color:#FBB040"/>
			<stop  offset="0.7876" style="stop-color:#F7941E"/>
			<stop  offset="0.9796" style="stop-color:#F47B20"/>
		</radialGradient>
		<circle id="XMLID_1838_" fill="url(#XMLID_3_)" cx="131.195" cy="74.543" r="48.038"/>
	</g>
</g>
<g id="XMLID_1470_">
	<g id="XMLID_1557_">
		<radialGradient id="XMLID_4_" cx="41.1646" cy="76.6851" r="82.5662" gradientUnits="userSpaceOnUse">
			<stop  offset="0" style="stop-color:#E6E7E8"/>
			<stop  offset="1" style="stop-color:#939598"/>
		</radialGradient>
		<path id="XMLID_1577_" fill="url(#XMLID_4_)" d="M27.551,71.184c0.065,0,0.126,0.01,0.19,0.01c-0.12-1.048-0.19-2.113-0.19-3.192
			c0-15.235,12.349-27.583,27.581-27.583c13.208,0,24.24,9.285,26.942,21.681c3.35-2.038,7.268-3.229,11.474-3.229
			c12.241,0,22.164,9.922,22.164,22.164c0,0.438-0.041,0.867-0.065,1.302c1.061-0.202,2.149-0.318,3.268-0.318
			c9.655,0,17.485,7.83,17.485,17.485c0,9.655-7.83,17.485-17.485,17.485c-2.457,0-4.795-0.514-6.915-1.428
			c-3.975,3.773-9.335,6.105-15.249,6.105c-0.727,0-1.444-0.041-2.153-0.109c-4.066,4.734-10.082,7.744-16.809,7.744
			c-5.473,0-10.474-1.992-14.341-5.281c-3.778,2.99-8.542,4.789-13.733,4.789c-9.123,0-16.951-5.516-20.353-13.389
			c-0.598,0.047-1.2,0.092-1.812,0.092c-12.24,0-22.163-9.926-22.163-22.164C5.388,81.106,15.311,71.184,27.551,71.184z"/>
		<path id="XMLID_1576_" fill="#E6E7E8" d="M80.678,57.6c-4.105-10.077-13.993-17.18-25.546-17.18
			c-15.231,0-27.581,12.347-27.581,27.583c0,1.079,0.07,2.144,0.19,3.192c-0.063,0-0.125-0.01-0.19-0.01
			c-12.24,0-22.163,9.923-22.163,22.164c0,12.238,9.923,22.164,22.163,22.164c0.036,0,0.07-0.004,0.106-0.004
			C55.87,110.045,77.674,86.614,80.678,57.6z"/>
		<path id="XMLID_1575_" fill="#D1D3D4" d="M15.549,78.469c3.458-1.065,6.517,2.497,4.355,5.692c-0.613,0.908-1.63,1.565-2.618,2.11
			c-1.365,0.753-2.829,1.394-4.215,1.479c-4.038,0.26-3.774-3.158-1.637-6.141C12.436,80.212,13.938,78.966,15.549,78.469z"/>
		<path id="XMLID_1574_" fill="#D1D3D4" d="M43.88,46.543c4.99-1.124,9.019,4.305,5.684,8.618c-0.947,1.223-2.444,2.048-3.893,2.712
			c-1.995,0.915-4.124,1.661-6.093,1.63c-5.746-0.092-5.08-4.939-1.795-8.95C39.321,48.677,41.554,47.071,43.88,46.543z"/>
		<linearGradient id="XMLID_5_" gradientUnits="userSpaceOnUse" x1="50.4731" y1="95.5244" x2="112.7413" y2="95.5244">
			<stop  offset="0" style="stop-color:#FFFFFF"/>
			<stop  offset="1" style="stop-color:#D1D3D4"/>
		</linearGradient>
		<path id="XMLID_1573_" fill="url(#XMLID_5_)" d="M136.399,99.503c0-9.656-7.83-17.485-17.485-17.485
			c-1.118,0-2.207,0.116-3.268,0.318c0.024-0.435,0.065-0.863,0.065-1.302c0-8.271-4.533-15.478-11.248-19.287
			C93.674,65.251,85.87,75.383,85.87,87.343c0,2.823,0.437,5.542,1.242,8.101c-5.994,2.49-10.212,8.398-10.212,15.296
			c0,1.33,0.173,2.617,0.469,3.857H63.349c-7.111,0-12.875,5.764-12.875,12.875l0,0c0,0.445,0.024,0.883,0.067,1.318
			c4.871-0.182,9.332-1.941,12.908-4.771c3.867,3.289,8.868,5.281,14.341,5.281c6.727,0,12.743-3.01,16.809-7.744
			c0.709,0.068,1.426,0.109,2.153,0.109c5.914,0,11.274-2.332,15.249-6.105c2.12,0.914,4.458,1.428,6.915,1.428
			C128.569,116.988,136.399,109.158,136.399,99.503z"/>
		<linearGradient id="XMLID_6_" gradientUnits="userSpaceOnUse" x1="57.8252" y1="104.1094" x2="156.6917" y2="104.1094">
			<stop  offset="0" style="stop-color:#D1D3D4"/>
			<stop  offset="1" style="stop-color:#FFFFFF"/>
		</linearGradient>
		<path id="XMLID_1572_" fill="url(#XMLID_6_)" d="M183.865,118.252c0.286-1.219,0.452-2.482,0.452-3.791
			c0-9.146-7.416-16.561-16.563-16.561c-1.529,0-3.006,0.223-4.411,0.613c-1.377-7.761-8.139-13.656-16.292-13.656
			c-0.243,0-0.479,0.024-0.721,0.034c-2.792-11.885-13.456-20.739-26.194-20.739c-14.864,0-26.915,12.05-26.915,26.915
			c0,2.823,0.437,5.542,1.242,8.097c-5.994,2.494-10.212,8.403-10.212,15.297c0,1.332,0.175,2.619,0.471,3.855H70.7
			c-7.108,0-12.875,5.766-12.875,12.875l0,0c0,7.111,5.767,12.875,12.875,12.875h16.933h47.84h45.739
			c7.203,0,13.043-5.84,13.043-13.043l0,0C194.255,124.729,189.798,119.479,183.865,118.252z"/>
		<path id="XMLID_1571_" fill="#E6E7E8" d="M183.865,118.252c0.286-1.219,0.452-2.482,0.452-3.791
			c0-9.146-7.416-16.561-16.563-16.561c-1.529,0-3.006,0.223-4.411,0.613c-1.365-7.693-8.023-13.553-16.085-13.652
			c-0.478,25.948-15.589,48.317-37.432,59.206h25.646h45.739c7.203,0,13.043-5.84,13.043-13.043l0,0
			C194.255,124.729,189.798,119.479,183.865,118.252z"/>
		<path id="XMLID_1570_" fill="#F1F2F2" d="M181.337,109.563c0.891,3.508-2.818,6.385-5.902,4.066
			c-0.876-0.658-1.485-1.707-1.979-2.721c-0.684-1.4-1.248-2.895-1.269-4.281c-0.057-4.049,3.345-3.613,6.218-1.328
			C179.752,106.367,180.921,107.928,181.337,109.563z"/>
		<path id="XMLID_1569_" fill="#F1F2F2" d="M67.034,120.846c3.458-1.066,6.515,2.496,4.355,5.691
			c-0.613,0.908-1.63,1.566-2.618,2.109c-1.365,0.754-2.829,1.395-4.215,1.48c-4.04,0.26-3.776-3.158-1.637-6.141
			C63.92,122.588,65.42,121.342,67.034,120.846z"/>
		<path id="XMLID_1568_" fill="#FFFFFF" d="M111.783,68.139c4.99-1.127,9.019,4.302,5.686,8.614
			c-0.947,1.223-2.443,2.048-3.891,2.713c-1.999,0.915-4.127,1.661-6.097,1.63c-5.744-0.093-5.078-4.939-1.795-8.95
			C107.226,70.269,109.458,68.663,111.783,68.139z"/>
	</g>
	<g id="XMLID_1471_">
		<radialGradient id="XMLID_7_" cx="65.9238" cy="159.7471" r="6.8126" gradientUnits="userSpaceOnUse">
			<stop  offset="0.0428" style="stop-color:#A8E0F9"/>
			<stop  offset="0.6495" style="stop-color:#74D1F6"/>
			<stop  offset="1" style="stop-color:#27A8E0"/>
		</radialGradient>
		<path id="XMLID_1500_" fill="url(#XMLID_7_)" d="M72.512,162.172l-0.738-1.154c-0.043-0.068-0.128-0.092-0.201-0.061l-0.988,0.434
			l-1.018-0.393l1.208-0.535c0.081-0.033,0.118-0.129,0.082-0.213c-0.036-0.078-0.13-0.115-0.212-0.082l-1.502,0.666l-0.409-0.158
			l0.235-0.605c0.031-0.084-0.01-0.176-0.093-0.209c-0.082-0.031-0.176,0.01-0.209,0.092l-0.234,0.605l-0.413-0.16l-0.278-1.873
			l0.343-0.271l0.402,0.51c0.036,0.045,0.094,0.066,0.149,0.059c0.027-0.004,0.055-0.014,0.077-0.033
			c0.07-0.055,0.082-0.158,0.026-0.227l-0.403-0.508l0.367-0.291l1.591,0.186c0.014,0,0.029,0,0.043,0
			c0.07-0.014,0.128-0.068,0.135-0.145c0.01-0.086-0.051-0.168-0.141-0.178l-1.271-0.146l0.833-0.658l1.072,0.123
			c0,0,0.029,0,0.041,0c0.063-0.01,0.117-0.055,0.134-0.115l0.363-1.322c0.014-0.053,0.002-0.104-0.029-0.145
			c-0.033-0.037-0.081-0.063-0.132-0.063l-1.37,0.053c-0.079,0.002-0.144,0.064-0.154,0.143l-0.123,1.072l-0.856,0.678l0.152-1.311
			c0.01-0.09-0.053-0.168-0.14-0.178c-0.091-0.012-0.17,0.051-0.18,0.141l-0.188,1.629l-0.346,0.275l-0.402-0.512
			c-0.055-0.068-0.156-0.078-0.226-0.023s-0.081,0.154-0.026,0.227L67.885,158l-0.333,0.268l-1.781-0.705l-0.065-0.439l0.642-0.096
			c0.087-0.014,0.149-0.096,0.135-0.182c-0.014-0.088-0.094-0.15-0.182-0.137l-0.644,0.094l-0.066-0.463l0.954-1.285
			c0.053-0.072,0.04-0.172-0.032-0.227c-0.07-0.051-0.173-0.037-0.225,0.035l-0.764,1.027l-0.156-1.051l0.644-0.867
			c0.048-0.064,0.042-0.154-0.014-0.209l-0.962-0.977c-0.036-0.037-0.087-0.051-0.139-0.045c-0.051,0.008-0.094,0.039-0.118,0.082
			l-0.641,1.213c-0.038,0.068-0.017,0.158,0.046,0.207l0.865,0.639l0.159,1.084l-1.058-0.789c-0.072-0.055-0.173-0.037-0.226,0.035
			c-0.051,0.068-0.038,0.17,0.034,0.223l1.317,0.979l0.063,0.436l-0.641,0.096c-0.089,0.014-0.149,0.094-0.137,0.182
			c0.014,0.09,0.096,0.15,0.183,0.137l0.642-0.096l0.065,0.439l-1.524,1.209l-0.397-0.154l0.233-0.607
			c0.034-0.082-0.008-0.174-0.091-0.209c-0.082-0.029-0.176,0.012-0.209,0.094l-0.232,0.605l-0.411-0.158l-0.665-1.502
			c-0.036-0.082-0.13-0.117-0.21-0.082c-0.083,0.037-0.118,0.129-0.083,0.211l0.534,1.209l-1.019-0.393l-0.437-0.99
			c-0.031-0.072-0.113-0.109-0.188-0.09l-1.324,0.357c-0.049,0.014-0.089,0.051-0.108,0.098c-0.019,0.045-0.014,0.1,0.014,0.145
			l0.74,1.154c0.034,0.055,0.097,0.082,0.157,0.072c0.014-0.004,0.027-0.008,0.043-0.01l0.986-0.439l0.992,0.385l-1.171,0.516
			c-0.081,0.039-0.117,0.131-0.083,0.213c0.031,0.068,0.101,0.105,0.171,0.096c0.014-0.004,0.027-0.006,0.041-0.014l1.466-0.646
			l0.435,0.168l-0.233,0.605c-0.032,0.086,0.009,0.178,0.091,0.209c0.028,0.01,0.055,0.014,0.083,0.01
			c0.056-0.01,0.104-0.043,0.126-0.102l0.235-0.607l0.43,0.168l0.274,1.859l-0.354,0.279l-0.404-0.508
			c-0.055-0.068-0.156-0.082-0.226-0.027c-0.07,0.055-0.081,0.158-0.026,0.227l0.402,0.51l-0.344,0.271l-1.632-0.189
			c-0.087-0.01-0.168,0.055-0.178,0.141c-0.009,0.09,0.055,0.168,0.142,0.178l1.312,0.154l-0.856,0.678l-1.072-0.127
			c-0.079-0.006-0.152,0.041-0.173,0.121l-0.365,1.318c-0.012,0.051-0.001,0.104,0.031,0.145c0.031,0.041,0.081,0.061,0.132,0.061
			l1.369-0.051h0.012c0.079-0.014,0.134-0.068,0.142-0.145l0.125-1.072l0.833-0.656l-0.147,1.27c-0.01,0.09,0.053,0.168,0.141,0.178
			c0.016,0.004,0.031,0,0.043,0c0.07-0.01,0.128-0.068,0.137-0.139l0.185-1.594l0.367-0.291l0.402,0.51
			c0.038,0.049,0.096,0.068,0.15,0.059c0.026-0.004,0.053-0.014,0.076-0.031c0.07-0.055,0.082-0.156,0.027-0.225l-0.404-0.512
			l0.361-0.283l1.766,0.699l0.065,0.438l-0.644,0.096c-0.087,0.014-0.147,0.092-0.134,0.182c0.012,0.09,0.094,0.15,0.182,0.137
			l0.642-0.096l0.063,0.436l-0.979,1.318c-0.051,0.072-0.038,0.172,0.034,0.227c0.036,0.023,0.079,0.033,0.12,0.027
			c0.04-0.004,0.079-0.027,0.104-0.063l0.788-1.059l0.159,1.08l-0.644,0.865c-0.048,0.063-0.041,0.152,0.016,0.209l0.962,0.977
			c0.036,0.035,0.087,0.051,0.139,0.045c0.05-0.008,0.094-0.037,0.118-0.086l0.641-1.209c0.036-0.072,0.017-0.158-0.046-0.205
			l-0.867-0.645l-0.154-1.051l1.027,0.764c0.034,0.027,0.077,0.037,0.118,0.031c0.041-0.008,0.079-0.027,0.106-0.066
			c0.053-0.068,0.038-0.17-0.033-0.223l-1.286-0.955l-0.068-0.465l0.642-0.094c0.087-0.014,0.149-0.096,0.135-0.186
			c-0.012-0.084-0.094-0.146-0.183-0.133l-0.641,0.092l-0.065-0.438l1.499-1.186l0.413,0.162l-0.235,0.602
			c-0.032,0.086,0.009,0.178,0.091,0.209c0.027,0.01,0.055,0.014,0.083,0.01c0.055-0.01,0.106-0.043,0.126-0.102l0.235-0.604
			l0.437,0.168l0.647,1.467c0.031,0.064,0.101,0.102,0.169,0.092c0.016-0.004,0.029-0.006,0.043-0.01
			c0.081-0.037,0.118-0.135,0.082-0.213l-0.517-1.172l0.992,0.385l0.435,0.986c0.029,0.064,0.101,0.105,0.171,0.092h0.012
			l1.329-0.359c0.05-0.014,0.091-0.049,0.11-0.096C72.545,162.268,72.54,162.213,72.512,162.172z M70.124,155.672l1.012-0.037
			l-0.269,0.975l-0.841-0.1L70.124,155.672z M64.96,153.172l0.71,0.719l-0.505,0.682l-0.68-0.508L64.96,153.172z M60.269,158.213
			l-0.544-0.854l0.978-0.264l0.341,0.775L60.269,158.213z M61.725,163.852l-1.014,0.037l0.271-0.98l0.841,0.1L61.725,163.852z
			 M66.898,166.324l-0.712-0.723l0.505-0.68l0.68,0.504L66.898,166.324z M67.674,160.264l-1.43-0.551l1.208-0.959L67.674,160.264z
			 M67.26,158.498l-1.212,0.959l-0.224-1.529L67.26,158.498z M65.506,157.977l0.226,1.537l-1.458-0.564L65.506,157.977z
			 M64.188,159.262l1.415,0.547l-1.195,0.945L64.188,159.262z M64.614,161.002l1.197-0.947l0.223,1.512L64.614,161.002z
			 M66.352,161.518l-0.223-1.506l1.427,0.555L66.352,161.518z M71.144,162.422l-0.341-0.773l0.774-0.342l0.546,0.852L71.144,162.422
			z"/>
		<radialGradient id="XMLID_8_" cx="131.1953" cy="161.1074" r="9.4145" gradientUnits="userSpaceOnUse">
			<stop  offset="0.0428" style="stop-color:#A8E0F9"/>
			<stop  offset="0.6495" style="stop-color:#74D1F6"/>
			<stop  offset="1" style="stop-color:#27A8E0"/>
		</radialGradient>
		<path id="XMLID_1486_" fill="url(#XMLID_8_)" d="M140.299,164.457l-1.021-1.596c-0.06-0.094-0.177-0.127-0.277-0.082l-1.363,0.602
			l-1.407-0.545l1.669-0.736c0.113-0.051,0.163-0.182,0.113-0.293c-0.05-0.113-0.182-0.166-0.293-0.113l-2.075,0.918l-0.567-0.221
			l0.326-0.838c0.042-0.113-0.014-0.244-0.129-0.287c-0.114-0.045-0.243,0.014-0.288,0.129l-0.323,0.836l-0.572-0.223l-0.382-2.59
			l0.471-0.373l0.559,0.703c0.052,0.064,0.13,0.092,0.206,0.082c0.037-0.008,0.073-0.021,0.105-0.045
			c0.097-0.078,0.113-0.217,0.036-0.314l-0.557-0.703l0.507-0.4l2.199,0.254c0.019,0.002,0.038,0.002,0.059,0
			c0.096-0.014,0.176-0.094,0.188-0.195c0.014-0.121-0.074-0.23-0.195-0.248l-1.758-0.201l1.151-0.91l1.481,0.17
			c0.019,0,0.039,0,0.058,0c0.086-0.014,0.158-0.074,0.182-0.16l0.504-1.83c0.019-0.064,0.003-0.141-0.04-0.195
			c-0.044-0.055-0.112-0.084-0.183-0.084l-1.893,0.07c-0.109,0.004-0.2,0.09-0.212,0.195l-0.174,1.484l-1.183,0.934l0.212-1.811
			c0.014-0.121-0.073-0.234-0.195-0.248c-0.123-0.014-0.232,0.076-0.246,0.195l-0.264,2.254l-0.475,0.377l-0.557-0.701
			c-0.077-0.096-0.216-0.113-0.313-0.039c-0.096,0.08-0.111,0.217-0.036,0.316l0.557,0.701l-0.462,0.367l-2.461-0.977l-0.09-0.605
			l0.888-0.131c0.121-0.018,0.205-0.131,0.188-0.254c-0.02-0.119-0.132-0.205-0.254-0.188l-0.887,0.133l-0.095-0.641l1.32-1.777
			c0.072-0.1,0.054-0.236-0.046-0.311c-0.098-0.072-0.238-0.053-0.31,0.047l-1.056,1.418l-0.216-1.451l0.891-1.199
			c0.065-0.086,0.057-0.209-0.021-0.287l-1.329-1.348c-0.051-0.051-0.121-0.074-0.191-0.064s-0.13,0.055-0.164,0.117l-0.886,1.674
			c-0.052,0.096-0.024,0.217,0.065,0.281l1.196,0.891l0.22,1.49l-1.464-1.086c-0.1-0.076-0.238-0.055-0.313,0.045
			c-0.073,0.1-0.053,0.238,0.047,0.311l1.822,1.354l0.087,0.604l-0.887,0.129c-0.122,0.018-0.206,0.131-0.188,0.25
			c0.019,0.123,0.132,0.205,0.253,0.189l0.888-0.131l0.089,0.605l-2.104,1.668l-0.552-0.211l0.325-0.836
			c0.045-0.117-0.014-0.244-0.127-0.287c-0.114-0.045-0.243,0.01-0.287,0.125l-0.325,0.836l-0.565-0.219l-0.918-2.076
			c-0.05-0.111-0.182-0.16-0.293-0.111c-0.111,0.047-0.163,0.18-0.114,0.293l0.739,1.668l-1.407-0.543l-0.604-1.363
			c-0.044-0.104-0.157-0.154-0.262-0.127l-1.827,0.492c-0.068,0.018-0.125,0.068-0.15,0.135c-0.026,0.068-0.018,0.141,0.021,0.201
			l1.021,1.596c0.048,0.072,0.134,0.109,0.219,0.1c0.021-0.004,0.04-0.01,0.059-0.018l1.363-0.602l1.37,0.531l-1.617,0.715
			c-0.113,0.049-0.164,0.178-0.114,0.291c0.041,0.092,0.139,0.145,0.236,0.131c0.019-0.004,0.039-0.008,0.057-0.018l2.023-0.895
			l0.604,0.234l-0.323,0.834c-0.045,0.117,0.012,0.244,0.127,0.289c0.037,0.018,0.075,0.02,0.113,0.014
			c0.076-0.012,0.144-0.063,0.174-0.141l0.324-0.836l0.594,0.229l0.379,2.57l-0.491,0.387l-0.557-0.703
			c-0.075-0.096-0.214-0.113-0.312-0.037s-0.113,0.217-0.036,0.313l0.557,0.705l-0.477,0.377l-2.254-0.264
			c-0.121-0.014-0.232,0.074-0.248,0.195c-0.014,0.123,0.075,0.232,0.197,0.246l1.812,0.213l-1.182,0.934l-1.481-0.17
			c-0.109-0.014-0.212,0.055-0.239,0.16l-0.504,1.826c-0.019,0.068-0.003,0.145,0.041,0.199c0.045,0.055,0.111,0.084,0.182,0.082
			l1.893-0.068c0,0,0.017,0,0.025-0.004c0.098-0.014,0.175-0.092,0.187-0.195l0.173-1.48l1.151-0.91l-0.204,1.758
			c-0.014,0.119,0.074,0.229,0.195,0.246c0.021,0,0.039,0,0.059-0.004c0.098-0.014,0.176-0.092,0.188-0.191l0.255-2.199l0.507-0.4
			l0.559,0.701c0.05,0.066,0.13,0.094,0.205,0.082c0.038-0.006,0.075-0.02,0.106-0.043c0.096-0.08,0.111-0.221,0.036-0.316
			l-0.557-0.701l0.498-0.395l2.438,0.967l0.089,0.605l-0.887,0.131c-0.121,0.016-0.205,0.129-0.187,0.252
			c0.017,0.121,0.13,0.207,0.252,0.189l0.889-0.135l0.087,0.604l-1.353,1.822c-0.073,0.096-0.053,0.236,0.046,0.309
			c0.048,0.037,0.108,0.051,0.165,0.045c0.055-0.012,0.109-0.041,0.146-0.09l1.089-1.463l0.219,1.49l-0.889,1.199
			c-0.064,0.086-0.058,0.209,0.021,0.287l1.329,1.35c0.05,0.049,0.12,0.072,0.192,0.063c0.068-0.012,0.13-0.053,0.162-0.117
			l0.886-1.674c0.051-0.098,0.023-0.217-0.063-0.281l-1.197-0.891l-0.214-1.453l1.42,1.055c0.05,0.039,0.107,0.053,0.164,0.041
			c0.057-0.006,0.109-0.037,0.146-0.084c0.074-0.1,0.054-0.24-0.044-0.313l-1.778-1.322l-0.094-0.637l0.887-0.133
			c0.122-0.018,0.206-0.131,0.188-0.252c-0.017-0.123-0.13-0.205-0.252-0.188l-0.889,0.131l-0.089-0.607l2.07-1.641l0.57,0.223
			l-0.323,0.836c-0.045,0.117,0.012,0.244,0.126,0.287c0.038,0.014,0.077,0.018,0.113,0.014c0.077-0.014,0.146-0.061,0.175-0.139
			l0.324-0.836l0.603,0.232l0.896,2.023c0.041,0.094,0.139,0.145,0.236,0.131c0.019-0.004,0.039-0.008,0.057-0.018
			c0.113-0.047,0.164-0.182,0.114-0.295l-0.716-1.615l1.37,0.529l0.604,1.363c0.039,0.094,0.139,0.145,0.234,0.131
			c0,0,0.017-0.004,0.027-0.004l1.829-0.492c0.066-0.021,0.123-0.068,0.148-0.135C140.346,164.59,140.337,164.52,140.299,164.457z
			 M136.997,155.477l1.399-0.055l-0.373,1.35l-1.161-0.135L136.997,155.477z M129.862,152.02l0.983,0.998l-0.697,0.938l-0.939-0.699
			L129.862,152.02z M123.383,158.99l-0.756-1.182l1.354-0.363l0.473,1.072L123.383,158.99z M125.392,166.775l-1.399,0.051
			l0.371-1.348l1.163,0.137L125.392,166.775z M132.539,170.193l-0.982-0.996l0.698-0.938l0.938,0.697L132.539,170.193z
			 M133.613,161.822l-1.977-0.764l1.67-1.322L133.613,161.822z M133.04,159.381l-1.674,1.326l-0.31-2.113L133.04,159.381z
			 M130.616,158.658l0.313,2.127l-2.013-0.781L130.616,158.658z M128.796,160.436l1.956,0.758l-1.651,1.309L128.796,160.436z
			 M129.385,162.844l1.654-1.313l0.309,2.09L129.385,162.844z M131.788,163.557l-0.307-2.082l1.969,0.764L131.788,163.557z
			 M138.408,164.807l-0.473-1.072l1.07-0.473l0.754,1.178L138.408,164.807z"/>
		<radialGradient id="XMLID_9_" cx="102.5293" cy="172.0078" r="7.593" gradientUnits="userSpaceOnUse">
			<stop  offset="0.0428" style="stop-color:#A8E0F9"/>
			<stop  offset="0.6495" style="stop-color:#74D1F6"/>
			<stop  offset="1" style="stop-color:#27A8E0"/>
		</radialGradient>
		<path id="XMLID_1472_" fill="url(#XMLID_9_)" d="M109.872,174.709l-0.824-1.285c-0.048-0.076-0.142-0.105-0.223-0.068
			l-1.101,0.486l-1.134-0.438l1.346-0.598c0.091-0.041,0.131-0.146,0.093-0.236c-0.041-0.092-0.147-0.133-0.238-0.092l-1.673,0.74
			l-0.457-0.176l0.262-0.674c0.034-0.092-0.011-0.199-0.103-0.232c-0.093-0.039-0.197,0.01-0.233,0.102l-0.26,0.676l-0.463-0.178
			l-0.308-2.09l0.382-0.301l0.448,0.564c0.041,0.051,0.104,0.074,0.166,0.068c0.031-0.008,0.061-0.018,0.086-0.037
			c0.078-0.063,0.091-0.176,0.029-0.254l-0.449-0.564l0.409-0.326l1.772,0.205c0.016,0.004,0.033,0.004,0.047,0
			c0.078-0.01,0.144-0.074,0.152-0.158c0.012-0.098-0.061-0.184-0.158-0.197l-1.416-0.164l0.929-0.736l1.195,0.139
			c0.015,0.004,0.03,0,0.046,0c0.068-0.01,0.129-0.061,0.147-0.129l0.405-1.473c0.015-0.055,0.002-0.113-0.034-0.162
			c-0.034-0.043-0.089-0.068-0.146-0.064l-1.526,0.055c-0.087,0.004-0.161,0.072-0.171,0.16l-0.139,1.193l-0.954,0.756l0.169-1.463
			c0.013-0.098-0.058-0.188-0.157-0.197c-0.098-0.01-0.187,0.059-0.198,0.156l-0.211,1.82l-0.384,0.305l-0.448-0.568
			c-0.062-0.08-0.175-0.094-0.252-0.031c-0.079,0.061-0.093,0.174-0.031,0.254l0.449,0.568l-0.372,0.295l-1.984-0.789l-0.072-0.49
			l0.716-0.102c0.098-0.018,0.165-0.107,0.151-0.205c-0.015-0.098-0.106-0.166-0.204-0.152l-0.714,0.107l-0.077-0.518l1.063-1.432
			c0.06-0.078,0.044-0.191-0.036-0.25c-0.081-0.063-0.192-0.045-0.252,0.033l-0.85,1.148l-0.173-1.176l0.718-0.961
			c0.053-0.072,0.046-0.172-0.018-0.234l-1.071-1.088c-0.042-0.041-0.098-0.059-0.154-0.053c-0.057,0.012-0.106,0.045-0.132,0.094
			l-0.715,1.352c-0.041,0.08-0.019,0.176,0.052,0.227l0.966,0.719l0.178,1.203l-1.182-0.877c-0.08-0.059-0.191-0.045-0.25,0.037
			c-0.062,0.08-0.044,0.193,0.036,0.25l1.47,1.094l0.07,0.482l-0.716,0.105c-0.098,0.014-0.166,0.107-0.151,0.203
			c0.014,0.1,0.104,0.168,0.204,0.15l0.714-0.104l0.074,0.486l-1.699,1.348l-0.443-0.172l0.261-0.674
			c0.037-0.094-0.009-0.195-0.102-0.234c-0.093-0.033-0.197,0.012-0.231,0.104l-0.262,0.674l-0.457-0.174l-0.74-1.676
			c-0.039-0.088-0.146-0.129-0.236-0.092c-0.091,0.041-0.13,0.146-0.091,0.236l0.595,1.346l-1.136-0.438l-0.484-1.1
			c-0.036-0.082-0.127-0.123-0.212-0.1l-1.473,0.396c-0.056,0.014-0.101,0.055-0.122,0.107c-0.021,0.055-0.015,0.113,0.016,0.16
			l0.824,1.289c0.04,0.061,0.108,0.092,0.178,0.078c0.015,0,0.031-0.004,0.046-0.01l1.1-0.486l1.104,0.424l-1.305,0.578
			c-0.091,0.041-0.13,0.145-0.091,0.236c0.032,0.076,0.113,0.117,0.19,0.107c0.016-0.004,0.031-0.008,0.046-0.014l1.632-0.723
			l0.488,0.188l-0.262,0.676c-0.036,0.092,0.01,0.195,0.103,0.232c0.029,0.01,0.06,0.014,0.091,0.01
			c0.062-0.01,0.116-0.051,0.14-0.113l0.262-0.674l0.479,0.186l0.305,2.072l-0.394,0.311l-0.449-0.568
			c-0.062-0.076-0.175-0.09-0.253-0.027c-0.077,0.063-0.091,0.174-0.027,0.25l0.449,0.568l-0.384,0.305l-1.819-0.213
			c-0.099-0.01-0.188,0.059-0.198,0.158c-0.012,0.1,0.058,0.189,0.157,0.199l1.461,0.172l-0.954,0.752l-1.195-0.137
			c-0.087-0.01-0.167,0.045-0.192,0.131l-0.406,1.473c-0.015,0.055-0.003,0.113,0.033,0.158c0.036,0.043,0.091,0.068,0.147,0.068
			l1.526-0.059c0,0,0.014,0,0.019,0c0.081-0.014,0.144-0.076,0.152-0.158l0.139-1.195l0.93-0.736l-0.166,1.418
			c-0.01,0.1,0.06,0.189,0.157,0.199c0.017,0.004,0.033,0.004,0.048,0c0.079-0.01,0.143-0.076,0.151-0.158l0.208-1.771l0.409-0.324
			l0.448,0.568c0.041,0.051,0.106,0.072,0.166,0.064c0.031-0.002,0.061-0.016,0.086-0.037c0.077-0.063,0.091-0.174,0.029-0.25
			l-0.449-0.568l0.401-0.318l1.97,0.781l0.071,0.486l-0.716,0.105c-0.1,0.014-0.166,0.105-0.152,0.205
			c0.016,0.096,0.106,0.164,0.204,0.15l0.716-0.105l0.071,0.486l-1.092,1.467c-0.059,0.082-0.041,0.191,0.037,0.252
			c0.04,0.027,0.088,0.039,0.134,0.031c0.045-0.006,0.087-0.031,0.116-0.068l0.879-1.182l0.177,1.203l-0.717,0.965
			c-0.053,0.072-0.046,0.172,0.016,0.232l1.074,1.09c0.039,0.041,0.096,0.059,0.152,0.051c0.057-0.01,0.106-0.043,0.134-0.096
			l0.712-1.35c0.043-0.078,0.021-0.174-0.051-0.225l-0.966-0.721l-0.174-1.17l1.146,0.848c0.039,0.031,0.089,0.043,0.133,0.035
			c0.047-0.006,0.088-0.031,0.118-0.068c0.059-0.082,0.043-0.191-0.037-0.254l-1.432-1.064l-0.077-0.514l0.718-0.107
			c0.096-0.014,0.164-0.105,0.15-0.201c-0.016-0.1-0.106-0.168-0.205-0.154l-0.715,0.105l-0.073-0.488l1.67-1.322l0.46,0.178
			l-0.26,0.674c-0.036,0.094,0.01,0.199,0.103,0.234c0.029,0.01,0.06,0.014,0.091,0.01c0.062-0.01,0.116-0.051,0.141-0.113
			l0.26-0.674l0.488,0.188l0.721,1.633c0.035,0.076,0.113,0.117,0.19,0.104c0.016,0,0.031-0.004,0.046-0.01
			c0.091-0.041,0.132-0.148,0.091-0.24l-0.575-1.301l1.104,0.424l0.486,1.104c0.033,0.072,0.111,0.115,0.19,0.102
			c0,0,0.014,0,0.021-0.002l1.475-0.398c0.057-0.014,0.1-0.055,0.121-0.109C109.908,174.818,109.902,174.756,109.872,174.709z
			 M107.209,167.465l1.127-0.041l-0.3,1.088l-0.937-0.109L107.209,167.465z M101.455,164.68l0.793,0.801l-0.563,0.758l-0.759-0.563
			L101.455,164.68z M96.228,170.301l-0.608-0.953l1.089-0.295l0.382,0.863L96.228,170.301z M97.85,176.578l-1.128,0.045l0.3-1.09
			l0.937,0.109L97.85,176.578z M103.614,179.336l-0.793-0.801l0.563-0.762l0.757,0.566L103.614,179.336z M104.48,172.584
			l-1.594-0.615l1.346-1.066L104.48,172.584z M104.019,170.615l-1.35,1.068l-0.252-1.701L104.019,170.615z M102.063,170.033
			l0.252,1.713l-1.622-0.627L102.063,170.033z M100.594,171.465l1.578,0.613l-1.332,1.051L100.594,171.465z M101.069,173.406
			l1.334-1.059l0.248,1.686L101.069,173.406z M103.006,173.982l-0.246-1.678l1.589,0.613L103.006,173.982z M108.348,174.988
			l-0.38-0.861l0.861-0.381l0.607,0.949L108.348,174.988z"/>
	</g>
</g>
</svg>
