<?xml version="1.0" encoding="utf-8"?>
<!-- Generator: Adobe Illustrator 16.0.0, SVG Export Plug-In . SVG Version: 6.00 Build 0)  -->
<!DOCTYPE svg PUBLIC "-//W3C//DTD SVG 1.1//EN" "http://www.w3.org/Graphics/SVG/1.1/DTD/svg11.dtd">
<svg version="1.1" id="Layer_1" xmlns="http://www.w3.org/2000/svg" xmlns:xlink="http://www.w3.org/1999/xlink" x="0px" y="0px"
	 width="200px" height="200px" viewBox="0 0 200 200" enable-background="new 0 0 200 200" xml:space="preserve">
<g id="XMLID_1813_">
	<polygon id="XMLID_1831_" fill="#F7941E" points="30.457,44.395 53.132,43.01 65.664,24.057 85.987,34.225 106.313,24.057 
		118.842,43.01 141.516,44.395 142.902,67.07 161.855,79.602 151.688,99.927 161.855,120.248 142.902,132.78 141.516,155.457 
		118.842,156.84 106.313,175.793 85.986,165.627 65.664,175.793 53.132,156.84 30.457,155.457 29.07,132.78 10.119,120.248 
		20.285,99.927 10.119,79.602 29.07,67.07 	"/>
	
		<linearGradient id="XMLID_2_" gradientUnits="userSpaceOnUse" x1="721.832" y1="-1603.082" x2="874.088" y2="-1603.082" gradientTransform="matrix(0.7071 0.7071 -0.7071 0.7071 -1613 668.0166)">
		<stop  offset="0.017" style="stop-color:#FFC635"/>
		<stop  offset="0.2379" style="stop-color:#FBB040"/>
		<stop  offset="0.7876" style="stop-color:#F7941E"/>
		<stop  offset="0.9796" style="stop-color:#F47B20"/>
	</linearGradient>
	<polygon id="XMLID_1830_" fill="url(#XMLID_2_)" points="3.938,99.927 19.666,82.149 14.923,58.891 37.45,51.388 44.953,28.86 
		68.212,33.604 85.987,17.876 103.764,33.604 127.021,28.86 134.525,51.388 157.053,58.891 152.309,82.149 168.037,99.927 
		152.309,117.7 157.053,140.961 134.525,148.463 127.021,170.989 103.764,166.244 85.987,181.974 68.212,166.244 44.953,170.989 
		37.45,148.463 14.923,140.961 19.666,117.7 	"/>
	<radialGradient id="XMLID_3_" cx="73.9238" cy="88.3862" r="62.1502" gradientUnits="userSpaceOnUse">
		<stop  offset="0.017" style="stop-color:#FFC635"/>
		<stop  offset="0.2379" style="stop-color:#FBB040"/>
		<stop  offset="0.7876" style="stop-color:#F7941E"/>
		<stop  offset="0.9796" style="stop-color:#F47B20"/>
	</radialGradient>
	<circle id="XMLID_1829_" fill="url(#XMLID_3_)" cx="85.987" cy="99.927" r="62.15"/>
	<g>
		<linearGradient id="XMLID_4_" gradientUnits="userSpaceOnUse" x1="51.8101" y1="127.4541" x2="145.9414" y2="127.4541">
			<stop  offset="0" style="stop-color:#FFFFFF"/>
			<stop  offset="1" style="stop-color:#D1D3D4"/>
		</linearGradient>
		<path id="XMLID_1823_" fill="url(#XMLID_4_)" d="M51.81,151.836c9.805,6.468,21.551,10.239,34.177,10.239
			c28.642,0,52.753-19.376,59.954-45.736c-2.145-0.924-4.504-1.441-6.988-1.441c-0.26,0-0.51,0.028-0.768,0.039
			c-2.975-12.667-14.34-22.103-27.918-22.103c-15.842,0-28.685,12.842-28.685,28.685c0,3.009,0.466,5.906,1.326,8.63
			c-6.391,2.657-10.886,8.955-10.886,16.303c0,1.42,0.187,2.789,0.502,4.11H57.582C55.519,150.562,53.564,151.021,51.81,151.836z"/>
		<linearGradient id="XMLID_5_" gradientUnits="userSpaceOnUse" x1="50.6567" y1="139.3877" x2="156.0265" y2="139.3877">
			<stop  offset="0" style="stop-color:#D1D3D4"/>
			<stop  offset="1" style="stop-color:#FFFFFF"/>
		</linearGradient>
		<path id="XMLID_1822_" fill="url(#XMLID_5_)" d="M184.988,154.46c0.305-1.3,0.48-2.65,0.48-4.04
			c0-9.751-7.902-17.654-17.65-17.654c-1.633,0-3.201,0.241-4.703,0.653c-1.467-8.268-8.674-14.555-17.363-14.555
			c-0.258,0-0.512,0.03-0.768,0.04c-2.975-12.67-14.342-22.103-27.918-22.103c-15.842,0-28.686,12.842-28.686,28.685
			c0,3.008,0.467,5.906,1.325,8.63c-6.388,2.658-10.883,8.95-10.883,16.304c0,1.416,0.185,2.788,0.501,4.109H64.378
			c-7.578,0-13.722,6.144-13.722,13.723l0,0c0,7.578,6.144,13.722,13.722,13.722h18.046h50.987h48.748
			c7.676,0,13.9-6.225,13.9-13.901l0,0C196.061,161.363,191.309,155.768,184.988,154.46z"/>
		<path id="XMLID_1821_" fill="#E6E7E8" d="M184.988,154.46c0.305-1.3,0.48-2.65,0.48-4.04c0-9.751-7.902-17.654-17.65-17.654
			c-1.633,0-3.201,0.241-4.703,0.653c-1.455-8.198-8.553-14.44-17.143-14.547c-0.51,27.655-16.615,51.497-39.893,63.102h27.332
			h48.748c7.676,0,13.9-6.225,13.9-13.901l0,0C196.061,161.363,191.309,155.768,184.988,154.46z"/>
		<path id="XMLID_1820_" fill="#F1F2F2" d="M182.293,145.198c0.951,3.739-3.004,6.802-6.291,4.334
			c-0.934-0.701-1.584-1.817-2.109-2.902c-0.727-1.489-1.33-3.084-1.352-4.563c-0.063-4.314,3.566-3.851,6.627-1.416
			C180.604,141.793,181.85,143.454,182.293,145.198z"/>
		<path id="XMLID_1819_" fill="#F1F2F2" d="M60.469,157.22c3.687-1.135,6.945,2.661,4.643,6.071
			c-0.653,0.963-1.737,1.668-2.792,2.248c-1.453,0.8-3.014,1.482-4.49,1.577c-4.306,0.277-4.025-3.37-1.746-6.549
			C57.153,159.078,58.751,157.753,60.469,157.22z"/>
		<path id="XMLID_1818_" fill="#FFFFFF" d="M108.166,101.047c5.316-1.197,9.609,4.589,6.055,9.185
			c-1.006,1.304-2.602,2.184-4.146,2.892c-2.127,0.975-4.396,1.77-6.496,1.733c-6.123-0.094-5.411-5.26-1.912-9.535
			C103.307,103.318,105.684,101.606,108.166,101.047z"/>
	</g>
</g>
</svg>
